%TF.GenerationSoftware,Altium Limited,Altium Designer,23.5.1 (21)*%
G04 Layer_Color=0*
%FSLAX45Y45*%
%MOMM*%
%TF.SameCoordinates,246B43F8-C8EE-452E-B3C0-F8779A116AF4*%
%TF.FilePolarity,Positive*%
%TF.FileFunction,Plated,1,2,PTH,Drill*%
%TF.Part,Single*%
G01*
G75*
%TA.AperFunction,ComponentDrill*%
%ADD48C,0.80000*%
%TA.AperFunction,ViaDrill,NotFilled*%
%ADD49C,0.71120*%
D48*
X3333600Y5108800D02*
D03*
X3333600Y5308800D02*
D03*
X3533600Y5108800D02*
D03*
Y5308800D02*
D03*
X3733600Y5108800D02*
D03*
Y5308800D02*
D03*
X3933600Y5108800D02*
D03*
Y5308800D02*
D03*
X4133600Y5108800D02*
D03*
Y5308800D02*
D03*
X4333600Y5108800D02*
D03*
X4533600D02*
D03*
X4333600Y5308800D02*
D03*
X4533600D02*
D03*
X2847900Y1003300D02*
D03*
X2647900D02*
D03*
X2447900D02*
D03*
X2247900D02*
D03*
X2047900D02*
D03*
X1847900D02*
D03*
X1647900D02*
D03*
X1447900D02*
D03*
X1247899D02*
D03*
X1047899D02*
D03*
X2847900Y1203300D02*
D03*
X2647900D02*
D03*
X2447900D02*
D03*
X2247900D02*
D03*
X2047900D02*
D03*
X1847900D02*
D03*
X1647900D02*
D03*
X1447900D02*
D03*
X1247899D02*
D03*
X1047899D02*
D03*
D49*
X2260600Y3073400D02*
D03*
X4000500Y2984500D02*
D03*
%TF.MD5,f11c2202af099d549340ae0e5799f4a1*%
M02*
