%TF.GenerationSoftware,Altium Limited,Altium Designer,23.5.1 (21)*%
G04 Layer_Color=32896*
%FSLAX45Y45*%
%MOMM*%
%TF.SameCoordinates,246B43F8-C8EE-452E-B3C0-F8779A116AF4*%
%TF.FilePolarity,Positive*%
%TF.FileFunction,Legend,Bot*%
%TF.Part,Single*%
G01*
G75*
%TA.AperFunction,NonConductor*%
%ADD26C,0.20000*%
%ADD27C,0.40000*%
%ADD28C,0.20320*%
%ADD29C,0.25400*%
D26*
X518000Y2796400D02*
G03*
X518000Y2796400I-10000J0D01*
G01*
X3218600Y5008800D02*
Y5408800D01*
X4648600D01*
X3218600Y5008800D02*
X4648600D01*
Y5408800D01*
X1014100Y1607900D02*
Y1617900D01*
X1094100Y1607900D02*
Y1617900D01*
X1407800Y1607900D02*
Y1617900D01*
X1487800Y1607900D02*
Y1617900D01*
X1801500Y1604100D02*
Y1614100D01*
X1881500Y1604100D02*
Y1614100D01*
X2207900Y1629500D02*
Y1639500D01*
X2287900Y1629500D02*
Y1639500D01*
X2614300Y1633300D02*
Y1643300D01*
X2694300Y1633300D02*
Y1643300D01*
X3066899Y368300D02*
Y851300D01*
X828899Y368300D02*
X3066899D01*
X828899D02*
Y851300D01*
X3066899D01*
X458000Y2711400D02*
X753000D01*
Y2838900D01*
X458000D02*
X753000D01*
X458000Y2711400D02*
Y2838900D01*
X2300600Y2836000D02*
Y2846000D01*
X2220600Y2836000D02*
Y2846000D01*
X929000Y2750900D02*
Y2760900D01*
X849000Y2750900D02*
Y2760900D01*
X4262200Y3024500D02*
X4272200D01*
X4262200Y2944500D02*
X4272200D01*
X351400Y4123700D02*
X461400D01*
X351400Y4283700D02*
X461400D01*
X1119500Y2776300D02*
Y2786300D01*
X1039500Y2776300D02*
Y2786300D01*
X332100Y2789000D02*
Y2799000D01*
X252100Y2789000D02*
Y2799000D01*
X5170400Y2636300D02*
X5545400D01*
X3395400Y361300D02*
X5545400D01*
X3395400D02*
Y561300D01*
Y961300D02*
Y1061300D01*
Y1461300D02*
Y1561300D01*
Y1961300D02*
Y2061300D01*
Y2461300D02*
Y2636300D01*
X5545400Y361300D02*
Y561300D01*
Y961300D02*
Y1061300D01*
Y1461300D02*
Y1561300D01*
Y1961300D02*
Y2061300D01*
Y2461300D02*
Y2631300D01*
X4670400Y2636300D02*
X4770400D01*
X4170400D02*
X4270400D01*
X3395400D02*
X3770400D01*
X2122800Y3745300D02*
Y3755300D01*
X2042800Y3745300D02*
Y3755300D01*
X1906900Y3737700D02*
Y3747700D01*
X1826900Y3737700D02*
Y3747700D01*
X1691000Y3737700D02*
Y3747700D01*
X1611000Y3737700D02*
Y3747700D01*
X1475100Y3745300D02*
Y3755300D01*
X1395100Y3745300D02*
Y3755300D01*
X713100Y3643700D02*
Y3653700D01*
X633100Y3643700D02*
Y3653700D01*
X1225200Y3006700D02*
X1975200D01*
X1225200Y2606700D02*
X1975200D01*
X1225200D02*
Y3006700D01*
X1975200Y2606700D02*
Y3006700D01*
D27*
X1325200Y2926700D02*
G03*
X1325200Y2926700I-20000J0D01*
G01*
D28*
X393700Y5092700D02*
X2959100D01*
X393700D02*
Y5600700D01*
X2959100D01*
Y5092700D02*
Y5600700D01*
D29*
X4813300Y361300D02*
Y800100D01*
X4165600D02*
X4813300D01*
X4165600Y361300D02*
Y800100D01*
X726440Y3263851D02*
Y3136892D01*
X701048Y3111500D01*
X650265D01*
X624873Y3136892D01*
Y3263851D01*
X574089Y3238459D02*
X548697Y3263851D01*
X497914D01*
X472522Y3238459D01*
Y3213067D01*
X497914Y3187675D01*
X523306D01*
X497914D01*
X472522Y3162283D01*
Y3136892D01*
X497914Y3111500D01*
X548697D01*
X574089Y3136892D01*
X1475740Y3515311D02*
Y3388352D01*
X1450348Y3362960D01*
X1399565D01*
X1374173Y3388352D01*
Y3515311D01*
X1221822Y3362960D02*
X1323389D01*
X1221822Y3464527D01*
Y3489919D01*
X1247214Y3515311D01*
X1297997D01*
X1323389Y3489919D01*
X5580380Y2926031D02*
Y2799072D01*
X5554988Y2773680D01*
X5504205D01*
X5478813Y2799072D01*
Y2926031D01*
X5428029Y2773680D02*
X5377246D01*
X5402637D01*
Y2926031D01*
X5428029Y2900639D01*
X1002040Y3877300D02*
Y4029651D01*
X925865D01*
X900473Y4004259D01*
Y3953475D01*
X925865Y3928083D01*
X1002040D01*
X951257D02*
X900473Y3877300D01*
X849689D02*
X798906D01*
X824298D01*
Y4029651D01*
X849689Y4004259D01*
X722731D02*
X697339Y4029651D01*
X646555D01*
X621163Y4004259D01*
Y3902692D01*
X646555Y3877300D01*
X697339D01*
X722731Y3902692D01*
Y4004259D01*
X1254760Y1841500D02*
Y1993851D01*
X1178585D01*
X1153193Y1968459D01*
Y1917675D01*
X1178585Y1892283D01*
X1254760D01*
X1203977D02*
X1153193Y1841500D01*
X1102409Y1866892D02*
X1077017Y1841500D01*
X1026234D01*
X1000842Y1866892D01*
Y1968459D01*
X1026234Y1993851D01*
X1077017D01*
X1102409Y1968459D01*
Y1943067D01*
X1077017Y1917675D01*
X1000842D01*
X1635760Y3980180D02*
Y4132531D01*
X1559585D01*
X1534193Y4107139D01*
Y4056355D01*
X1559585Y4030963D01*
X1635760D01*
X1584977D02*
X1534193Y3980180D01*
X1483409Y4107139D02*
X1458017Y4132531D01*
X1407234D01*
X1381842Y4107139D01*
Y4081747D01*
X1407234Y4056355D01*
X1381842Y4030963D01*
Y4005572D01*
X1407234Y3980180D01*
X1458017D01*
X1483409Y4005572D01*
Y4030963D01*
X1458017Y4056355D01*
X1483409Y4081747D01*
Y4107139D01*
X1458017Y4056355D02*
X1407234D01*
X1851660Y3972560D02*
Y4124911D01*
X1775485D01*
X1750093Y4099519D01*
Y4048735D01*
X1775485Y4023343D01*
X1851660D01*
X1800877D02*
X1750093Y3972560D01*
X1699309Y4124911D02*
X1597742D01*
Y4099519D01*
X1699309Y3997952D01*
Y3972560D01*
X2067560D02*
Y4124911D01*
X1991385D01*
X1965993Y4099519D01*
Y4048735D01*
X1991385Y4023343D01*
X2067560D01*
X2016777D02*
X1965993Y3972560D01*
X1813642Y4124911D02*
X1864426Y4099519D01*
X1915209Y4048735D01*
Y3997952D01*
X1889817Y3972560D01*
X1839034D01*
X1813642Y3997952D01*
Y4023343D01*
X1839034Y4048735D01*
X1915209D01*
X2283460Y3980180D02*
Y4132531D01*
X2207285D01*
X2181893Y4107139D01*
Y4056355D01*
X2207285Y4030963D01*
X2283460D01*
X2232677D02*
X2181893Y3980180D01*
X2029542Y4132531D02*
X2131109D01*
Y4056355D01*
X2080326Y4081747D01*
X2054934D01*
X2029542Y4056355D01*
Y4005572D01*
X2054934Y3980180D01*
X2105717D01*
X2131109Y4005572D01*
X2854960Y1866900D02*
Y2019251D01*
X2778785D01*
X2753393Y1993859D01*
Y1943075D01*
X2778785Y1917683D01*
X2854960D01*
X2804177D02*
X2753393Y1866900D01*
X2626434D02*
Y2019251D01*
X2702609Y1943075D01*
X2601042D01*
X2448560Y1864360D02*
Y2016711D01*
X2372385D01*
X2346993Y1991319D01*
Y1940535D01*
X2372385Y1915143D01*
X2448560D01*
X2397777D02*
X2346993Y1864360D01*
X2296209Y1991319D02*
X2270817Y2016711D01*
X2220034D01*
X2194642Y1991319D01*
Y1965927D01*
X2220034Y1940535D01*
X2245426D01*
X2220034D01*
X2194642Y1915143D01*
Y1889752D01*
X2220034Y1864360D01*
X2270817D01*
X2296209Y1889752D01*
X2042160Y1838960D02*
Y1991311D01*
X1965985D01*
X1940593Y1965919D01*
Y1915135D01*
X1965985Y1889743D01*
X2042160D01*
X1991377D02*
X1940593Y1838960D01*
X1788242D02*
X1889809D01*
X1788242Y1940527D01*
Y1965919D01*
X1813634Y1991311D01*
X1864417D01*
X1889809Y1965919D01*
X1597660Y1841500D02*
Y1993851D01*
X1521485D01*
X1496093Y1968459D01*
Y1917675D01*
X1521485Y1892283D01*
X1597660D01*
X1546877D02*
X1496093Y1841500D01*
X1445309D02*
X1394526D01*
X1419917D01*
Y1993851D01*
X1445309Y1968459D01*
X3487420Y5494020D02*
Y5646371D01*
X3411245D01*
X3385853Y5620979D01*
Y5570195D01*
X3411245Y5544803D01*
X3487420D01*
X3335069Y5620979D02*
X3309677Y5646371D01*
X3258894D01*
X3233502Y5620979D01*
Y5595587D01*
X3258894Y5570195D01*
X3284286D01*
X3258894D01*
X3233502Y5544803D01*
Y5519412D01*
X3258894Y5494020D01*
X3309677D01*
X3335069Y5519412D01*
X1097280Y1358900D02*
Y1511251D01*
X1021105D01*
X995713Y1485859D01*
Y1435075D01*
X1021105Y1409683D01*
X1097280D01*
X843362Y1358900D02*
X944929D01*
X843362Y1460467D01*
Y1485859D01*
X868754Y1511251D01*
X919537D01*
X944929Y1485859D01*
X612140Y6017260D02*
Y6169611D01*
X535965D01*
X510573Y6144219D01*
Y6093435D01*
X535965Y6068043D01*
X612140D01*
X459789Y6017260D02*
X409006D01*
X434397D01*
Y6169611D01*
X459789Y6144219D01*
X518193Y4523699D02*
X543585Y4549091D01*
X594368D01*
X619760Y4523699D01*
Y4422132D01*
X594368Y4396740D01*
X543585D01*
X518193Y4422132D01*
X365842Y4549091D02*
X416626Y4523699D01*
X467409Y4472915D01*
Y4422132D01*
X442017Y4396740D01*
X391234D01*
X365842Y4422132D01*
Y4447523D01*
X391234Y4472915D01*
X467409D01*
X391193Y3149559D02*
X416585Y3174951D01*
X467368D01*
X492760Y3149559D01*
Y3047992D01*
X467368Y3022600D01*
X416585D01*
X391193Y3047992D01*
X238842Y3174951D02*
X340409D01*
Y3098775D01*
X289626Y3124167D01*
X264234D01*
X238842Y3098775D01*
Y3047992D01*
X264234Y3022600D01*
X315017D01*
X340409Y3047992D01*
X1178593Y3136859D02*
X1203985Y3162251D01*
X1254768D01*
X1280160Y3136859D01*
Y3035292D01*
X1254768Y3009900D01*
X1203985D01*
X1178593Y3035292D01*
X1051634Y3009900D02*
Y3162251D01*
X1127809Y3086075D01*
X1026242D01*
X988093Y3111459D02*
X1013485Y3136851D01*
X1064268D01*
X1089660Y3111459D01*
Y3009892D01*
X1064268Y2984500D01*
X1013485D01*
X988093Y3009892D01*
X937309Y3111459D02*
X911917Y3136851D01*
X861134D01*
X835742Y3111459D01*
Y3086067D01*
X861134Y3060675D01*
X886526D01*
X861134D01*
X835742Y3035283D01*
Y3009892D01*
X861134Y2984500D01*
X911917D01*
X937309Y3009892D01*
X2359693Y3197819D02*
X2385085Y3223211D01*
X2435868D01*
X2461260Y3197819D01*
Y3096252D01*
X2435868Y3070860D01*
X2385085D01*
X2359693Y3096252D01*
X2207342Y3070860D02*
X2308909D01*
X2207342Y3172427D01*
Y3197819D01*
X2232734Y3223211D01*
X2283517D01*
X2308909Y3197819D01*
X4241833Y3266399D02*
X4267225Y3291791D01*
X4318008D01*
X4343400Y3266399D01*
Y3164832D01*
X4318008Y3139440D01*
X4267225D01*
X4241833Y3164832D01*
X4191049Y3139440D02*
X4140266D01*
X4165657D01*
Y3291791D01*
X4191049Y3266399D01*
%TF.MD5,e2484074252f3a071599d046794be710*%
M02*
