%TF.GenerationSoftware,Altium Limited,Altium Designer,23.5.1 (21)*%
G04 Layer_Color=128*
%FSLAX45Y45*%
%MOMM*%
%TF.SameCoordinates,246B43F8-C8EE-452E-B3C0-F8779A116AF4*%
%TF.FilePolarity,Positive*%
%TF.FileFunction,Paste,Bot*%
%TF.Part,Single*%
G01*
G75*
%TA.AperFunction,SMDPad,CuDef*%
G04:AMPARAMS|DCode=16|XSize=2.286mm|YSize=1.016mm|CornerRadius=0.254mm|HoleSize=0mm|Usage=FLASHONLY|Rotation=90.000|XOffset=0mm|YOffset=0mm|HoleType=Round|Shape=RoundedRectangle|*
%AMROUNDEDRECTD16*
21,1,2.28600,0.50800,0,0,90.0*
21,1,1.77800,1.01600,0,0,90.0*
1,1,0.50800,0.25400,0.88900*
1,1,0.50800,0.25400,-0.88900*
1,1,0.50800,-0.25400,-0.88900*
1,1,0.50800,-0.25400,0.88900*
%
%ADD16ROUNDEDRECTD16*%
%ADD17R,1.01600X2.28600*%
%ADD18R,1.00000X0.90000*%
%ADD19R,0.40000X1.60000*%
G04:AMPARAMS|DCode=20|XSize=1.6mm|YSize=0.4mm|CornerRadius=0.1mm|HoleSize=0mm|Usage=FLASHONLY|Rotation=270.000|XOffset=0mm|YOffset=0mm|HoleType=Round|Shape=RoundedRectangle|*
%AMROUNDEDRECTD20*
21,1,1.60000,0.20000,0,0,270.0*
21,1,1.40000,0.40000,0,0,270.0*
1,1,0.20000,-0.10000,-0.70000*
1,1,0.20000,-0.10000,0.70000*
1,1,0.20000,0.10000,0.70000*
1,1,0.20000,0.10000,-0.70000*
%
%ADD20ROUNDEDRECTD20*%
%ADD21R,0.90000X1.00000*%
%ADD22R,1.15000X1.80000*%
%ADD23R,3.00000X3.50000*%
%ADD24R,3.50000X3.00000*%
%ADD25O,0.40000X2.10000*%
D16*
X533400Y5816600D02*
D03*
X787400D02*
D03*
X1041400D02*
D03*
X1295400D02*
D03*
X1549400D02*
D03*
X1803400D02*
D03*
X2057400D02*
D03*
X2311400D02*
D03*
X2565400D02*
D03*
X533400Y4876800D02*
D03*
X787400D02*
D03*
X1041400D02*
D03*
X1295400D02*
D03*
X1549400D02*
D03*
X1803400D02*
D03*
X2057400D02*
D03*
X2311400D02*
D03*
X2565400D02*
D03*
X2819400D02*
D03*
D17*
Y5816600D02*
D03*
D18*
X1054100Y1532900D02*
D03*
Y1692900D02*
D03*
X1447800Y1532900D02*
D03*
Y1692900D02*
D03*
X1841500Y1529100D02*
D03*
Y1689100D02*
D03*
X2247900Y1554500D02*
D03*
Y1714500D02*
D03*
X2654300Y1558300D02*
D03*
Y1718300D02*
D03*
X2260600Y2761000D02*
D03*
Y2921000D02*
D03*
X889000Y2675900D02*
D03*
Y2835900D02*
D03*
X1079500Y2701300D02*
D03*
Y2861300D02*
D03*
X292100Y2714000D02*
D03*
Y2874000D02*
D03*
X2082800Y3830300D02*
D03*
Y3670300D02*
D03*
X1866900Y3822700D02*
D03*
Y3662700D02*
D03*
X1651000Y3822700D02*
D03*
Y3662700D02*
D03*
X1435100Y3830300D02*
D03*
Y3670300D02*
D03*
X673100Y3728700D02*
D03*
Y3568700D02*
D03*
D19*
X508000Y2946400D02*
D03*
D20*
X573000D02*
D03*
X638000D02*
D03*
X703000D02*
D03*
X508000Y2606400D02*
D03*
X573000D02*
D03*
X638000D02*
D03*
X703000D02*
D03*
D21*
X4347200Y2984500D02*
D03*
X4187200D02*
D03*
D22*
X256400Y4203700D02*
D03*
X556400D02*
D03*
D23*
X3495400Y761300D02*
D03*
Y1261300D02*
D03*
Y1761300D02*
D03*
Y2261300D02*
D03*
X5445400Y761300D02*
D03*
Y1261300D02*
D03*
Y1761300D02*
D03*
Y2261300D02*
D03*
D24*
X3970400Y2536300D02*
D03*
X4470400D02*
D03*
X4970400D02*
D03*
D25*
X1307700Y3151700D02*
D03*
X1372700D02*
D03*
X1437700D02*
D03*
X1502700D02*
D03*
X1567700D02*
D03*
X1632700D02*
D03*
X1697700D02*
D03*
X1762700D02*
D03*
X1827700D02*
D03*
X1892700D02*
D03*
X1307700Y2461700D02*
D03*
X1372700D02*
D03*
X1437700D02*
D03*
X1502700D02*
D03*
X1567700D02*
D03*
X1632700D02*
D03*
X1697700D02*
D03*
X1762700D02*
D03*
X1827700D02*
D03*
X1892700D02*
D03*
%TF.MD5,6a7129011373ec18b0ab771165469c70*%
M02*
