G04*
G04 #@! TF.GenerationSoftware,Altium Limited,Altium Designer,23.5.1 (21)*
G04*
G04 Layer_Physical_Order=2*
G04 Layer_Color=16711680*
%FSLAX25Y25*%
%MOIN*%
G70*
G04*
G04 #@! TF.SameCoordinates,AECD9D96-F518-4A3F-A787-8A2A48882B8B*
G04*
G04*
G04 #@! TF.FilePolarity,Positive*
G04*
G01*
G75*
%ADD10C,0.01000*%
%ADD11O,0.04724X0.05906*%
G04:AMPARAMS|DCode=12|XSize=59.06mil|YSize=47.24mil|CornerRadius=11.81mil|HoleSize=0mil|Usage=FLASHONLY|Rotation=90.000|XOffset=0mil|YOffset=0mil|HoleType=Round|Shape=RoundedRectangle|*
%AMROUNDEDRECTD12*
21,1,0.05906,0.02362,0,0,90.0*
21,1,0.03543,0.04724,0,0,90.0*
1,1,0.02362,0.01181,0.01772*
1,1,0.02362,0.01181,-0.01772*
1,1,0.02362,-0.01181,-0.01772*
1,1,0.02362,-0.01181,0.01772*
%
%ADD12ROUNDEDRECTD12*%
%ADD13C,0.05512*%
%ADD14R,0.05512X0.05512*%
%ADD15C,0.05000*%
G04:AMPARAMS|DCode=16|XSize=90mil|YSize=40mil|CornerRadius=10mil|HoleSize=0mil|Usage=FLASHONLY|Rotation=90.000|XOffset=0mil|YOffset=0mil|HoleType=Round|Shape=RoundedRectangle|*
%AMROUNDEDRECTD16*
21,1,0.09000,0.02000,0,0,90.0*
21,1,0.07000,0.04000,0,0,90.0*
1,1,0.02000,0.01000,0.03500*
1,1,0.02000,0.01000,-0.03500*
1,1,0.02000,-0.01000,-0.03500*
1,1,0.02000,-0.01000,0.03500*
%
%ADD16ROUNDEDRECTD16*%
%ADD17R,0.04000X0.09000*%
%ADD18R,0.03937X0.03543*%
%ADD19R,0.01575X0.06299*%
G04:AMPARAMS|DCode=20|XSize=62.99mil|YSize=15.75mil|CornerRadius=3.94mil|HoleSize=0mil|Usage=FLASHONLY|Rotation=270.000|XOffset=0mil|YOffset=0mil|HoleType=Round|Shape=RoundedRectangle|*
%AMROUNDEDRECTD20*
21,1,0.06299,0.00787,0,0,270.0*
21,1,0.05512,0.01575,0,0,270.0*
1,1,0.00787,-0.00394,-0.02756*
1,1,0.00787,-0.00394,0.02756*
1,1,0.00787,0.00394,0.02756*
1,1,0.00787,0.00394,-0.02756*
%
%ADD20ROUNDEDRECTD20*%
%ADD21R,0.03543X0.03937*%
%ADD22R,0.04528X0.07087*%
%ADD23R,0.11811X0.13780*%
%ADD24R,0.13780X0.11811*%
%ADD25O,0.01575X0.08268*%
G36*
X193840Y247840D02*
X194000Y247773D01*
Y135500D01*
X247000D01*
X248000Y134500D01*
X247500Y134000D01*
Y5000D01*
X24000D01*
X23000Y6000D01*
Y76500D01*
X20500D01*
X2500Y94500D01*
X2532Y101691D01*
X3032Y101739D01*
X3058Y101610D01*
X3279Y101279D01*
X5279Y99279D01*
X23980Y80578D01*
Y16500D01*
X24058Y16110D01*
X24279Y15779D01*
X26779Y13279D01*
X27110Y13058D01*
X27500Y12980D01*
X233000D01*
X233390Y13058D01*
X233721Y13279D01*
X233942Y13610D01*
X234020Y14000D01*
Y120000D01*
X233942Y120390D01*
X233721Y120721D01*
X233390Y120942D01*
X233000Y121020D01*
X183520D01*
Y204000D01*
X183442Y204390D01*
X183221Y204721D01*
X182890Y204942D01*
X182500Y205020D01*
X181545D01*
X181382Y204987D01*
X181218Y204965D01*
X181188Y204949D01*
X181155Y204942D01*
X181017Y204850D01*
X180873Y204767D01*
X180692Y204861D01*
X180784Y205358D01*
X181242Y205664D01*
X181724Y206385D01*
X181893Y207236D01*
Y208508D01*
X178488D01*
X175083D01*
Y207236D01*
X175252Y206385D01*
X175735Y205664D01*
X176456Y205182D01*
X176649Y205143D01*
X176737Y204850D01*
X176734Y204616D01*
X176090Y204122D01*
X175551Y203420D01*
X175213Y202602D01*
X175097Y201724D01*
Y200543D01*
X175175Y199947D01*
X174801Y199872D01*
X174708Y199834D01*
X174610Y199814D01*
X174526Y199758D01*
X174434Y199720D01*
X174396Y199683D01*
X174328Y199690D01*
X173940Y200049D01*
X174005Y200543D01*
Y201724D01*
X173890Y202602D01*
X173551Y203420D01*
X173012Y204122D01*
X172310Y204661D01*
X171974Y204800D01*
Y205342D01*
X172310Y205481D01*
X173012Y206019D01*
X173551Y206722D01*
X173890Y207540D01*
X174005Y208417D01*
Y208508D01*
X170614D01*
X167223D01*
Y208417D01*
X167339Y207540D01*
X167677Y206722D01*
X168216Y206019D01*
X168919Y205481D01*
X169254Y205342D01*
Y204800D01*
X168919Y204661D01*
X168216Y204122D01*
X167677Y203420D01*
X167339Y202602D01*
X167223Y201724D01*
Y200543D01*
X167339Y199666D01*
X167677Y198848D01*
X168216Y198145D01*
X168919Y197606D01*
X169085Y197538D01*
Y167748D01*
X135919Y134581D01*
X135587Y134085D01*
X135471Y133500D01*
Y96917D01*
X130709D01*
Y81262D01*
X130709Y81138D01*
X130410Y80762D01*
X127022D01*
Y135359D01*
X163822Y172159D01*
X164153Y172655D01*
X164270Y173240D01*
Y197538D01*
X164436Y197606D01*
X165138Y198145D01*
X165677Y198848D01*
X166016Y199666D01*
X166131Y200543D01*
Y201724D01*
X166016Y202602D01*
X165677Y203420D01*
X165138Y204122D01*
X164436Y204661D01*
X164100Y204800D01*
X164100Y205342D01*
X164436Y205481D01*
X165138Y206019D01*
X165677Y206722D01*
X166016Y207540D01*
X166131Y208417D01*
Y208508D01*
X162740D01*
X159349D01*
Y208417D01*
X159465Y207540D01*
X159803Y206722D01*
X160342Y206019D01*
X161045Y205481D01*
X161380Y205342D01*
X161380Y204800D01*
X161045Y204661D01*
X160342Y204122D01*
X159803Y203420D01*
X159465Y202602D01*
X159349Y201724D01*
Y200543D01*
X159465Y199666D01*
X159803Y198848D01*
X160342Y198145D01*
X161045Y197606D01*
X161211Y197538D01*
Y173874D01*
X124411Y137074D01*
X124080Y136578D01*
X123963Y135993D01*
Y79818D01*
X124080Y79233D01*
X124411Y78737D01*
X124997Y78151D01*
X125493Y77819D01*
X126079Y77703D01*
X130638D01*
X130709Y77232D01*
X130709Y77203D01*
Y70529D01*
X122529D01*
Y144834D01*
X155948Y178252D01*
X156279Y178748D01*
X156395Y179334D01*
Y197538D01*
X156562Y197606D01*
X157264Y198145D01*
X157803Y198848D01*
X158142Y199666D01*
X158257Y200543D01*
Y201724D01*
X158142Y202602D01*
X157803Y203420D01*
X157264Y204122D01*
X156562Y204661D01*
X156226Y204800D01*
X156226Y205342D01*
X156562Y205481D01*
X157264Y206019D01*
X157803Y206722D01*
X158142Y207540D01*
X158257Y208417D01*
Y208508D01*
X154866D01*
X151475D01*
Y208417D01*
X151591Y207540D01*
X151929Y206722D01*
X152468Y206019D01*
X153171Y205481D01*
X153506Y205342D01*
X153506Y204800D01*
X153171Y204661D01*
X152468Y204122D01*
X151929Y203420D01*
X151591Y202602D01*
X151475Y201724D01*
Y200543D01*
X151591Y199666D01*
X151929Y198848D01*
X152468Y198145D01*
X153171Y197606D01*
X153337Y197538D01*
Y179967D01*
X119919Y146549D01*
X119587Y146053D01*
X119471Y145467D01*
Y69586D01*
X119587Y69001D01*
X119919Y68504D01*
X120504Y67919D01*
X121001Y67587D01*
X121586Y67471D01*
X130709D01*
Y61453D01*
X144520D01*
Y77203D01*
X144520Y77232D01*
X144591Y77703D01*
X150756D01*
Y50687D01*
X144520D01*
Y57547D01*
X130709D01*
Y42029D01*
X130709Y41768D01*
X130307Y41529D01*
X121634D01*
X118529Y44633D01*
Y155367D01*
X148581Y185419D01*
X148913Y185915D01*
X149029Y186500D01*
Y197869D01*
X149390Y198145D01*
X149929Y198848D01*
X150268Y199666D01*
X150383Y200543D01*
Y201724D01*
X150268Y202602D01*
X149929Y203420D01*
X149390Y204122D01*
X148688Y204661D01*
X148352Y204800D01*
X148352Y205342D01*
X148688Y205481D01*
X149390Y206019D01*
X149929Y206722D01*
X150268Y207540D01*
X150383Y208417D01*
Y208508D01*
X146992D01*
X143601D01*
Y208417D01*
X143717Y207540D01*
X144055Y206722D01*
X144594Y206019D01*
X145297Y205481D01*
X145632Y205342D01*
X145632Y204800D01*
X145297Y204661D01*
X144594Y204122D01*
X144055Y203420D01*
X143717Y202602D01*
X143601Y201724D01*
Y200543D01*
X143717Y199666D01*
X144055Y198848D01*
X144594Y198145D01*
X145297Y197606D01*
X145971Y197327D01*
Y187134D01*
X115919Y157081D01*
X115587Y156585D01*
X115471Y156000D01*
Y50044D01*
X114971Y49837D01*
X114428Y50380D01*
X113651Y50828D01*
Y65889D01*
X113535Y66474D01*
X113204Y66970D01*
X85022Y95152D01*
X84526Y95484D01*
X83940Y95600D01*
X76338D01*
Y98921D01*
X94441D01*
X94831Y98999D01*
X95162Y99220D01*
X95221Y99279D01*
X95442Y99610D01*
X95520Y100000D01*
Y111000D01*
X95442Y111390D01*
X95221Y111721D01*
X94890Y111942D01*
X94500Y112020D01*
X92382D01*
X91969Y112228D01*
X91969Y112520D01*
Y114500D01*
X89000D01*
X86032D01*
Y112520D01*
X86032Y112228D01*
X85618Y112020D01*
X45469D01*
Y112150D01*
X42500D01*
X39531D01*
Y112020D01*
X37969D01*
Y114421D01*
X35500D01*
Y111650D01*
X34500D01*
Y114421D01*
X32032D01*
Y112020D01*
X29530D01*
X29263Y112520D01*
X29384Y112700D01*
X29492Y113244D01*
Y115500D01*
X27677D01*
Y116000D01*
X27177D01*
Y120156D01*
X27029Y120126D01*
X26529Y120484D01*
Y127866D01*
X27581Y128919D01*
X27913Y129415D01*
X28029Y130000D01*
Y137728D01*
X29469D01*
Y143272D01*
X23531D01*
Y139285D01*
X23070Y139093D01*
X16529Y145633D01*
Y154654D01*
X16991Y154846D01*
X20919Y150919D01*
X21415Y150587D01*
X22000Y150471D01*
X23866D01*
X24304Y150033D01*
X24113Y149571D01*
X23531D01*
Y144028D01*
X29469D01*
Y149571D01*
X28029D01*
Y150000D01*
X27913Y150585D01*
X27581Y151081D01*
X25581Y153081D01*
X25085Y153413D01*
X24500Y153529D01*
X22634D01*
X18529Y157633D01*
Y160503D01*
X18642Y160957D01*
X19029Y160957D01*
X21406D01*
Y165500D01*
Y170043D01*
X18642Y170043D01*
X18529Y170497D01*
Y186476D01*
X19029Y186743D01*
X19220Y186616D01*
X20000Y186461D01*
X22000D01*
X22780Y186616D01*
X23442Y187058D01*
X23884Y187720D01*
X24039Y188500D01*
Y195500D01*
X23884Y196280D01*
X23442Y196942D01*
X22780Y197384D01*
X22000Y197539D01*
X20000D01*
X19220Y197384D01*
X19029Y197257D01*
X18529Y197524D01*
Y206523D01*
X22032Y210026D01*
X22553Y209840D01*
X22738Y209149D01*
X23199Y208351D01*
X23851Y207699D01*
X24649Y207239D01*
X25539Y207000D01*
X26461D01*
X27351Y207239D01*
X28149Y207699D01*
X28801Y208351D01*
X29261Y209149D01*
X29500Y210039D01*
Y210961D01*
X29261Y211851D01*
X28801Y212649D01*
X28149Y213301D01*
X27351Y213761D01*
X26660Y213947D01*
X26474Y214468D01*
X32081Y220075D01*
X32413Y220572D01*
X32529Y221157D01*
Y223566D01*
X32780Y223616D01*
X33442Y224058D01*
X33884Y224720D01*
X34039Y225500D01*
Y232500D01*
X33884Y233280D01*
X33442Y233942D01*
X32780Y234384D01*
X32000Y234539D01*
X30000D01*
X29220Y234384D01*
X28558Y233942D01*
X28116Y233280D01*
X27961Y232500D01*
Y225500D01*
X28116Y224720D01*
X28558Y224058D01*
X29220Y223616D01*
X29471Y223566D01*
Y221790D01*
X23004Y215324D01*
X22661Y215451D01*
X22529Y215556D01*
Y223566D01*
X22780Y223616D01*
X23442Y224058D01*
X23884Y224720D01*
X24039Y225500D01*
Y232500D01*
X23884Y233280D01*
X23442Y233942D01*
X22780Y234384D01*
X22000Y234539D01*
X20000D01*
X19220Y234384D01*
X18558Y233942D01*
X18116Y233280D01*
X17961Y232500D01*
Y225500D01*
X18116Y224720D01*
X18558Y224058D01*
X19220Y223616D01*
X19471Y223566D01*
Y216133D01*
X13919Y210581D01*
X13587Y210085D01*
X13471Y209500D01*
Y170497D01*
X13358Y170043D01*
X10138D01*
X9947Y170505D01*
X10259Y170817D01*
X10480Y171148D01*
X10558Y171538D01*
X10480Y171928D01*
X10289Y172390D01*
X10289Y172390D01*
X10068Y172721D01*
X9737Y172942D01*
X9347Y173020D01*
X4000D01*
X3610Y172942D01*
X3349Y172768D01*
X3068Y172848D01*
X2850Y172979D01*
X3185Y247840D01*
X193840D01*
D02*
G37*
G36*
X182500Y120500D02*
X182000Y120000D01*
X233000D01*
Y14000D01*
X27500D01*
X25000Y16500D01*
Y81000D01*
X6000Y100000D01*
D01*
X4000Y102000D01*
Y172000D01*
X9347D01*
X9538Y171538D01*
X8043Y170043D01*
X6831D01*
Y166000D01*
X10095D01*
Y165000D01*
X6831D01*
Y160957D01*
X8000D01*
Y111000D01*
X8531D01*
Y110378D01*
X14469D01*
Y111000D01*
X32032D01*
Y108878D01*
X37969D01*
Y111000D01*
X39531D01*
Y109878D01*
X45469D01*
Y111000D01*
X86032D01*
Y109201D01*
X89000D01*
X91969D01*
Y111000D01*
X94500D01*
Y100000D01*
X94441Y99941D01*
X76338D01*
Y100264D01*
X76200Y100961D01*
X75804Y101552D01*
X75213Y101947D01*
X74516Y102086D01*
X73818Y101947D01*
X73236Y101558D01*
X72654Y101947D01*
X71957Y102086D01*
X71259Y101947D01*
X70677Y101558D01*
X70095Y101947D01*
X69398Y102086D01*
X68700Y101947D01*
X68118Y101558D01*
X67536Y101947D01*
X66839Y102086D01*
X66141Y101947D01*
X65559Y101558D01*
X64977Y101947D01*
X64280Y102086D01*
X63582Y101947D01*
X63000Y101558D01*
X62418Y101947D01*
X61721Y102086D01*
X61023Y101947D01*
X60441Y101558D01*
X59859Y101947D01*
X59161Y102086D01*
X58464Y101947D01*
X57882Y101558D01*
X57300Y101947D01*
X56602Y102086D01*
X55905Y101947D01*
X55323Y101558D01*
X54741Y101947D01*
X54043Y102086D01*
X53346Y101947D01*
X52764Y101558D01*
X52182Y101947D01*
X51984Y101987D01*
Y96917D01*
X50984D01*
Y101987D01*
X50787Y101947D01*
X50196Y101552D01*
X49801Y100961D01*
X49662Y100264D01*
Y99941D01*
X29494D01*
Y102327D01*
X29492Y102337D01*
Y105370D01*
X29384Y105914D01*
X29076Y106375D01*
X28615Y106683D01*
X28071Y106791D01*
X27283D01*
X26740Y106683D01*
X26398Y106454D01*
X26056Y106683D01*
X25512Y106791D01*
X24724D01*
X24181Y106683D01*
X23839Y106454D01*
X23496Y106683D01*
X22953Y106791D01*
X22165D01*
X21622Y106683D01*
X21280Y106454D01*
X20937Y106683D01*
X20500Y106770D01*
Y102614D01*
Y98458D01*
X20937Y98545D01*
X21280Y98774D01*
X21622Y98545D01*
X22165Y98437D01*
X22953D01*
X23089Y98464D01*
X23589Y98054D01*
Y95882D01*
X23705Y95297D01*
X24037Y94800D01*
X34000Y84837D01*
Y21000D01*
X218500D01*
Y22083D01*
X221291D01*
Y29472D01*
X214386D01*
Y30472D01*
X221291D01*
Y37862D01*
X218500D01*
Y41768D01*
X221291D01*
Y57547D01*
X218500D01*
Y61453D01*
X221291D01*
Y68843D01*
X214386D01*
Y69842D01*
X221291D01*
Y77232D01*
X218500D01*
Y81138D01*
X221291D01*
Y96917D01*
X218500D01*
Y98000D01*
X206500Y110000D01*
X171000D01*
Y114532D01*
X173921D01*
Y117000D01*
X171150D01*
Y118000D01*
X173921D01*
Y120468D01*
X171000D01*
Y123500D01*
X175000Y127500D01*
Y197500D01*
Y198872D01*
X175500Y198972D01*
X175551Y198848D01*
X176090Y198145D01*
X176793Y197606D01*
X177611Y197268D01*
X177988Y197218D01*
Y201134D01*
X178488D01*
Y201634D01*
X181879D01*
Y201724D01*
X181764Y202602D01*
X181425Y203420D01*
X181324Y203552D01*
X181545Y204000D01*
X182500D01*
Y120500D01*
D02*
G37*
G36*
X13358Y160957D02*
X13471Y160503D01*
Y145000D01*
X13587Y144415D01*
X13919Y143919D01*
X21030Y136807D01*
Y120150D01*
X20500D01*
Y116000D01*
X20000D01*
Y115500D01*
X18213D01*
Y112020D01*
X14469D01*
Y112650D01*
X11500D01*
Y113150D01*
X11000D01*
Y115921D01*
X9020D01*
Y160957D01*
X13358D01*
D02*
G37*
G36*
X47600Y76737D02*
Y50828D01*
X46824Y50380D01*
X46124Y49680D01*
X45630Y48824D01*
X45512Y48383D01*
X45012Y48449D01*
Y51130D01*
X42785D01*
Y57579D01*
X44469D01*
Y63122D01*
X38532D01*
Y57579D01*
X39726D01*
Y51130D01*
X37500D01*
Y43618D01*
X40181D01*
X40247Y43118D01*
X39806Y43000D01*
X38950Y42505D01*
X38250Y41806D01*
X37756Y40950D01*
X37501Y40000D01*
X41256D01*
Y39500D01*
X41756D01*
Y35746D01*
X42706Y36000D01*
X43562Y36494D01*
X44261Y37194D01*
X44756Y38050D01*
X44934Y38715D01*
X45452D01*
X45630Y38050D01*
X46124Y37194D01*
X46824Y36494D01*
X47680Y36000D01*
X48630Y35746D01*
Y39500D01*
X49630D01*
Y35746D01*
X50580Y36000D01*
X51436Y36494D01*
X52135Y37194D01*
X52630Y38050D01*
X52808Y38715D01*
X53326D01*
X53504Y38050D01*
X53999Y37194D01*
X54698Y36494D01*
X55554Y36000D01*
X56504Y35746D01*
Y39500D01*
X57504D01*
Y35746D01*
X58454Y36000D01*
X59310Y36494D01*
X60009Y37194D01*
X60504Y38050D01*
X60682Y38715D01*
X61200D01*
X61378Y38050D01*
X61873Y37194D01*
X62572Y36494D01*
X63428Y36000D01*
X64378Y35746D01*
Y39500D01*
X65378D01*
Y35746D01*
X66328Y36000D01*
X67184Y36494D01*
X67883Y37194D01*
X68378Y38050D01*
X68556Y38715D01*
X69074D01*
X69252Y38050D01*
X69747Y37194D01*
X70446Y36494D01*
X71302Y36000D01*
X72252Y35746D01*
Y39500D01*
X73252D01*
Y35746D01*
X74202Y36000D01*
X75058Y36494D01*
X75757Y37194D01*
X76252Y38050D01*
X76430Y38715D01*
X76948D01*
X77126Y38050D01*
X77621Y37194D01*
X78320Y36494D01*
X79176Y36000D01*
X80126Y35746D01*
Y39500D01*
X81126D01*
Y35746D01*
X82076Y36000D01*
X82932Y36494D01*
X83631Y37194D01*
X84126Y38050D01*
X84304Y38715D01*
X84822D01*
X85000Y38050D01*
X85495Y37194D01*
X86194Y36494D01*
X87050Y36000D01*
X88000Y35746D01*
Y39500D01*
X89000D01*
Y35746D01*
X89950Y36000D01*
X90806Y36494D01*
X91505Y37194D01*
X92000Y38050D01*
X92178Y38715D01*
X92696D01*
X92874Y38050D01*
X93369Y37194D01*
X94068Y36494D01*
X94924Y36000D01*
X95874Y35746D01*
Y39500D01*
X96874D01*
Y35746D01*
X97824Y36000D01*
X98680Y36494D01*
X99379Y37194D01*
X99874Y38050D01*
X100052Y38715D01*
X100570D01*
X100748Y38050D01*
X101243Y37194D01*
X101942Y36494D01*
X102798Y36000D01*
X103748Y35746D01*
Y39500D01*
X104748D01*
Y35746D01*
X105698Y36000D01*
X106554Y36494D01*
X107254Y37194D01*
X107748Y38050D01*
X107926Y38715D01*
X108444D01*
X108622Y38050D01*
X109117Y37194D01*
X109816Y36494D01*
X110672Y36000D01*
X111622Y35746D01*
Y39500D01*
X112122D01*
Y40000D01*
X115876D01*
X115622Y40950D01*
X115128Y41806D01*
X114428Y42505D01*
X113572Y43000D01*
X112907Y43178D01*
Y43696D01*
X113572Y43874D01*
X114428Y44368D01*
X114971Y44911D01*
X115471Y44704D01*
Y44000D01*
X115587Y43415D01*
X115919Y42919D01*
X119919Y38919D01*
X120415Y38587D01*
X121000Y38471D01*
X154500D01*
X155085Y38587D01*
X155581Y38919D01*
X174953Y58291D01*
X175285Y58787D01*
X175401Y59372D01*
Y75762D01*
X186637Y86998D01*
X207480D01*
Y81138D01*
X217480D01*
Y77232D01*
X207480D01*
Y61453D01*
X217480D01*
Y57547D01*
X214886D01*
Y49657D01*
Y41768D01*
X217480D01*
Y37862D01*
X207480D01*
Y22083D01*
X207006Y22020D01*
X144994D01*
X144520Y22083D01*
X144520Y22520D01*
Y29472D01*
X130709D01*
Y22520D01*
X130709Y22083D01*
X130235Y22020D01*
X35020D01*
Y83164D01*
X35482Y83356D01*
X40471Y78367D01*
Y69421D01*
X38532D01*
Y63878D01*
X44469D01*
Y69421D01*
X43529D01*
Y79000D01*
X43413Y79585D01*
X43081Y80081D01*
X26647Y96515D01*
Y96983D01*
X27147Y97190D01*
X47600Y76737D01*
D02*
G37*
G36*
X64004Y81419D02*
X64500Y81087D01*
X65086Y80971D01*
X68866D01*
X79097Y70740D01*
Y50828D01*
X78320Y50380D01*
X77621Y49680D01*
X77126Y48824D01*
X76948Y48158D01*
X76430D01*
X76252Y48824D01*
X75757Y49680D01*
X75058Y50380D01*
X74281Y50828D01*
Y57429D01*
X75468D01*
Y62972D01*
X69532D01*
Y57429D01*
X71223D01*
Y50828D01*
X70446Y50380D01*
X69747Y49680D01*
X69252Y48824D01*
X69074Y48158D01*
X68556D01*
X68378Y48824D01*
X67883Y49680D01*
X67184Y50380D01*
X66407Y50828D01*
Y70122D01*
X66291Y70707D01*
X65959Y71204D01*
X60691Y76472D01*
Y77993D01*
X61153Y78184D01*
X61919Y77419D01*
X62415Y77087D01*
X63000Y76971D01*
X65367D01*
X70971Y71367D01*
Y69272D01*
X69532D01*
Y63728D01*
X75468D01*
Y69272D01*
X74029D01*
Y72000D01*
X73913Y72585D01*
X73581Y73081D01*
X67081Y79581D01*
X66585Y79913D01*
X66000Y80029D01*
X63634D01*
X63250Y80413D01*
Y81520D01*
X63712Y81711D01*
X64004Y81419D01*
D02*
G37*
G36*
X49662Y93571D02*
X49801Y92874D01*
X50196Y92282D01*
X50787Y91887D01*
X51484Y91748D01*
X52182Y91887D01*
X52764Y92276D01*
X53346Y91887D01*
X53543Y91848D01*
Y96917D01*
X54543D01*
Y91848D01*
X54573Y91854D01*
X55073Y91554D01*
Y69421D01*
X54031D01*
Y63878D01*
X59969D01*
Y69421D01*
X58132D01*
Y74052D01*
X58594Y74243D01*
X63349Y69489D01*
Y50828D01*
X62572Y50380D01*
X61873Y49680D01*
X61378Y48824D01*
X61200Y48158D01*
X60682D01*
X60504Y48824D01*
X60009Y49680D01*
X59310Y50380D01*
X58533Y50828D01*
Y57579D01*
X59969D01*
Y63122D01*
X54031D01*
Y57579D01*
X55475D01*
Y50828D01*
X54698Y50380D01*
X53999Y49680D01*
X53504Y48824D01*
X53326Y48158D01*
X52808D01*
X52630Y48824D01*
X52135Y49680D01*
X51436Y50380D01*
X50659Y50828D01*
Y77370D01*
X50543Y77955D01*
X50211Y78452D01*
X30204Y98459D01*
X30395Y98921D01*
X49662D01*
Y93571D01*
D02*
G37*
G36*
X101644Y70693D02*
X101532Y70421D01*
X101532D01*
Y64878D01*
X107468D01*
Y67726D01*
X107930Y67918D01*
X110593Y65255D01*
Y50828D01*
X109816Y50380D01*
X109117Y49680D01*
X108622Y48824D01*
X108444Y48158D01*
X107926D01*
X107748Y48824D01*
X107254Y49680D01*
X106554Y50380D01*
X105777Y50828D01*
Y58579D01*
X107468D01*
Y64122D01*
X101532D01*
Y58579D01*
X102719D01*
Y50828D01*
X101942Y50380D01*
X101243Y49680D01*
X100748Y48824D01*
X100570Y48158D01*
X100052D01*
X99874Y48824D01*
X99379Y49680D01*
X98680Y50380D01*
X97903Y50828D01*
Y66126D01*
X97787Y66711D01*
X97456Y67207D01*
X77154Y87509D01*
X77346Y87971D01*
X84367D01*
X101644Y70693D01*
D02*
G37*
G36*
X86066Y70772D02*
X85858Y70272D01*
X85532D01*
Y64728D01*
X91469D01*
Y68215D01*
X91930Y68407D01*
X94845Y65492D01*
Y50828D01*
X94068Y50380D01*
X93369Y49680D01*
X92874Y48824D01*
X92696Y48158D01*
X92178D01*
X92000Y48824D01*
X91505Y49680D01*
X90806Y50380D01*
X90029Y50828D01*
Y58429D01*
X91469D01*
Y63972D01*
X85532D01*
Y58429D01*
X86971D01*
Y50828D01*
X86194Y50380D01*
X85495Y49680D01*
X85000Y48824D01*
X84822Y48158D01*
X84304D01*
X84126Y48824D01*
X83631Y49680D01*
X82932Y50380D01*
X82155Y50828D01*
Y71374D01*
X82039Y71959D01*
X81707Y72456D01*
X70692Y83471D01*
X70829Y83908D01*
X70877Y83971D01*
X72866D01*
X86066Y70772D01*
D02*
G37*
G36*
X173858Y198687D02*
X173980Y198624D01*
Y197500D01*
Y127922D01*
X170279Y124221D01*
X170058Y123890D01*
X169980Y123500D01*
Y120468D01*
X168378D01*
Y114532D01*
X169980D01*
Y110000D01*
X170058Y109610D01*
X170279Y109279D01*
X170610Y109058D01*
X171000Y108980D01*
X206078D01*
X217480Y97578D01*
Y96917D01*
X207480D01*
Y90057D01*
X186004D01*
X185419Y89941D01*
X184923Y89609D01*
X172791Y77477D01*
X172459Y76981D01*
X172343Y76396D01*
Y60005D01*
X153867Y41529D01*
X144921D01*
X144520Y41768D01*
X144520Y42029D01*
Y47628D01*
X151699D01*
X152285Y47745D01*
X152781Y48076D01*
X153367Y48662D01*
X153698Y49158D01*
X153815Y49743D01*
Y78646D01*
X153698Y79232D01*
X153367Y79728D01*
X152781Y80314D01*
X152285Y80645D01*
X151699Y80762D01*
X144819D01*
X144520Y81138D01*
X144520Y81262D01*
Y96917D01*
X138529D01*
Y132867D01*
X171696Y166033D01*
X172027Y166529D01*
X172144Y167114D01*
Y197538D01*
X172310Y197606D01*
X173012Y198145D01*
X173480Y198756D01*
X173858Y198687D01*
D02*
G37*
%LPC*%
G36*
X102000Y234539D02*
X101500D01*
Y229500D01*
X104039D01*
Y232500D01*
X103884Y233280D01*
X103442Y233942D01*
X102780Y234384D01*
X102000Y234539D01*
D02*
G37*
G36*
X82000D02*
X81500D01*
Y229500D01*
X84039D01*
Y232500D01*
X83884Y233280D01*
X83442Y233942D01*
X82780Y234384D01*
X82000Y234539D01*
D02*
G37*
G36*
X62000D02*
X61500D01*
Y229500D01*
X64039D01*
Y232500D01*
X63884Y233280D01*
X63442Y233942D01*
X62780Y234384D01*
X62000Y234539D01*
D02*
G37*
G36*
X42000D02*
X41500D01*
Y229500D01*
X44039D01*
Y232500D01*
X43884Y233280D01*
X43442Y233942D01*
X42780Y234384D01*
X42000Y234539D01*
D02*
G37*
G36*
X100500D02*
X100000D01*
X99220Y234384D01*
X98558Y233942D01*
X98116Y233280D01*
X97961Y232500D01*
Y229500D01*
X100500D01*
Y234539D01*
D02*
G37*
G36*
X80500D02*
X80000D01*
X79220Y234384D01*
X78558Y233942D01*
X78116Y233280D01*
X77961Y232500D01*
Y229500D01*
X80500D01*
Y234539D01*
D02*
G37*
G36*
X60500D02*
X60000D01*
X59220Y234384D01*
X58558Y233942D01*
X58116Y233280D01*
X57961Y232500D01*
Y229500D01*
X60500D01*
Y234539D01*
D02*
G37*
G36*
X40500D02*
X40000D01*
X39220Y234384D01*
X38558Y233942D01*
X38116Y233280D01*
X37961Y232500D01*
Y229500D01*
X40500D01*
Y234539D01*
D02*
G37*
G36*
X104039Y228500D02*
X101500D01*
Y223461D01*
X102000D01*
X102780Y223616D01*
X103442Y224058D01*
X103884Y224720D01*
X104039Y225500D01*
Y228500D01*
D02*
G37*
G36*
X100500D02*
X97961D01*
Y225500D01*
X98116Y224720D01*
X98558Y224058D01*
X99220Y223616D01*
X100000Y223461D01*
X100500D01*
Y228500D01*
D02*
G37*
G36*
X84039D02*
X81500D01*
Y223461D01*
X82000D01*
X82780Y223616D01*
X83442Y224058D01*
X83884Y224720D01*
X84039Y225500D01*
Y228500D01*
D02*
G37*
G36*
X80500D02*
X77961D01*
Y225500D01*
X78116Y224720D01*
X78558Y224058D01*
X79220Y223616D01*
X80000Y223461D01*
X80500D01*
Y228500D01*
D02*
G37*
G36*
X64039D02*
X61500D01*
Y223461D01*
X62000D01*
X62780Y223616D01*
X63442Y224058D01*
X63884Y224720D01*
X64039Y225500D01*
Y228500D01*
D02*
G37*
G36*
X60500D02*
X57961D01*
Y225500D01*
X58116Y224720D01*
X58558Y224058D01*
X59220Y223616D01*
X60000Y223461D01*
X60500D01*
Y228500D01*
D02*
G37*
G36*
X44039D02*
X41500D01*
Y223461D01*
X42000D01*
X42780Y223616D01*
X43442Y224058D01*
X43884Y224720D01*
X44039Y225500D01*
Y228500D01*
D02*
G37*
G36*
X40500D02*
X37961D01*
Y225500D01*
X38116Y224720D01*
X38558Y224058D01*
X39220Y223616D01*
X40000Y223461D01*
X40500D01*
Y228500D01*
D02*
G37*
G36*
X131744Y212924D02*
Y209508D01*
X134635D01*
Y209598D01*
X134520Y210476D01*
X134181Y211294D01*
X133642Y211996D01*
X132940Y212535D01*
X132122Y212874D01*
X131744Y212924D01*
D02*
G37*
G36*
X171114Y212924D02*
Y209508D01*
X174005D01*
Y209598D01*
X173890Y210476D01*
X173551Y211294D01*
X173012Y211996D01*
X172310Y212535D01*
X171492Y212874D01*
X171114Y212924D01*
D02*
G37*
G36*
X170114Y212924D02*
X169737Y212874D01*
X168919Y212535D01*
X168216Y211996D01*
X167677Y211294D01*
X167339Y210476D01*
X167223Y209598D01*
Y209508D01*
X170114D01*
Y212924D01*
D02*
G37*
G36*
X130744D02*
X130366Y212874D01*
X129549Y212535D01*
X128846Y211996D01*
X128307Y211294D01*
X127968Y210476D01*
X127853Y209598D01*
Y209508D01*
X130744D01*
Y212924D01*
D02*
G37*
G36*
X163240Y212924D02*
Y209508D01*
X166131D01*
Y209598D01*
X166016Y210476D01*
X165677Y211294D01*
X165138Y211996D01*
X164436Y212535D01*
X163618Y212874D01*
X163240Y212924D01*
D02*
G37*
G36*
X155366D02*
Y209508D01*
X158257D01*
Y209598D01*
X158142Y210476D01*
X157803Y211294D01*
X157264Y211996D01*
X156562Y212535D01*
X155744Y212874D01*
X155366Y212924D01*
D02*
G37*
G36*
X147492D02*
Y209508D01*
X150383D01*
Y209598D01*
X150268Y210476D01*
X149929Y211294D01*
X149390Y211996D01*
X148688Y212535D01*
X147870Y212874D01*
X147492Y212924D01*
D02*
G37*
G36*
X162240Y212924D02*
X161862Y212874D01*
X161045Y212535D01*
X160342Y211996D01*
X159803Y211294D01*
X159465Y210476D01*
X159349Y209598D01*
Y209508D01*
X162240D01*
Y212924D01*
D02*
G37*
G36*
X154366D02*
X153988Y212874D01*
X153171Y212535D01*
X152468Y211996D01*
X151929Y211294D01*
X151591Y210476D01*
X151475Y209598D01*
Y209508D01*
X154366D01*
Y212924D01*
D02*
G37*
G36*
X146492D02*
X146114Y212874D01*
X145297Y212535D01*
X144594Y211996D01*
X144055Y211294D01*
X143717Y210476D01*
X143601Y209598D01*
Y209508D01*
X146492D01*
Y212924D01*
D02*
G37*
G36*
X139618Y212924D02*
Y209508D01*
X142509D01*
Y209598D01*
X142394Y210476D01*
X142055Y211294D01*
X141516Y211996D01*
X140814Y212535D01*
X139996Y212874D01*
X139618Y212924D01*
D02*
G37*
G36*
X179669Y213003D02*
X178988D01*
Y209508D01*
X181893D01*
Y210780D01*
X181724Y211631D01*
X181242Y212352D01*
X180520Y212834D01*
X179669Y213003D01*
D02*
G37*
G36*
X138618Y212924D02*
X138240Y212874D01*
X137423Y212535D01*
X136720Y211996D01*
X136181Y211294D01*
X135843Y210476D01*
X135727Y209598D01*
Y209508D01*
X138618D01*
Y212924D01*
D02*
G37*
G36*
X177988Y213003D02*
X177307D01*
X176456Y212834D01*
X175735Y212352D01*
X175252Y211631D01*
X175083Y210780D01*
Y209508D01*
X177988D01*
Y213003D01*
D02*
G37*
G36*
X106461Y214000D02*
X105539D01*
X104649Y213761D01*
X103851Y213301D01*
X103199Y212649D01*
X102738Y211851D01*
X102500Y210961D01*
Y210039D01*
X102738Y209149D01*
X103199Y208351D01*
X103851Y207699D01*
X104649Y207239D01*
X105539Y207000D01*
X106461D01*
X107351Y207239D01*
X108149Y207699D01*
X108801Y208351D01*
X109262Y209149D01*
X109500Y210039D01*
Y210961D01*
X109262Y211851D01*
X108801Y212649D01*
X108149Y213301D01*
X107351Y213761D01*
X106461Y214000D01*
D02*
G37*
G36*
X142509Y208508D02*
X139118D01*
X135727D01*
Y208417D01*
X135843Y207540D01*
X136181Y206722D01*
X136720Y206019D01*
X137423Y205481D01*
X137758Y205342D01*
X137758Y204800D01*
X137423Y204661D01*
X136720Y204122D01*
X136181Y203420D01*
X135843Y202602D01*
X135727Y201724D01*
Y200543D01*
X135843Y199666D01*
X136181Y198848D01*
X136720Y198145D01*
X137423Y197606D01*
X138240Y197268D01*
X139118Y197152D01*
X139996Y197268D01*
X140814Y197606D01*
X141516Y198145D01*
X142055Y198848D01*
X142394Y199666D01*
X142509Y200543D01*
Y201724D01*
X142394Y202602D01*
X142055Y203420D01*
X141516Y204122D01*
X140814Y204661D01*
X140478Y204800D01*
X140478Y205342D01*
X140814Y205481D01*
X141516Y206019D01*
X142055Y206722D01*
X142394Y207540D01*
X142509Y208417D01*
Y208508D01*
D02*
G37*
G36*
X134635Y208508D02*
X131244D01*
X127853D01*
Y208417D01*
X127968Y207540D01*
X128307Y206722D01*
X128846Y206019D01*
X129549Y205481D01*
X129884Y205342D01*
Y204800D01*
X129549Y204661D01*
X128846Y204122D01*
X128307Y203420D01*
X127968Y202602D01*
X127853Y201724D01*
Y200543D01*
X127968Y199666D01*
X128307Y198848D01*
X128846Y198145D01*
X129549Y197606D01*
X130366Y197268D01*
X131244Y197152D01*
X132122Y197268D01*
X132940Y197606D01*
X133642Y198145D01*
X134181Y198848D01*
X134520Y199666D01*
X134635Y200543D01*
Y201724D01*
X134520Y202602D01*
X134181Y203420D01*
X133642Y204122D01*
X132940Y204661D01*
X132604Y204800D01*
Y205342D01*
X132940Y205481D01*
X133642Y206019D01*
X134181Y206722D01*
X134520Y207540D01*
X134635Y208417D01*
Y208508D01*
D02*
G37*
G36*
X102000Y197539D02*
X101500D01*
Y192500D01*
X104039D01*
Y195500D01*
X103884Y196280D01*
X103442Y196942D01*
X102780Y197384D01*
X102000Y197539D01*
D02*
G37*
G36*
X82000D02*
X81500D01*
Y192500D01*
X84039D01*
Y195500D01*
X83884Y196280D01*
X83442Y196942D01*
X82780Y197384D01*
X82000Y197539D01*
D02*
G37*
G36*
X42000D02*
X41500D01*
Y192500D01*
X44039D01*
Y195500D01*
X43884Y196280D01*
X43442Y196942D01*
X42780Y197384D01*
X42000Y197539D01*
D02*
G37*
G36*
X100500D02*
X100000D01*
X99220Y197384D01*
X98558Y196942D01*
X98116Y196280D01*
X97961Y195500D01*
Y192500D01*
X100500D01*
Y197539D01*
D02*
G37*
G36*
X80500D02*
X80000D01*
X79220Y197384D01*
X78558Y196942D01*
X78116Y196280D01*
X77961Y195500D01*
Y192500D01*
X80500D01*
Y197539D01*
D02*
G37*
G36*
X60500D02*
X60000D01*
X59220Y197384D01*
X58558Y196942D01*
X58116Y196280D01*
X57961Y195500D01*
Y192500D01*
X60500D01*
Y197539D01*
D02*
G37*
G36*
X40500D02*
X40000D01*
X39220Y197384D01*
X38558Y196942D01*
X38116Y196280D01*
X37961Y195500D01*
Y192500D01*
X40500D01*
Y197539D01*
D02*
G37*
G36*
X104039Y191500D02*
X101500D01*
Y186461D01*
X102000D01*
X102780Y186616D01*
X103442Y187058D01*
X103884Y187720D01*
X104039Y188500D01*
Y191500D01*
D02*
G37*
G36*
X100500D02*
X97961D01*
Y188500D01*
X98116Y187720D01*
X98558Y187058D01*
X99220Y186616D01*
X100000Y186461D01*
X100500D01*
Y191500D01*
D02*
G37*
G36*
X84039D02*
X81500D01*
Y186461D01*
X82000D01*
X82780Y186616D01*
X83442Y187058D01*
X83884Y187720D01*
X84039Y188500D01*
Y191500D01*
D02*
G37*
G36*
X80500D02*
X77961D01*
Y188500D01*
X78116Y187720D01*
X78558Y187058D01*
X79220Y186616D01*
X80000Y186461D01*
X80500D01*
Y191500D01*
D02*
G37*
G36*
X60500D02*
X57961D01*
Y188500D01*
X58116Y187720D01*
X58558Y187058D01*
X59220Y186616D01*
X60000Y186461D01*
X60500D01*
Y191500D01*
D02*
G37*
G36*
X44039D02*
X41500D01*
Y186461D01*
X42000D01*
X42780Y186616D01*
X43442Y187058D01*
X43884Y187720D01*
X44039Y188500D01*
Y191500D01*
D02*
G37*
G36*
X40500D02*
X37961D01*
Y188500D01*
X38116Y187720D01*
X38558Y187058D01*
X39220Y186616D01*
X40000Y186461D01*
X40500D01*
Y191500D01*
D02*
G37*
G36*
X32000Y197539D02*
X30000D01*
X29220Y197384D01*
X28558Y196942D01*
X28116Y196280D01*
X27961Y195500D01*
Y188500D01*
X28116Y187720D01*
X28558Y187058D01*
X29220Y186616D01*
X30000Y186461D01*
X32000D01*
X32780Y186616D01*
X33442Y187058D01*
X33884Y187720D01*
X34039Y188500D01*
Y195500D01*
X33884Y196280D01*
X33442Y196942D01*
X32780Y197384D01*
X32000Y197539D01*
D02*
G37*
G36*
X22406Y170043D02*
Y166000D01*
X25169D01*
Y170043D01*
X22406D01*
D02*
G37*
G36*
X25169Y165000D02*
X22406D01*
Y160957D01*
X25169D01*
Y165000D01*
D02*
G37*
G36*
X92000Y234539D02*
X90000D01*
X89220Y234384D01*
X88558Y233942D01*
X88116Y233280D01*
X87961Y232500D01*
Y225500D01*
X88116Y224720D01*
X88558Y224058D01*
X89220Y223616D01*
X89471Y223566D01*
Y221634D01*
X86419Y218581D01*
X86087Y218085D01*
X85971Y217500D01*
Y185634D01*
X68950Y168613D01*
X68619Y168117D01*
X68502Y167532D01*
Y144444D01*
X68468Y144422D01*
X67968Y144689D01*
Y146972D01*
X63061D01*
Y147728D01*
X67968D01*
Y153272D01*
X66529D01*
Y157983D01*
X66615Y158414D01*
X66529Y158845D01*
Y167136D01*
X72081Y172688D01*
X72413Y173184D01*
X72529Y173769D01*
Y186566D01*
X72780Y186616D01*
X73442Y187058D01*
X73884Y187720D01*
X74039Y188500D01*
Y195500D01*
X73884Y196280D01*
X73442Y196942D01*
X72780Y197384D01*
X72000Y197539D01*
X70000D01*
X69220Y197384D01*
X68558Y196942D01*
X68116Y196280D01*
X67961Y195500D01*
Y188500D01*
X68116Y187720D01*
X68558Y187058D01*
X69220Y186616D01*
X69471Y186566D01*
Y174402D01*
X63919Y168851D01*
X63587Y168354D01*
X63561Y168223D01*
X63061Y168272D01*
Y174898D01*
X66081Y177919D01*
X66413Y178415D01*
X66529Y179000D01*
Y207867D01*
X72081Y213419D01*
X72413Y213915D01*
X72529Y214500D01*
Y223566D01*
X72780Y223616D01*
X73442Y224058D01*
X73884Y224720D01*
X74039Y225500D01*
Y232500D01*
X73884Y233280D01*
X73442Y233942D01*
X72780Y234384D01*
X72000Y234539D01*
X70000D01*
X69220Y234384D01*
X68558Y233942D01*
X68116Y233280D01*
X67961Y232500D01*
Y225500D01*
X68116Y224720D01*
X68558Y224058D01*
X69220Y223616D01*
X69471Y223566D01*
Y215134D01*
X63919Y209581D01*
X63587Y209085D01*
X63471Y208500D01*
Y197524D01*
X62971Y197257D01*
X62780Y197384D01*
X62000Y197539D01*
X61500D01*
Y192000D01*
Y186461D01*
X62000D01*
X62780Y186616D01*
X62971Y186743D01*
X63471Y186476D01*
Y179633D01*
X60450Y176613D01*
X60119Y176117D01*
X60002Y175531D01*
Y144743D01*
X59969Y144721D01*
X59469Y144988D01*
Y147272D01*
X53531D01*
Y142218D01*
X53531Y142038D01*
X53101Y141660D01*
X52987Y141665D01*
X48029Y146622D01*
Y186949D01*
X48529Y187101D01*
X48558Y187058D01*
X49220Y186616D01*
X49471Y186566D01*
Y169500D01*
X49587Y168915D01*
X49919Y168419D01*
X54471Y163866D01*
Y153571D01*
X53531D01*
Y148028D01*
X59469D01*
Y153571D01*
X57529D01*
Y164500D01*
X57413Y165085D01*
X57081Y165581D01*
X52529Y170133D01*
Y186566D01*
X52780Y186616D01*
X53442Y187058D01*
X53884Y187720D01*
X54039Y188500D01*
Y195500D01*
X53884Y196280D01*
X53442Y196942D01*
X52780Y197384D01*
X52000Y197539D01*
X50000D01*
X49220Y197384D01*
X48558Y196942D01*
X48529Y196899D01*
X48029Y197051D01*
Y223683D01*
X48445Y224069D01*
X48558Y224058D01*
X49220Y223616D01*
X50000Y223461D01*
X52000D01*
X52780Y223616D01*
X53442Y224058D01*
X53884Y224720D01*
X54039Y225500D01*
Y232500D01*
X53884Y233280D01*
X53442Y233942D01*
X52780Y234384D01*
X52000Y234539D01*
X50000D01*
X49220Y234384D01*
X48558Y233942D01*
X48116Y233280D01*
X47961Y232500D01*
Y228124D01*
X45419Y225581D01*
X45087Y225085D01*
X44971Y224500D01*
Y145989D01*
X45087Y145404D01*
X45419Y144907D01*
X52514Y137812D01*
Y129446D01*
X52014Y129146D01*
X51984Y129152D01*
Y124083D01*
Y119013D01*
X52182Y119053D01*
X52764Y119441D01*
X53346Y119053D01*
X54043Y118914D01*
X54741Y119053D01*
X55323Y119441D01*
X55905Y119053D01*
X56602Y118914D01*
X57300Y119053D01*
X57882Y119441D01*
X58464Y119053D01*
X59161Y118914D01*
X59859Y119053D01*
X60441Y119441D01*
X61023Y119053D01*
X61721Y118914D01*
X62418Y119053D01*
X63000Y119441D01*
X63582Y119053D01*
X64280Y118914D01*
X64977Y119053D01*
X65559Y119441D01*
X66141Y119053D01*
X66839Y118914D01*
X67536Y119053D01*
X68118Y119441D01*
X68700Y119053D01*
X69398Y118914D01*
X70095Y119053D01*
X70677Y119441D01*
X71259Y119053D01*
X71957Y118914D01*
X72654Y119053D01*
X73236Y119441D01*
X73818Y119053D01*
X74016Y119013D01*
Y124083D01*
Y129158D01*
X73602Y129445D01*
X73565Y129902D01*
X83081Y139419D01*
X83413Y139915D01*
X83529Y140500D01*
Y141728D01*
X84969D01*
Y147272D01*
X79529D01*
Y148028D01*
X84969D01*
Y153571D01*
X83529D01*
Y154867D01*
X112081Y183419D01*
X112413Y183915D01*
X112529Y184500D01*
Y186566D01*
X112780Y186616D01*
X113442Y187058D01*
X113884Y187720D01*
X114039Y188500D01*
Y195500D01*
X113884Y196280D01*
X113442Y196942D01*
X112780Y197384D01*
X112000Y197539D01*
X110000D01*
X109220Y197384D01*
X108558Y196942D01*
X108116Y196280D01*
X107961Y195500D01*
Y188500D01*
X108116Y187720D01*
X108558Y187058D01*
X109220Y186616D01*
X109471Y186566D01*
Y185134D01*
X80919Y156581D01*
X80587Y156085D01*
X80471Y155500D01*
Y153571D01*
X79529D01*
Y158867D01*
X96081Y175419D01*
X96413Y175915D01*
X96529Y176500D01*
Y209866D01*
X103633Y216971D01*
X109500D01*
X110085Y217087D01*
X110581Y217419D01*
X112081Y218919D01*
X112413Y219415D01*
X112529Y220000D01*
Y223500D01*
X114000D01*
Y234500D01*
X108000D01*
Y223500D01*
X109471D01*
Y220634D01*
X108867Y220029D01*
X103000D01*
X102415Y219913D01*
X101919Y219581D01*
X93919Y211581D01*
X93587Y211085D01*
X93471Y210500D01*
Y197524D01*
X92971Y197257D01*
X92780Y197384D01*
X92000Y197539D01*
X90000D01*
X89529Y197446D01*
X89029Y197812D01*
Y216866D01*
X92081Y219919D01*
X92413Y220415D01*
X92529Y221000D01*
Y223566D01*
X92780Y223616D01*
X93442Y224058D01*
X93884Y224720D01*
X94039Y225500D01*
Y232500D01*
X93884Y233280D01*
X93442Y233942D01*
X92780Y234384D01*
X92000Y234539D01*
D02*
G37*
G36*
X75016Y129152D02*
Y124583D01*
X76338D01*
Y127429D01*
X76200Y128127D01*
X75804Y128718D01*
X75213Y129113D01*
X75016Y129152D01*
D02*
G37*
G36*
X50984Y129152D02*
X50787Y129113D01*
X50196Y128718D01*
X49801Y128127D01*
X49662Y127429D01*
Y124583D01*
X50984D01*
Y129152D01*
D02*
G37*
G36*
X89500Y124489D02*
Y121500D01*
X92489D01*
X92261Y122351D01*
X91801Y123149D01*
X91149Y123801D01*
X90351Y124261D01*
X89500Y124489D01*
D02*
G37*
G36*
X88500D02*
X87649Y124261D01*
X86851Y123801D01*
X86199Y123149D01*
X85738Y122351D01*
X85510Y121500D01*
X88500D01*
Y124489D01*
D02*
G37*
G36*
X76338Y123583D02*
X75016D01*
Y119013D01*
X75213Y119053D01*
X75804Y119448D01*
X76200Y120039D01*
X76338Y120736D01*
Y123583D01*
D02*
G37*
G36*
X50984D02*
X49662D01*
Y120736D01*
X49801Y120039D01*
X50196Y119448D01*
X50787Y119053D01*
X50984Y119013D01*
Y123583D01*
D02*
G37*
G36*
X28177Y120156D02*
Y116500D01*
X29492D01*
Y118756D01*
X29384Y119300D01*
X29076Y119761D01*
X28615Y120069D01*
X28177Y120156D01*
D02*
G37*
G36*
X92489Y120500D02*
X85510D01*
X85738Y119649D01*
X86199Y118851D01*
X86779Y118272D01*
X86676Y117772D01*
X86032D01*
Y115500D01*
X89000D01*
X91969D01*
Y115682D01*
X92355Y115999D01*
X92500Y115971D01*
X93085Y116087D01*
X93581Y116419D01*
X93913Y116915D01*
X94029Y117500D01*
X93913Y118085D01*
X93581Y118581D01*
X93081Y119081D01*
X92585Y119413D01*
X92348Y119970D01*
X92489Y120500D01*
D02*
G37*
G36*
X45469Y115421D02*
X43000D01*
Y113150D01*
X45469D01*
Y115421D01*
D02*
G37*
G36*
X42000D02*
X39531D01*
Y113150D01*
X42000D01*
Y115421D01*
D02*
G37*
%LPD*%
G36*
X89471Y184655D02*
Y179133D01*
X72419Y162081D01*
X72087Y161585D01*
X72061Y161454D01*
X71561Y161503D01*
Y166898D01*
X88581Y183919D01*
X88913Y184415D01*
X88971Y184704D01*
X89471Y184655D01*
D02*
G37*
G36*
X93471Y186476D02*
Y177134D01*
X76919Y160581D01*
X76587Y160085D01*
X76471Y159500D01*
Y153771D01*
X76468Y153272D01*
X75029D01*
Y160366D01*
X92081Y177419D01*
X92413Y177915D01*
X92529Y178500D01*
Y186566D01*
X92780Y186616D01*
X92971Y186743D01*
X93471Y186476D01*
D02*
G37*
%LPC*%
G36*
X181879Y200634D02*
X178988D01*
Y197218D01*
X179366Y197268D01*
X180184Y197606D01*
X180886Y198145D01*
X181425Y198848D01*
X181764Y199666D01*
X181879Y200543D01*
Y200634D01*
D02*
G37*
G36*
X14469Y109622D02*
X12000D01*
Y107350D01*
X14469D01*
Y109622D01*
D02*
G37*
G36*
X11000D02*
X8531D01*
Y107350D01*
X11000D01*
Y109622D01*
D02*
G37*
G36*
X45469Y109122D02*
X43000D01*
Y106850D01*
X45469D01*
Y109122D01*
D02*
G37*
G36*
X42000D02*
X39531D01*
Y106850D01*
X42000D01*
Y109122D01*
D02*
G37*
G36*
X91969Y108201D02*
X89500D01*
Y105929D01*
X91969D01*
Y108201D01*
D02*
G37*
G36*
X88500D02*
X86032D01*
Y105929D01*
X88500D01*
Y108201D01*
D02*
G37*
G36*
X37969Y108122D02*
X35500D01*
Y105850D01*
X37969D01*
Y108122D01*
D02*
G37*
G36*
X34500D02*
X32032D01*
Y105850D01*
X34500D01*
Y108122D01*
D02*
G37*
G36*
X14469Y106350D02*
X12000D01*
Y104079D01*
X14469D01*
Y106350D01*
D02*
G37*
G36*
X11000D02*
X8531D01*
Y104079D01*
X11000D01*
Y106350D01*
D02*
G37*
G36*
X45469Y105850D02*
X43000D01*
Y103579D01*
X45469D01*
Y105850D01*
D02*
G37*
G36*
X42000D02*
X39531D01*
Y103579D01*
X42000D01*
Y105850D01*
D02*
G37*
G36*
X19500Y106770D02*
X19062Y106683D01*
X18601Y106375D01*
X18293Y105914D01*
X18185Y105370D01*
Y103114D01*
X19500D01*
Y106770D01*
D02*
G37*
G36*
X37969Y104850D02*
X35500D01*
Y102579D01*
X37969D01*
Y104850D01*
D02*
G37*
G36*
X34500D02*
X32032D01*
Y102579D01*
X34500D01*
Y104850D01*
D02*
G37*
G36*
X19500Y102114D02*
X18185D01*
Y99858D01*
X18293Y99314D01*
X18601Y98853D01*
X19062Y98545D01*
X19500Y98458D01*
Y102114D01*
D02*
G37*
G36*
X19500Y120150D02*
X18213D01*
Y116500D01*
X19500D01*
Y120150D01*
D02*
G37*
G36*
X14469Y115921D02*
X12000D01*
Y113650D01*
X14469D01*
Y115921D01*
D02*
G37*
G36*
X213886Y57547D02*
X207480D01*
Y50157D01*
X213886D01*
Y57547D01*
D02*
G37*
G36*
Y49158D02*
X207480D01*
Y41768D01*
X213886D01*
Y49158D01*
D02*
G37*
G36*
X115876Y39000D02*
X112622D01*
Y35746D01*
X113572Y36000D01*
X114428Y36494D01*
X115128Y37194D01*
X115622Y38050D01*
X115876Y39000D01*
D02*
G37*
G36*
X40756D02*
X37501D01*
X37756Y38050D01*
X38250Y37194D01*
X38950Y36494D01*
X39806Y36000D01*
X40756Y35746D01*
Y39000D01*
D02*
G37*
G36*
X144520Y37862D02*
X138114D01*
Y30472D01*
X144520D01*
Y37862D01*
D02*
G37*
G36*
X137114D02*
X130709D01*
Y30472D01*
X137114D01*
Y37862D01*
D02*
G37*
G36*
X167622Y120468D02*
X165350D01*
Y118000D01*
X167622D01*
Y120468D01*
D02*
G37*
G36*
X157000Y120990D02*
X156149Y120762D01*
X155351Y120301D01*
X154699Y119649D01*
X154238Y118851D01*
X154010Y118000D01*
X157000D01*
Y120990D01*
D02*
G37*
G36*
X167622Y117000D02*
X165350D01*
Y114532D01*
X167622D01*
Y117000D01*
D02*
G37*
G36*
X158000Y120990D02*
Y117500D01*
Y114011D01*
X158851Y114239D01*
X159649Y114699D01*
X160301Y115351D01*
X160659Y115971D01*
X162079D01*
Y114532D01*
X164350D01*
Y117500D01*
Y120468D01*
X162079D01*
Y119029D01*
X160659D01*
X160301Y119649D01*
X159649Y120301D01*
X158851Y120762D01*
X158000Y120990D01*
D02*
G37*
G36*
X157000Y117000D02*
X154010D01*
X154238Y116149D01*
X154699Y115351D01*
X155351Y114699D01*
X156149Y114239D01*
X157000Y114011D01*
Y117000D01*
D02*
G37*
G36*
X203575Y106760D02*
X187795D01*
Y92949D01*
X203575D01*
Y106760D01*
D02*
G37*
G36*
X183890D02*
X168110D01*
Y92949D01*
X183890D01*
Y106760D01*
D02*
G37*
G36*
X164205D02*
X148425D01*
Y92949D01*
X164205D01*
Y106760D01*
D02*
G37*
%LPD*%
D10*
X92000Y118000D02*
X92500Y117500D01*
X157500D02*
X164850D01*
X152285Y49743D02*
Y78646D01*
X137452Y49598D02*
X137614Y49158D01*
X121000Y69586D02*
X121586Y69000D01*
X117000Y44000D02*
Y156000D01*
X125493Y79818D02*
X126079Y79232D01*
X151699D01*
X125493Y135993D02*
X162740Y173240D01*
X121000Y69586D02*
Y145467D01*
X125493Y79818D02*
Y135993D01*
X151699Y79232D02*
X152285Y78646D01*
X121000Y145467D02*
X154866Y179334D01*
X117000Y156000D02*
X147500Y186500D01*
X117000Y44000D02*
X121000Y40000D01*
X154500D01*
X173872Y59372D01*
X186004Y88528D02*
X207886D01*
X132858Y94142D02*
X137000Y90000D01*
Y133500D02*
X170614Y167114D01*
X132500Y90000D02*
Y94142D01*
X132858D01*
X137000Y90000D02*
Y133500D01*
X170614Y167114D02*
Y201134D01*
X15000Y145000D02*
Y209500D01*
X21000Y215500D01*
X15000Y145000D02*
X22559Y137441D01*
X17000Y157000D02*
X22000Y152000D01*
X17000Y157000D02*
Y207157D01*
X31000Y221157D01*
X25000Y128500D02*
X26500Y130000D01*
Y140500D01*
X22559Y116000D02*
Y137441D01*
X82000Y140500D02*
Y144500D01*
X71957Y130457D02*
X82000Y140500D01*
X78000Y140000D02*
Y159500D01*
X69398Y131398D02*
X78000Y140000D01*
X137272Y69000D02*
X137614Y69342D01*
X121586Y69000D02*
X137272D01*
X137000Y89642D02*
X137614Y89028D01*
Y49158D02*
X151699D01*
X152285Y49743D01*
X173872Y59372D02*
Y76396D01*
X186004Y88528D01*
X147500Y186500D02*
Y200626D01*
X162740Y173240D02*
Y201134D01*
X146992D02*
X147500Y200626D01*
X72543Y89500D02*
X85000D01*
X71957Y90086D02*
Y96917D01*
Y90086D02*
X72543Y89500D01*
X69398Y89274D02*
Y96917D01*
X85000Y89500D02*
X104500Y70000D01*
X73500Y85500D02*
X88000Y71000D01*
X69086Y85500D02*
X73500D01*
X74781Y94071D02*
X83940D01*
X74516Y94336D02*
X74781Y94071D01*
X69398Y89274D02*
X71172Y87500D01*
X74516Y94336D02*
Y96917D01*
X83940Y94071D02*
X112122Y65889D01*
X75000Y87500D02*
X96374Y66126D01*
X71172Y87500D02*
X75000D01*
X66839Y87747D02*
X69086Y85500D01*
X96374Y47374D02*
Y66126D01*
X88000Y68000D02*
X88500Y67500D01*
X88000Y68000D02*
Y71000D01*
X104500Y67650D02*
Y70000D01*
X112122Y47374D02*
Y65889D01*
X56500Y124185D02*
X56602Y124083D01*
X56500Y124185D02*
Y144500D01*
X56000Y151299D02*
X56500Y150799D01*
X56000Y151299D02*
Y164500D01*
X51000Y169500D02*
Y192000D01*
Y169500D02*
X56000Y164500D01*
X71000Y214500D02*
Y229000D01*
X65000Y179000D02*
Y208500D01*
X71000Y214500D01*
X61532Y143670D02*
Y175531D01*
X59161Y141300D02*
X61532Y143670D01*
Y175531D02*
X65000Y179000D01*
X59161Y124083D02*
Y141300D01*
X65000Y158500D02*
Y167769D01*
X71000Y173769D01*
X65000Y158328D02*
X65086Y158414D01*
X65000Y158500D02*
X65086Y158414D01*
X65000Y150500D02*
Y158328D01*
X71000Y173769D02*
Y192000D01*
X64000Y143201D02*
X65000Y144201D01*
X64000Y141500D02*
Y143201D01*
X61721Y124083D02*
Y139220D01*
X64000Y141500D01*
X64280Y137619D02*
X70031Y143371D01*
X64280Y124083D02*
Y137619D01*
X91000Y221000D02*
Y229000D01*
X87500Y217500D02*
X91000Y221000D01*
X87500Y185000D02*
Y217500D01*
X70031Y167532D02*
X87500Y185000D01*
X70031Y143371D02*
Y167532D01*
X66839Y124083D02*
Y133839D01*
X73500Y140500D02*
Y144201D01*
X66839Y133839D02*
X73500Y140500D01*
X71957Y124083D02*
Y130457D01*
X73500Y150500D02*
Y161000D01*
X91000Y178500D02*
Y192000D01*
X73500Y161000D02*
X91000Y178500D01*
X82000Y150799D02*
Y155500D01*
X111000Y184500D02*
Y192000D01*
X82000Y155500D02*
X111000Y184500D01*
Y220000D02*
Y229000D01*
X109500Y218500D02*
X111000Y220000D01*
X95000Y210500D02*
X103000Y218500D01*
X109500D01*
X95000Y176500D02*
Y210500D01*
X78000Y159500D02*
X95000Y176500D01*
X69398Y124083D02*
Y131398D01*
X46500Y145989D02*
Y224500D01*
X51000Y229000D01*
X46500Y145989D02*
X54043Y138446D01*
Y126500D02*
Y138446D01*
Y124083D02*
Y126457D01*
X54000Y126500D02*
X54043Y126457D01*
X26500Y146799D02*
Y150000D01*
X24500Y152000D02*
X26500Y150000D01*
X22000Y152000D02*
X24500D01*
X31000Y221157D02*
Y229000D01*
X21000Y215500D02*
Y229000D01*
X25000Y116118D02*
X25118Y116000D01*
X25000Y116118D02*
Y128500D01*
X49130Y47374D02*
Y77370D01*
X27965Y98535D02*
X49130Y77370D01*
X27677Y102614D02*
X27965Y102327D01*
Y98535D02*
Y102327D01*
X41500Y66650D02*
X42000Y67150D01*
Y79000D01*
X25118Y95882D02*
Y102614D01*
Y95882D02*
X42000Y79000D01*
X56602Y67047D02*
Y96917D01*
Y67047D02*
X57000Y66650D01*
X59161Y75839D02*
Y96917D01*
X64878Y47374D02*
Y70122D01*
X59161Y75839D02*
X64878Y70122D01*
X61721Y79779D02*
Y96917D01*
Y79779D02*
X63000Y78500D01*
X66000D01*
X72500Y72000D01*
Y66500D02*
Y72000D01*
X65086Y82500D02*
X69500D01*
X64280Y83306D02*
Y96917D01*
Y83306D02*
X65086Y82500D01*
X66839Y87747D02*
Y96917D01*
X80626Y47374D02*
Y71374D01*
X69500Y82500D02*
X80626Y71374D01*
X104248Y47374D02*
Y61098D01*
X104500Y61350D01*
X88500Y47374D02*
Y61201D01*
X72752Y47374D02*
Y59949D01*
X72500Y60201D02*
X72752Y59949D01*
X57004Y47374D02*
Y60347D01*
X57000Y60350D02*
X57004Y60347D01*
X41256Y47374D02*
Y60106D01*
X41500Y60350D01*
X154866Y179334D02*
Y201134D01*
D11*
X131244D02*
D03*
X131244Y209008D02*
D03*
X139118Y201134D02*
D03*
Y209008D02*
D03*
X146992Y201134D02*
D03*
Y209008D02*
D03*
X154866Y201134D02*
D03*
Y209008D02*
D03*
X162740Y201134D02*
D03*
Y209008D02*
D03*
X170614Y201134D02*
D03*
X178488D02*
D03*
X170614Y209008D02*
D03*
D12*
X178488D02*
D03*
D13*
X112122Y39500D02*
D03*
X104248D02*
D03*
X96374D02*
D03*
X88500D02*
D03*
X80626D02*
D03*
X72752D02*
D03*
X64878D02*
D03*
X57004D02*
D03*
X49130D02*
D03*
X41256D02*
D03*
X112122Y47374D02*
D03*
X104248D02*
D03*
X96374D02*
D03*
X88500D02*
D03*
X80626D02*
D03*
X72752D02*
D03*
X64878D02*
D03*
X57004D02*
D03*
X49130D02*
D03*
D14*
X41256D02*
D03*
D15*
X89000Y121000D02*
D03*
X157500Y117500D02*
D03*
D16*
X21000Y229000D02*
D03*
X31000D02*
D03*
X41000D02*
D03*
X51000D02*
D03*
X61000D02*
D03*
X71000D02*
D03*
X81000D02*
D03*
X91000D02*
D03*
X101000D02*
D03*
X21000Y192000D02*
D03*
X31000D02*
D03*
X41000D02*
D03*
X51000D02*
D03*
X61000D02*
D03*
X71000D02*
D03*
X81000D02*
D03*
X91000D02*
D03*
X101000D02*
D03*
X111000D02*
D03*
D17*
Y229000D02*
D03*
D18*
X41500Y60350D02*
D03*
Y66650D02*
D03*
X57000Y60350D02*
D03*
Y66650D02*
D03*
X72500Y60201D02*
D03*
Y66500D02*
D03*
X88500Y61201D02*
D03*
Y67500D02*
D03*
X104500Y61350D02*
D03*
Y67650D02*
D03*
X89000Y108701D02*
D03*
Y115000D02*
D03*
X35000Y105350D02*
D03*
Y111650D02*
D03*
X42500Y106350D02*
D03*
Y112650D02*
D03*
X11500Y106850D02*
D03*
Y113150D02*
D03*
X82000Y150799D02*
D03*
Y144500D02*
D03*
X73500Y150500D02*
D03*
Y144201D02*
D03*
X65000Y150500D02*
D03*
Y144201D02*
D03*
X56500Y150799D02*
D03*
Y144500D02*
D03*
X26500Y146799D02*
D03*
Y140500D02*
D03*
D19*
X20000Y116000D02*
D03*
D20*
X22559D02*
D03*
X25118D02*
D03*
X27677D02*
D03*
X20000Y102614D02*
D03*
X22559D02*
D03*
X25118D02*
D03*
X27677D02*
D03*
D21*
X171150Y117500D02*
D03*
X164850D02*
D03*
D22*
X10095Y165500D02*
D03*
X21905D02*
D03*
D23*
X137614Y29972D02*
D03*
Y49657D02*
D03*
Y69342D02*
D03*
Y89028D02*
D03*
X214386Y29972D02*
D03*
Y49657D02*
D03*
Y69342D02*
D03*
Y89028D02*
D03*
D24*
X156315Y99854D02*
D03*
X176000D02*
D03*
X195685D02*
D03*
D25*
X51484Y124083D02*
D03*
X54043D02*
D03*
X56602D02*
D03*
X59161D02*
D03*
X61721D02*
D03*
X64280D02*
D03*
X66839D02*
D03*
X69398D02*
D03*
X71957D02*
D03*
X74516D02*
D03*
X51484Y96917D02*
D03*
X54043D02*
D03*
X56602D02*
D03*
X59161D02*
D03*
X61721D02*
D03*
X64280D02*
D03*
X66839D02*
D03*
X69398D02*
D03*
X71957D02*
D03*
X74516D02*
D03*
M02*
