G04*
G04 #@! TF.GenerationSoftware,Altium Limited,Altium Designer,23.5.1 (21)*
G04*
G04 Layer_Physical_Order=1*
G04 Layer_Color=255*
%FSLAX25Y25*%
%MOIN*%
G70*
G04*
G04 #@! TF.SameCoordinates,0408ED74-067C-4AB8-8F48-5870F71C2ECB*
G04*
G04*
G04 #@! TF.FilePolarity,Positive*
G04*
G01*
G75*
%ADD10C,0.01000*%
%ADD11O,0.04724X0.05906*%
G04:AMPARAMS|DCode=12|XSize=59.06mil|YSize=47.24mil|CornerRadius=11.81mil|HoleSize=0mil|Usage=FLASHONLY|Rotation=90.000|XOffset=0mil|YOffset=0mil|HoleType=Round|Shape=RoundedRectangle|*
%AMROUNDEDRECTD12*
21,1,0.05906,0.02362,0,0,90.0*
21,1,0.03543,0.04724,0,0,90.0*
1,1,0.02362,0.01181,0.01772*
1,1,0.02362,0.01181,-0.01772*
1,1,0.02362,-0.01181,-0.01772*
1,1,0.02362,-0.01181,0.01772*
%
%ADD12ROUNDEDRECTD12*%
%ADD13C,0.05512*%
%ADD14R,0.05512X0.05512*%
%ADD15C,0.05000*%
G36*
X194000Y247939D02*
Y135000D01*
X195000Y134000D01*
X248000D01*
Y6500D01*
X249000Y5500D01*
X248500Y5000D01*
X22500D01*
Y74000D01*
X20500Y72000D01*
X20000D01*
Y76000D01*
X2000Y94000D01*
X3000Y95000D01*
Y247500D01*
X193000D01*
X193500Y248000D01*
X193506Y248019D01*
X194000Y247939D01*
D02*
G37*
%LPC*%
G36*
X106461Y214000D02*
X105539D01*
X104649Y213761D01*
X103851Y213301D01*
X103199Y212649D01*
X102738Y211851D01*
X102500Y210961D01*
Y210039D01*
X102738Y209149D01*
X103199Y208351D01*
X103851Y207699D01*
X104649Y207239D01*
X105539Y207000D01*
X106461D01*
X107351Y207239D01*
X108149Y207699D01*
X108801Y208351D01*
X109262Y209149D01*
X109500Y210039D01*
Y210961D01*
X109262Y211851D01*
X108801Y212649D01*
X108149Y213301D01*
X107351Y213761D01*
X106461Y214000D01*
D02*
G37*
G36*
X26461D02*
X25539D01*
X24649Y213761D01*
X23851Y213301D01*
X23199Y212649D01*
X22738Y211851D01*
X22500Y210961D01*
Y210039D01*
X22738Y209149D01*
X23199Y208351D01*
X23851Y207699D01*
X24649Y207239D01*
X25539Y207000D01*
X26461D01*
X27351Y207239D01*
X28149Y207699D01*
X28801Y208351D01*
X29261Y209149D01*
X29500Y210039D01*
Y210961D01*
X29261Y211851D01*
X28801Y212649D01*
X28149Y213301D01*
X27351Y213761D01*
X26461Y214000D01*
D02*
G37*
G36*
X179669Y213003D02*
X177307D01*
X176456Y212834D01*
X175735Y212352D01*
X175252Y211631D01*
X175083Y210780D01*
Y207236D01*
X175252Y206385D01*
X175735Y205664D01*
X176456Y205182D01*
X176649Y205143D01*
X176737Y204850D01*
X176734Y204616D01*
X176090Y204122D01*
X175551Y203420D01*
X175213Y202602D01*
X175097Y201724D01*
Y200543D01*
X175213Y199666D01*
X175551Y198848D01*
X176090Y198145D01*
X176793Y197606D01*
X177611Y197268D01*
X178488Y197152D01*
X179366Y197268D01*
X180184Y197606D01*
X180886Y198145D01*
X181425Y198848D01*
X181764Y199666D01*
X181879Y200543D01*
Y201724D01*
X181764Y202602D01*
X181425Y203420D01*
X180886Y204122D01*
X180242Y204616D01*
X180240Y204850D01*
X180327Y205143D01*
X180520Y205182D01*
X181242Y205664D01*
X181724Y206385D01*
X181893Y207236D01*
Y210780D01*
X181724Y211631D01*
X181242Y212352D01*
X180520Y212834D01*
X179669Y213003D01*
D02*
G37*
G36*
X170614Y212990D02*
X169737Y212874D01*
X168919Y212535D01*
X168216Y211996D01*
X167677Y211294D01*
X167339Y210476D01*
X167223Y209598D01*
Y208417D01*
X167339Y207540D01*
X167677Y206722D01*
X168216Y206019D01*
X168919Y205481D01*
X169254Y205342D01*
Y204800D01*
X168919Y204661D01*
X168216Y204122D01*
X167677Y203420D01*
X167339Y202602D01*
X167223Y201724D01*
Y200543D01*
X167339Y199666D01*
X167677Y198848D01*
X168216Y198145D01*
X168919Y197606D01*
X169737Y197268D01*
X170614Y197152D01*
X171492Y197268D01*
X172310Y197606D01*
X173012Y198145D01*
X173551Y198848D01*
X173890Y199666D01*
X174005Y200543D01*
Y201724D01*
X173890Y202602D01*
X173551Y203420D01*
X173012Y204122D01*
X172310Y204661D01*
X171974Y204800D01*
Y205342D01*
X172310Y205481D01*
X173012Y206019D01*
X173551Y206722D01*
X173890Y207540D01*
X174005Y208417D01*
Y209598D01*
X173890Y210476D01*
X173551Y211294D01*
X173012Y211996D01*
X172310Y212535D01*
X171492Y212874D01*
X170614Y212990D01*
D02*
G37*
G36*
X162740Y212990D02*
X161862Y212874D01*
X161045Y212535D01*
X160342Y211996D01*
X159803Y211294D01*
X159465Y210476D01*
X159349Y209598D01*
Y208417D01*
X159465Y207540D01*
X159803Y206722D01*
X160342Y206019D01*
X161045Y205481D01*
X161380Y205342D01*
X161380Y204800D01*
X161045Y204661D01*
X160342Y204122D01*
X159803Y203420D01*
X159465Y202602D01*
X159349Y201724D01*
Y200543D01*
X159465Y199666D01*
X159803Y198848D01*
X160342Y198145D01*
X161045Y197606D01*
X161862Y197268D01*
X162740Y197152D01*
X163618Y197268D01*
X164436Y197606D01*
X165138Y198145D01*
X165677Y198848D01*
X166016Y199666D01*
X166131Y200543D01*
Y201724D01*
X166016Y202602D01*
X165677Y203420D01*
X165138Y204122D01*
X164436Y204661D01*
X164100Y204800D01*
X164100Y205342D01*
X164436Y205481D01*
X165138Y206019D01*
X165677Y206722D01*
X166016Y207540D01*
X166131Y208417D01*
Y209598D01*
X166016Y210476D01*
X165677Y211294D01*
X165138Y211996D01*
X164436Y212535D01*
X163618Y212874D01*
X162740Y212990D01*
D02*
G37*
G36*
X154866D02*
X153988Y212874D01*
X153171Y212535D01*
X152468Y211996D01*
X151929Y211294D01*
X151591Y210476D01*
X151475Y209598D01*
Y208417D01*
X151591Y207540D01*
X151929Y206722D01*
X152468Y206019D01*
X153171Y205481D01*
X153506Y205342D01*
X153506Y204800D01*
X153171Y204661D01*
X152468Y204122D01*
X151929Y203420D01*
X151591Y202602D01*
X151475Y201724D01*
Y200543D01*
X151591Y199666D01*
X151929Y198848D01*
X152468Y198145D01*
X153171Y197606D01*
X153988Y197268D01*
X154866Y197152D01*
X155744Y197268D01*
X156562Y197606D01*
X157264Y198145D01*
X157803Y198848D01*
X158142Y199666D01*
X158257Y200543D01*
Y201724D01*
X158142Y202602D01*
X157803Y203420D01*
X157264Y204122D01*
X156562Y204661D01*
X156226Y204800D01*
X156226Y205342D01*
X156562Y205481D01*
X157264Y206019D01*
X157803Y206722D01*
X158142Y207540D01*
X158257Y208417D01*
Y209598D01*
X158142Y210476D01*
X157803Y211294D01*
X157264Y211996D01*
X156562Y212535D01*
X155744Y212874D01*
X154866Y212990D01*
D02*
G37*
G36*
X146992D02*
X146114Y212874D01*
X145297Y212535D01*
X144594Y211996D01*
X144055Y211294D01*
X143717Y210476D01*
X143601Y209598D01*
Y208417D01*
X143717Y207540D01*
X144055Y206722D01*
X144594Y206019D01*
X145297Y205481D01*
X145632Y205342D01*
X145632Y204800D01*
X145297Y204661D01*
X144594Y204122D01*
X144055Y203420D01*
X143717Y202602D01*
X143601Y201724D01*
Y200543D01*
X143717Y199666D01*
X144055Y198848D01*
X144594Y198145D01*
X145297Y197606D01*
X146114Y197268D01*
X146992Y197152D01*
X147870Y197268D01*
X148688Y197606D01*
X149390Y198145D01*
X149929Y198848D01*
X150268Y199666D01*
X150383Y200543D01*
Y201724D01*
X150268Y202602D01*
X149929Y203420D01*
X149390Y204122D01*
X148688Y204661D01*
X148352Y204800D01*
X148352Y205342D01*
X148688Y205481D01*
X149390Y206019D01*
X149929Y206722D01*
X150268Y207540D01*
X150383Y208417D01*
Y209598D01*
X150268Y210476D01*
X149929Y211294D01*
X149390Y211996D01*
X148688Y212535D01*
X147870Y212874D01*
X146992Y212990D01*
D02*
G37*
G36*
X139118D02*
X138240Y212874D01*
X137423Y212535D01*
X136720Y211996D01*
X136181Y211294D01*
X135843Y210476D01*
X135727Y209598D01*
Y208417D01*
X135843Y207540D01*
X136181Y206722D01*
X136720Y206019D01*
X137423Y205481D01*
X137758Y205342D01*
X137758Y204800D01*
X137423Y204661D01*
X136720Y204122D01*
X136181Y203420D01*
X135843Y202602D01*
X135727Y201724D01*
Y200543D01*
X135843Y199666D01*
X136181Y198848D01*
X136720Y198145D01*
X137423Y197606D01*
X138240Y197268D01*
X139118Y197152D01*
X139996Y197268D01*
X140814Y197606D01*
X141516Y198145D01*
X142055Y198848D01*
X142394Y199666D01*
X142509Y200543D01*
Y201724D01*
X142394Y202602D01*
X142055Y203420D01*
X141516Y204122D01*
X140814Y204661D01*
X140478Y204800D01*
X140478Y205342D01*
X140814Y205481D01*
X141516Y206019D01*
X142055Y206722D01*
X142394Y207540D01*
X142509Y208417D01*
Y209598D01*
X142394Y210476D01*
X142055Y211294D01*
X141516Y211996D01*
X140814Y212535D01*
X139996Y212874D01*
X139118Y212990D01*
D02*
G37*
G36*
X131244D02*
X130366Y212874D01*
X129549Y212535D01*
X128846Y211996D01*
X128307Y211294D01*
X127968Y210476D01*
X127853Y209598D01*
Y208417D01*
X127968Y207540D01*
X128307Y206722D01*
X128846Y206019D01*
X129549Y205481D01*
X129884Y205342D01*
Y204800D01*
X129549Y204661D01*
X128846Y204122D01*
X128307Y203420D01*
X127968Y202602D01*
X127853Y201724D01*
Y200543D01*
X127968Y199666D01*
X128307Y198848D01*
X128846Y198145D01*
X129549Y197606D01*
X130366Y197268D01*
X131244Y197152D01*
X132122Y197268D01*
X132940Y197606D01*
X133642Y198145D01*
X134181Y198848D01*
X134520Y199666D01*
X134635Y200543D01*
Y201724D01*
X134520Y202602D01*
X134181Y203420D01*
X133642Y204122D01*
X132940Y204661D01*
X132604Y204800D01*
Y205342D01*
X132940Y205481D01*
X133642Y206019D01*
X134181Y206722D01*
X134520Y207540D01*
X134635Y208417D01*
Y209598D01*
X134520Y210476D01*
X134181Y211294D01*
X133642Y211996D01*
X132940Y212535D01*
X132122Y212874D01*
X131244Y212990D01*
D02*
G37*
G36*
X89461Y124500D02*
X88539D01*
X87649Y124261D01*
X86851Y123801D01*
X86199Y123149D01*
X85738Y122351D01*
X85500Y121461D01*
Y120539D01*
X85738Y119649D01*
X86199Y118851D01*
X86851Y118199D01*
X87649Y117738D01*
X88539Y117500D01*
X89461D01*
X90030Y117652D01*
X90587Y117415D01*
X90919Y116919D01*
X91218Y116718D01*
X91419Y116419D01*
X91915Y116087D01*
X92500Y115971D01*
X154341D01*
X154699Y115351D01*
X155351Y114699D01*
X156149Y114239D01*
X157039Y114000D01*
X157961D01*
X158851Y114239D01*
X159649Y114699D01*
X160301Y115351D01*
X160761Y116149D01*
X161000Y117039D01*
Y117961D01*
X160761Y118851D01*
X160301Y119649D01*
X159649Y120301D01*
X158851Y120762D01*
X157961Y121000D01*
X157039D01*
X156149Y120762D01*
X155351Y120301D01*
X154699Y119649D01*
X154341Y119029D01*
X98616D01*
X98581Y119081D01*
X98085Y119413D01*
X97500Y119529D01*
X92747D01*
X92363Y120029D01*
X92500Y120539D01*
Y121461D01*
X92261Y122351D01*
X91801Y123149D01*
X91149Y123801D01*
X90351Y124261D01*
X89461Y124500D01*
D02*
G37*
G36*
X112617Y51130D02*
X111628D01*
X110672Y50874D01*
X109816Y50380D01*
X109117Y49680D01*
X108622Y48824D01*
X108444Y48158D01*
X107926D01*
X107748Y48824D01*
X107254Y49680D01*
X106554Y50380D01*
X105698Y50874D01*
X104743Y51130D01*
X103754D01*
X102798Y50874D01*
X101942Y50380D01*
X101243Y49680D01*
X100748Y48824D01*
X100570Y48158D01*
X100052D01*
X99874Y48824D01*
X99379Y49680D01*
X98680Y50380D01*
X97824Y50874D01*
X96868Y51130D01*
X95880D01*
X94924Y50874D01*
X94068Y50380D01*
X93369Y49680D01*
X92874Y48824D01*
X92696Y48158D01*
X92178D01*
X92000Y48824D01*
X91505Y49680D01*
X90806Y50380D01*
X89950Y50874D01*
X88994Y51130D01*
X88006D01*
X87050Y50874D01*
X86194Y50380D01*
X85495Y49680D01*
X85000Y48824D01*
X84822Y48158D01*
X84304D01*
X84126Y48824D01*
X83631Y49680D01*
X82932Y50380D01*
X82076Y50874D01*
X81121Y51130D01*
X80132D01*
X79176Y50874D01*
X78320Y50380D01*
X77621Y49680D01*
X77126Y48824D01*
X76948Y48158D01*
X76430D01*
X76252Y48824D01*
X75757Y49680D01*
X75058Y50380D01*
X74202Y50874D01*
X73246Y51130D01*
X72258D01*
X71302Y50874D01*
X70446Y50380D01*
X69747Y49680D01*
X69252Y48824D01*
X69074Y48158D01*
X68556D01*
X68378Y48824D01*
X67883Y49680D01*
X67184Y50380D01*
X66328Y50874D01*
X65372Y51130D01*
X64384D01*
X63428Y50874D01*
X62572Y50380D01*
X61873Y49680D01*
X61378Y48824D01*
X61200Y48158D01*
X60682D01*
X60504Y48824D01*
X60009Y49680D01*
X59310Y50380D01*
X58454Y50874D01*
X57498Y51130D01*
X56510D01*
X55554Y50874D01*
X54698Y50380D01*
X53999Y49680D01*
X53504Y48824D01*
X53326Y48158D01*
X52808D01*
X52630Y48824D01*
X52135Y49680D01*
X51436Y50380D01*
X50580Y50874D01*
X49624Y51130D01*
X48635D01*
X47680Y50874D01*
X46824Y50380D01*
X46124Y49680D01*
X45630Y48824D01*
X45512Y48383D01*
X45012Y48449D01*
Y51130D01*
X37500D01*
Y43618D01*
X40181D01*
X40247Y43118D01*
X39806Y43000D01*
X38950Y42505D01*
X38250Y41806D01*
X37756Y40950D01*
X37500Y39994D01*
Y39006D01*
X37756Y38050D01*
X38250Y37194D01*
X38950Y36494D01*
X39806Y36000D01*
X40761Y35744D01*
X41750D01*
X42706Y36000D01*
X43562Y36494D01*
X44261Y37194D01*
X44756Y38050D01*
X44934Y38715D01*
X45452D01*
X45630Y38050D01*
X46124Y37194D01*
X46824Y36494D01*
X47680Y36000D01*
X48635Y35744D01*
X49624D01*
X50580Y36000D01*
X51436Y36494D01*
X52135Y37194D01*
X52630Y38050D01*
X52808Y38715D01*
X53326D01*
X53504Y38050D01*
X53999Y37194D01*
X54698Y36494D01*
X55554Y36000D01*
X56510Y35744D01*
X57498D01*
X58454Y36000D01*
X59310Y36494D01*
X60009Y37194D01*
X60504Y38050D01*
X60682Y38715D01*
X61200D01*
X61378Y38050D01*
X61873Y37194D01*
X62572Y36494D01*
X63428Y36000D01*
X64384Y35744D01*
X65372D01*
X66328Y36000D01*
X67184Y36494D01*
X67883Y37194D01*
X68378Y38050D01*
X68556Y38715D01*
X69074D01*
X69252Y38050D01*
X69747Y37194D01*
X70446Y36494D01*
X71302Y36000D01*
X72258Y35744D01*
X73246D01*
X74202Y36000D01*
X75058Y36494D01*
X75757Y37194D01*
X76252Y38050D01*
X76430Y38715D01*
X76948D01*
X77126Y38050D01*
X77621Y37194D01*
X78320Y36494D01*
X79176Y36000D01*
X80132Y35744D01*
X81121D01*
X82076Y36000D01*
X82932Y36494D01*
X83631Y37194D01*
X84126Y38050D01*
X84304Y38715D01*
X84822D01*
X85000Y38050D01*
X85495Y37194D01*
X86194Y36494D01*
X87050Y36000D01*
X88006Y35744D01*
X88994D01*
X89950Y36000D01*
X90806Y36494D01*
X91505Y37194D01*
X92000Y38050D01*
X92178Y38715D01*
X92696D01*
X92874Y38050D01*
X93369Y37194D01*
X94068Y36494D01*
X94924Y36000D01*
X95880Y35744D01*
X96868D01*
X97824Y36000D01*
X98680Y36494D01*
X99379Y37194D01*
X99874Y38050D01*
X100052Y38715D01*
X100570D01*
X100748Y38050D01*
X101243Y37194D01*
X101942Y36494D01*
X102798Y36000D01*
X103754Y35744D01*
X104743D01*
X105698Y36000D01*
X106554Y36494D01*
X107254Y37194D01*
X107748Y38050D01*
X107926Y38715D01*
X108444D01*
X108622Y38050D01*
X109117Y37194D01*
X109816Y36494D01*
X110672Y36000D01*
X111628Y35744D01*
X112617D01*
X113572Y36000D01*
X114428Y36494D01*
X115128Y37194D01*
X115622Y38050D01*
X115878Y39006D01*
Y39994D01*
X115622Y40950D01*
X115128Y41806D01*
X114428Y42505D01*
X113572Y43000D01*
X112907Y43178D01*
Y43696D01*
X113572Y43874D01*
X114428Y44368D01*
X115128Y45068D01*
X115622Y45924D01*
X115878Y46880D01*
Y47868D01*
X115622Y48824D01*
X115128Y49680D01*
X114428Y50380D01*
X113572Y50874D01*
X112617Y51130D01*
D02*
G37*
%LPD*%
D10*
X92000Y118000D02*
X97500D01*
X92500Y117500D02*
X157500D01*
X89000Y121000D02*
X89500Y120500D01*
D11*
X131244Y201134D02*
D03*
X131244Y209008D02*
D03*
X139118Y201134D02*
D03*
Y209008D02*
D03*
X146992Y201134D02*
D03*
Y209008D02*
D03*
X154866Y201134D02*
D03*
Y209008D02*
D03*
X162740Y201134D02*
D03*
Y209008D02*
D03*
X170614Y201134D02*
D03*
X178488D02*
D03*
X170614Y209008D02*
D03*
D12*
X178488D02*
D03*
D13*
X112122Y39500D02*
D03*
X104248D02*
D03*
X96374D02*
D03*
X88500D02*
D03*
X80626D02*
D03*
X72752D02*
D03*
X64878D02*
D03*
X57004D02*
D03*
X49130D02*
D03*
X41256D02*
D03*
X112122Y47374D02*
D03*
X104248D02*
D03*
X96374D02*
D03*
X88500D02*
D03*
X80626D02*
D03*
X72752D02*
D03*
X64878D02*
D03*
X57004D02*
D03*
X49130D02*
D03*
D14*
X41256D02*
D03*
D15*
X89000Y121000D02*
D03*
X157500Y117500D02*
D03*
M02*
