%TF.GenerationSoftware,Altium Limited,Altium Designer,23.5.1 (21)*%
G04 Layer_Physical_Order=1*
G04 Layer_Color=255*
%FSLAX45Y45*%
%MOMM*%
%TF.SameCoordinates,246B43F8-C8EE-452E-B3C0-F8779A116AF4*%
%TF.FilePolarity,Positive*%
%TF.FileFunction,Copper,L1,Top,Signal*%
%TF.Part,Single*%
G01*
G75*
%TA.AperFunction,Conductor*%
%ADD10C,0.25400*%
%TA.AperFunction,ComponentPad*%
%ADD11O,1.20000X1.50000*%
G04:AMPARAMS|DCode=12|XSize=1.5mm|YSize=1.2mm|CornerRadius=0.3mm|HoleSize=0mm|Usage=FLASHONLY|Rotation=90.000|XOffset=0mm|YOffset=0mm|HoleType=Round|Shape=RoundedRectangle|*
%AMROUNDEDRECTD12*
21,1,1.50000,0.60000,0,0,90.0*
21,1,0.90000,1.20000,0,0,90.0*
1,1,0.60000,0.30000,0.45000*
1,1,0.60000,0.30000,-0.45000*
1,1,0.60000,-0.30000,-0.45000*
1,1,0.60000,-0.30000,0.45000*
%
%ADD12ROUNDEDRECTD12*%
%ADD13C,1.40000*%
%ADD14R,1.40000X1.40000*%
%TA.AperFunction,ViaPad*%
%ADD15C,1.27000*%
G36*
X4927600Y6297657D02*
Y3429000D01*
X4953000Y3403600D01*
X6299200D01*
Y165100D01*
X6324600Y139700D01*
X6311900Y127000D01*
X571500D01*
Y1879600D01*
X520700Y1828800D01*
X508000D01*
Y1930400D01*
X50800Y2387600D01*
X76200Y2413000D01*
Y6286500D01*
X4902200D01*
X4914900Y6299200D01*
X4915064Y6299692D01*
X4927600Y6297657D01*
D02*
G37*
%LPC*%
G36*
X2704104Y5435600D02*
X2680696D01*
X2658086Y5429542D01*
X2637814Y5417838D01*
X2621262Y5401286D01*
X2609558Y5381014D01*
X2603500Y5358404D01*
Y5334996D01*
X2609558Y5312386D01*
X2621262Y5292114D01*
X2637814Y5275562D01*
X2658086Y5263858D01*
X2680696Y5257800D01*
X2704104D01*
X2726714Y5263858D01*
X2746986Y5275562D01*
X2763538Y5292114D01*
X2775242Y5312386D01*
X2781300Y5334996D01*
Y5358404D01*
X2775242Y5381014D01*
X2763538Y5401286D01*
X2746986Y5417838D01*
X2726714Y5429542D01*
X2704104Y5435600D01*
D02*
G37*
G36*
X672104D02*
X648696D01*
X626086Y5429542D01*
X605814Y5417838D01*
X589262Y5401286D01*
X577558Y5381014D01*
X571500Y5358404D01*
Y5334996D01*
X577558Y5312386D01*
X589262Y5292114D01*
X605814Y5275562D01*
X626086Y5263858D01*
X648696Y5257800D01*
X672104D01*
X694714Y5263858D01*
X714986Y5275562D01*
X731538Y5292114D01*
X743242Y5312386D01*
X749300Y5334996D01*
Y5358404D01*
X743242Y5381014D01*
X731538Y5401286D01*
X714986Y5417838D01*
X694714Y5429542D01*
X672104Y5435600D01*
D02*
G37*
G36*
X4563600Y5410285D02*
X4503600D01*
X4481984Y5405986D01*
X4463659Y5393741D01*
X4451415Y5375416D01*
X4447115Y5353800D01*
Y5263800D01*
X4451415Y5242184D01*
X4463659Y5223859D01*
X4481984Y5211615D01*
X4486897Y5210638D01*
X4489112Y5203179D01*
X4489051Y5197260D01*
X4472692Y5184708D01*
X4459004Y5166868D01*
X4450398Y5146094D01*
X4447463Y5123800D01*
Y5093800D01*
X4450398Y5071506D01*
X4459004Y5050732D01*
X4472692Y5032892D01*
X4490532Y5019204D01*
X4511306Y5010598D01*
X4533600Y5007663D01*
X4555894Y5010598D01*
X4576668Y5019204D01*
X4594508Y5032892D01*
X4608197Y5050732D01*
X4616802Y5071506D01*
X4619737Y5093800D01*
Y5123800D01*
X4616802Y5146094D01*
X4608197Y5166868D01*
X4594508Y5184708D01*
X4578149Y5197260D01*
X4578088Y5203179D01*
X4580303Y5210638D01*
X4585216Y5211615D01*
X4603541Y5223859D01*
X4615786Y5242184D01*
X4620085Y5263800D01*
Y5353800D01*
X4615786Y5375416D01*
X4603541Y5393741D01*
X4585216Y5405986D01*
X4563600Y5410285D01*
D02*
G37*
G36*
X4333600Y5409937D02*
X4311306Y5407002D01*
X4290532Y5398397D01*
X4272692Y5384708D01*
X4259003Y5366868D01*
X4250398Y5346094D01*
X4247463Y5323800D01*
Y5293800D01*
X4250398Y5271506D01*
X4259003Y5250732D01*
X4272692Y5232892D01*
X4290532Y5219204D01*
X4299054Y5215673D01*
Y5201927D01*
X4290532Y5198397D01*
X4272692Y5184708D01*
X4259003Y5166868D01*
X4250398Y5146094D01*
X4247463Y5123800D01*
Y5093800D01*
X4250398Y5071506D01*
X4259003Y5050732D01*
X4272692Y5032892D01*
X4290532Y5019204D01*
X4311306Y5010598D01*
X4333600Y5007663D01*
X4355894Y5010598D01*
X4376668Y5019204D01*
X4394508Y5032892D01*
X4408196Y5050732D01*
X4416802Y5071506D01*
X4419737Y5093800D01*
Y5123800D01*
X4416802Y5146094D01*
X4408196Y5166868D01*
X4394508Y5184708D01*
X4376668Y5198397D01*
X4368145Y5201927D01*
Y5215673D01*
X4376668Y5219204D01*
X4394508Y5232892D01*
X4408196Y5250732D01*
X4416802Y5271506D01*
X4419737Y5293800D01*
Y5323800D01*
X4416802Y5346094D01*
X4408196Y5366868D01*
X4394508Y5384708D01*
X4376668Y5398397D01*
X4355894Y5407002D01*
X4333600Y5409937D01*
D02*
G37*
G36*
X4133600Y5409937D02*
X4111306Y5407002D01*
X4090532Y5398396D01*
X4072692Y5384708D01*
X4059004Y5366868D01*
X4050398Y5346094D01*
X4047463Y5323800D01*
Y5293800D01*
X4050398Y5271506D01*
X4059004Y5250731D01*
X4072692Y5232892D01*
X4090532Y5219203D01*
X4099054Y5215673D01*
X4099054Y5201927D01*
X4090532Y5198397D01*
X4072692Y5184708D01*
X4059004Y5166869D01*
X4050398Y5146094D01*
X4047463Y5123800D01*
Y5093800D01*
X4050398Y5071506D01*
X4059004Y5050732D01*
X4072692Y5032892D01*
X4090532Y5019204D01*
X4111306Y5010598D01*
X4133600Y5007663D01*
X4155894Y5010598D01*
X4176668Y5019204D01*
X4194508Y5032892D01*
X4208197Y5050732D01*
X4216802Y5071506D01*
X4219737Y5093800D01*
Y5123800D01*
X4216802Y5146094D01*
X4208197Y5166869D01*
X4194508Y5184708D01*
X4176668Y5198397D01*
X4168146Y5201927D01*
X4168146Y5215673D01*
X4176669Y5219203D01*
X4194508Y5232892D01*
X4208197Y5250731D01*
X4216802Y5271506D01*
X4219737Y5293800D01*
Y5323800D01*
X4216802Y5346094D01*
X4208197Y5366868D01*
X4194508Y5384708D01*
X4176669Y5398396D01*
X4155894Y5407002D01*
X4133600Y5409937D01*
D02*
G37*
G36*
X3933600D02*
X3911306Y5407002D01*
X3890531Y5398396D01*
X3872692Y5384708D01*
X3859003Y5366868D01*
X3850398Y5346094D01*
X3847463Y5323800D01*
Y5293800D01*
X3850398Y5271506D01*
X3859003Y5250731D01*
X3872692Y5232892D01*
X3890531Y5219203D01*
X3899054Y5215673D01*
X3899054Y5201927D01*
X3890532Y5198397D01*
X3872692Y5184708D01*
X3859003Y5166869D01*
X3850398Y5146094D01*
X3847463Y5123800D01*
Y5093800D01*
X3850398Y5071506D01*
X3859003Y5050732D01*
X3872692Y5032892D01*
X3890532Y5019204D01*
X3911306Y5010598D01*
X3933600Y5007663D01*
X3955894Y5010598D01*
X3976668Y5019204D01*
X3994508Y5032892D01*
X4008196Y5050732D01*
X4016802Y5071506D01*
X4019737Y5093800D01*
Y5123800D01*
X4016802Y5146094D01*
X4008196Y5166869D01*
X3994508Y5184708D01*
X3976668Y5198397D01*
X3968146Y5201927D01*
X3968146Y5215673D01*
X3976668Y5219203D01*
X3994508Y5232892D01*
X4008196Y5250731D01*
X4016802Y5271506D01*
X4019737Y5293800D01*
Y5323800D01*
X4016802Y5346094D01*
X4008196Y5366868D01*
X3994508Y5384708D01*
X3976668Y5398396D01*
X3955894Y5407002D01*
X3933600Y5409937D01*
D02*
G37*
G36*
X3733600D02*
X3711306Y5407002D01*
X3690531Y5398396D01*
X3672692Y5384708D01*
X3659003Y5366868D01*
X3650398Y5346094D01*
X3647463Y5323800D01*
Y5293800D01*
X3650398Y5271506D01*
X3659003Y5250731D01*
X3672692Y5232892D01*
X3690531Y5219203D01*
X3699054Y5215673D01*
X3699054Y5201927D01*
X3690532Y5198397D01*
X3672692Y5184708D01*
X3659003Y5166869D01*
X3650398Y5146094D01*
X3647463Y5123800D01*
Y5093800D01*
X3650398Y5071506D01*
X3659003Y5050732D01*
X3672692Y5032892D01*
X3690532Y5019204D01*
X3711306Y5010598D01*
X3733600Y5007663D01*
X3755894Y5010598D01*
X3776668Y5019204D01*
X3794508Y5032892D01*
X3808196Y5050732D01*
X3816802Y5071506D01*
X3819737Y5093800D01*
Y5123800D01*
X3816802Y5146094D01*
X3808196Y5166869D01*
X3794508Y5184708D01*
X3776668Y5198397D01*
X3768146Y5201927D01*
X3768146Y5215673D01*
X3776668Y5219203D01*
X3794508Y5232892D01*
X3808196Y5250731D01*
X3816802Y5271506D01*
X3819737Y5293800D01*
Y5323800D01*
X3816802Y5346094D01*
X3808196Y5366868D01*
X3794508Y5384708D01*
X3776668Y5398396D01*
X3755894Y5407002D01*
X3733600Y5409937D01*
D02*
G37*
G36*
X3533600D02*
X3511306Y5407002D01*
X3490531Y5398396D01*
X3472692Y5384708D01*
X3459003Y5366868D01*
X3450398Y5346094D01*
X3447463Y5323800D01*
Y5293800D01*
X3450398Y5271506D01*
X3459003Y5250732D01*
X3472692Y5232892D01*
X3490531Y5219203D01*
X3499054Y5215673D01*
X3499054Y5201927D01*
X3490532Y5198397D01*
X3472692Y5184708D01*
X3459003Y5166868D01*
X3450398Y5146094D01*
X3447463Y5123800D01*
Y5093800D01*
X3450398Y5071506D01*
X3459003Y5050732D01*
X3472692Y5032892D01*
X3490532Y5019204D01*
X3511306Y5010598D01*
X3533600Y5007663D01*
X3555894Y5010598D01*
X3576668Y5019204D01*
X3594508Y5032892D01*
X3608196Y5050732D01*
X3616802Y5071506D01*
X3619737Y5093800D01*
Y5123800D01*
X3616802Y5146094D01*
X3608196Y5166868D01*
X3594508Y5184708D01*
X3576668Y5198397D01*
X3568146Y5201927D01*
X3568146Y5215673D01*
X3576668Y5219203D01*
X3594508Y5232892D01*
X3608196Y5250732D01*
X3616802Y5271506D01*
X3619737Y5293800D01*
Y5323800D01*
X3616802Y5346094D01*
X3608196Y5366868D01*
X3594508Y5384708D01*
X3576668Y5398396D01*
X3555894Y5407002D01*
X3533600Y5409937D01*
D02*
G37*
G36*
X3333600D02*
X3311306Y5407002D01*
X3290531Y5398396D01*
X3272692Y5384708D01*
X3259003Y5366868D01*
X3250398Y5346094D01*
X3247463Y5323800D01*
Y5293800D01*
X3250398Y5271506D01*
X3259003Y5250732D01*
X3272692Y5232892D01*
X3290531Y5219203D01*
X3299054Y5215673D01*
Y5201927D01*
X3290532Y5198397D01*
X3272692Y5184708D01*
X3259004Y5166869D01*
X3250398Y5146094D01*
X3247463Y5123800D01*
Y5093800D01*
X3250398Y5071506D01*
X3259004Y5050732D01*
X3272692Y5032892D01*
X3290532Y5019204D01*
X3311306Y5010598D01*
X3333600Y5007663D01*
X3355894Y5010598D01*
X3376668Y5019204D01*
X3394508Y5032892D01*
X3408197Y5050732D01*
X3416802Y5071506D01*
X3419737Y5093800D01*
Y5123800D01*
X3416802Y5146094D01*
X3408197Y5166869D01*
X3394508Y5184708D01*
X3376668Y5198397D01*
X3368146Y5201927D01*
Y5215673D01*
X3376668Y5219203D01*
X3394508Y5232892D01*
X3408196Y5250732D01*
X3416802Y5271506D01*
X3419737Y5293800D01*
Y5323800D01*
X3416802Y5346094D01*
X3408196Y5366868D01*
X3394508Y5384708D01*
X3376668Y5398396D01*
X3355894Y5407002D01*
X3333600Y5409937D01*
D02*
G37*
G36*
X2272304Y3162300D02*
X2248896D01*
X2226286Y3156242D01*
X2206014Y3144538D01*
X2189462Y3127986D01*
X2177758Y3107714D01*
X2171700Y3085104D01*
Y3061696D01*
X2177758Y3039086D01*
X2189462Y3018814D01*
X2206014Y3002262D01*
X2226286Y2990558D01*
X2248896Y2984500D01*
X2272304D01*
X2286760Y2988373D01*
X2300911Y2982334D01*
X2309331Y2969731D01*
X2316945Y2964645D01*
X2322031Y2957031D01*
X2334634Y2948611D01*
X2349500Y2945653D01*
X3920275D01*
X3929362Y2929914D01*
X3945914Y2913362D01*
X3966186Y2901658D01*
X3988796Y2895600D01*
X4012204D01*
X4034814Y2901658D01*
X4055086Y2913362D01*
X4071638Y2929914D01*
X4083342Y2950186D01*
X4089400Y2972796D01*
Y2996204D01*
X4083342Y3018814D01*
X4071638Y3039086D01*
X4055086Y3055638D01*
X4034814Y3067342D01*
X4012204Y3073400D01*
X3988796D01*
X3966186Y3067342D01*
X3945914Y3055638D01*
X3929362Y3039086D01*
X3920275Y3023347D01*
X2504852D01*
X2503969Y3024669D01*
X2491366Y3033089D01*
X2476500Y3036047D01*
X2355775D01*
X2346030Y3048747D01*
X2349500Y3061696D01*
Y3085104D01*
X2343442Y3107714D01*
X2331738Y3127986D01*
X2315186Y3144538D01*
X2294914Y3156242D01*
X2272304Y3162300D01*
D02*
G37*
G36*
X2860460Y1298700D02*
X2835341D01*
X2811077Y1292199D01*
X2789323Y1279639D01*
X2771561Y1261877D01*
X2759002Y1240123D01*
X2754474Y1223226D01*
X2741326D01*
X2736799Y1240123D01*
X2724239Y1261877D01*
X2706477Y1279639D01*
X2684723Y1292199D01*
X2660460Y1298700D01*
X2635341D01*
X2611077Y1292199D01*
X2589323Y1279639D01*
X2571561Y1261877D01*
X2559002Y1240123D01*
X2554474Y1223226D01*
X2541326D01*
X2536799Y1240123D01*
X2524239Y1261877D01*
X2506477Y1279639D01*
X2484723Y1292199D01*
X2460460Y1298700D01*
X2435341D01*
X2411077Y1292199D01*
X2389323Y1279639D01*
X2371561Y1261877D01*
X2359002Y1240123D01*
X2354474Y1223226D01*
X2341326D01*
X2336798Y1240123D01*
X2324239Y1261877D01*
X2306477Y1279639D01*
X2284723Y1292199D01*
X2260460Y1298700D01*
X2235340D01*
X2211077Y1292199D01*
X2189323Y1279639D01*
X2171561Y1261877D01*
X2159002Y1240123D01*
X2154474Y1223226D01*
X2141326D01*
X2136798Y1240123D01*
X2124239Y1261877D01*
X2106477Y1279639D01*
X2084723Y1292199D01*
X2060459Y1298700D01*
X2035340D01*
X2011077Y1292199D01*
X1989323Y1279639D01*
X1971561Y1261877D01*
X1959001Y1240123D01*
X1954474Y1223226D01*
X1941326D01*
X1936798Y1240123D01*
X1924239Y1261877D01*
X1906477Y1279639D01*
X1884723Y1292199D01*
X1860459Y1298700D01*
X1835340D01*
X1811077Y1292199D01*
X1789323Y1279639D01*
X1771561Y1261877D01*
X1759001Y1240123D01*
X1754474Y1223226D01*
X1741326D01*
X1736798Y1240123D01*
X1724239Y1261877D01*
X1706477Y1279639D01*
X1684723Y1292199D01*
X1660459Y1298700D01*
X1635340D01*
X1611077Y1292199D01*
X1589323Y1279639D01*
X1571561Y1261877D01*
X1559001Y1240123D01*
X1554474Y1223226D01*
X1541326D01*
X1536798Y1240123D01*
X1524239Y1261877D01*
X1506477Y1279639D01*
X1484722Y1292199D01*
X1460459Y1298700D01*
X1435340D01*
X1411077Y1292199D01*
X1389323Y1279639D01*
X1371561Y1261877D01*
X1359001Y1240123D01*
X1354474Y1223226D01*
X1341325D01*
X1336798Y1240123D01*
X1324238Y1261877D01*
X1306476Y1279639D01*
X1284722Y1292199D01*
X1260459Y1298700D01*
X1235340D01*
X1211077Y1292199D01*
X1189322Y1279639D01*
X1171561Y1261877D01*
X1159001Y1240123D01*
X1155999Y1228921D01*
X1143299Y1230592D01*
Y1298700D01*
X952499D01*
Y1107900D01*
X1020607D01*
X1022279Y1095200D01*
X1011076Y1092198D01*
X989322Y1079639D01*
X971560Y1061877D01*
X959001Y1040123D01*
X952499Y1015860D01*
Y990740D01*
X959001Y966477D01*
X971560Y944723D01*
X989322Y926961D01*
X1011076Y914402D01*
X1035340Y907900D01*
X1060459D01*
X1084722Y914402D01*
X1106476Y926961D01*
X1124238Y944723D01*
X1136798Y966477D01*
X1141325Y983374D01*
X1154473D01*
X1159001Y966477D01*
X1171561Y944723D01*
X1189322Y926961D01*
X1211077Y914402D01*
X1235340Y907900D01*
X1260459D01*
X1284722Y914402D01*
X1306476Y926961D01*
X1324238Y944723D01*
X1336798Y966477D01*
X1341325Y983374D01*
X1354474D01*
X1359001Y966477D01*
X1371561Y944723D01*
X1389323Y926961D01*
X1411077Y914402D01*
X1435340Y907900D01*
X1460459D01*
X1484722Y914402D01*
X1506477Y926961D01*
X1524239Y944723D01*
X1536798Y966477D01*
X1541326Y983374D01*
X1554474D01*
X1559001Y966477D01*
X1571561Y944723D01*
X1589323Y926961D01*
X1611077Y914402D01*
X1635340Y907900D01*
X1660459D01*
X1684723Y914402D01*
X1706477Y926961D01*
X1724239Y944723D01*
X1736798Y966477D01*
X1741326Y983374D01*
X1754474D01*
X1759001Y966477D01*
X1771561Y944723D01*
X1789323Y926961D01*
X1811077Y914402D01*
X1835340Y907900D01*
X1860459D01*
X1884723Y914402D01*
X1906477Y926961D01*
X1924239Y944723D01*
X1936798Y966477D01*
X1941326Y983374D01*
X1954474D01*
X1959001Y966477D01*
X1971561Y944723D01*
X1989323Y926961D01*
X2011077Y914402D01*
X2035340Y907900D01*
X2060459D01*
X2084723Y914402D01*
X2106477Y926961D01*
X2124239Y944723D01*
X2136798Y966477D01*
X2141326Y983374D01*
X2154474D01*
X2159002Y966477D01*
X2171561Y944723D01*
X2189323Y926961D01*
X2211077Y914402D01*
X2235340Y907900D01*
X2260460D01*
X2284723Y914402D01*
X2306477Y926961D01*
X2324239Y944723D01*
X2336798Y966477D01*
X2341326Y983374D01*
X2354474D01*
X2359002Y966477D01*
X2371561Y944723D01*
X2389323Y926961D01*
X2411077Y914402D01*
X2435341Y907900D01*
X2460460D01*
X2484723Y914402D01*
X2506477Y926961D01*
X2524239Y944723D01*
X2536799Y966477D01*
X2541326Y983374D01*
X2554474D01*
X2559002Y966477D01*
X2571561Y944723D01*
X2589323Y926961D01*
X2611077Y914402D01*
X2635341Y907900D01*
X2660460D01*
X2684723Y914402D01*
X2706477Y926961D01*
X2724239Y944723D01*
X2736799Y966477D01*
X2741326Y983374D01*
X2754474D01*
X2759002Y966477D01*
X2771561Y944723D01*
X2789323Y926961D01*
X2811077Y914402D01*
X2835341Y907900D01*
X2860460D01*
X2884723Y914402D01*
X2906477Y926961D01*
X2924239Y944723D01*
X2936799Y966477D01*
X2943300Y990740D01*
Y1015860D01*
X2936799Y1040123D01*
X2924239Y1061877D01*
X2906477Y1079639D01*
X2884723Y1092198D01*
X2867826Y1096726D01*
Y1109874D01*
X2884723Y1114402D01*
X2906477Y1126961D01*
X2924239Y1144723D01*
X2936799Y1166477D01*
X2943300Y1190741D01*
Y1215860D01*
X2936799Y1240123D01*
X2924239Y1261877D01*
X2906477Y1279639D01*
X2884723Y1292199D01*
X2860460Y1298700D01*
D02*
G37*
%LPD*%
D10*
X2336800Y2997200D02*
X2476500D01*
X2349500Y2984500D02*
X4000500D01*
X2260600Y3073400D02*
X2273300Y3060700D01*
D11*
X3333600Y5108800D02*
D03*
X3333600Y5308800D02*
D03*
X3533600Y5108800D02*
D03*
Y5308800D02*
D03*
X3733600Y5108800D02*
D03*
Y5308800D02*
D03*
X3933600Y5108800D02*
D03*
Y5308800D02*
D03*
X4133600Y5108800D02*
D03*
Y5308800D02*
D03*
X4333600Y5108800D02*
D03*
X4533600D02*
D03*
X4333600Y5308800D02*
D03*
D12*
X4533600D02*
D03*
D13*
X2847900Y1003300D02*
D03*
X2647900D02*
D03*
X2447900D02*
D03*
X2247900D02*
D03*
X2047900D02*
D03*
X1847900D02*
D03*
X1647900D02*
D03*
X1447900D02*
D03*
X1247899D02*
D03*
X1047899D02*
D03*
X2847900Y1203300D02*
D03*
X2647900D02*
D03*
X2447900D02*
D03*
X2247900D02*
D03*
X2047900D02*
D03*
X1847900D02*
D03*
X1647900D02*
D03*
X1447900D02*
D03*
X1247899D02*
D03*
D14*
X1047899D02*
D03*
D15*
X2260600Y3073400D02*
D03*
X4000500Y2984500D02*
D03*
%TF.MD5,8236978cce49d692f662b41f77ecff97*%
M02*
