%TF.GenerationSoftware,Altium Limited,Altium Designer,23.5.1 (21)*%
G04 Layer_Physical_Order=2*
G04 Layer_Color=16711680*
%FSLAX45Y45*%
%MOMM*%
%TF.SameCoordinates,246B43F8-C8EE-452E-B3C0-F8779A116AF4*%
%TF.FilePolarity,Positive*%
%TF.FileFunction,Copper,L2,Bot,Signal*%
%TF.Part,Single*%
G01*
G75*
%TA.AperFunction,Conductor*%
%ADD10C,0.25400*%
%TA.AperFunction,ComponentPad*%
%ADD11O,1.20000X1.50000*%
G04:AMPARAMS|DCode=12|XSize=1.5mm|YSize=1.2mm|CornerRadius=0.3mm|HoleSize=0mm|Usage=FLASHONLY|Rotation=90.000|XOffset=0mm|YOffset=0mm|HoleType=Round|Shape=RoundedRectangle|*
%AMROUNDEDRECTD12*
21,1,1.50000,0.60000,0,0,90.0*
21,1,0.90000,1.20000,0,0,90.0*
1,1,0.60000,0.30000,0.45000*
1,1,0.60000,0.30000,-0.45000*
1,1,0.60000,-0.30000,-0.45000*
1,1,0.60000,-0.30000,0.45000*
%
%ADD12ROUNDEDRECTD12*%
%ADD13C,1.40000*%
%ADD14R,1.40000X1.40000*%
%TA.AperFunction,ViaPad*%
%ADD15C,1.27000*%
%TA.AperFunction,SMDPad,CuDef*%
G04:AMPARAMS|DCode=16|XSize=2.286mm|YSize=1.016mm|CornerRadius=0.254mm|HoleSize=0mm|Usage=FLASHONLY|Rotation=90.000|XOffset=0mm|YOffset=0mm|HoleType=Round|Shape=RoundedRectangle|*
%AMROUNDEDRECTD16*
21,1,2.28600,0.50800,0,0,90.0*
21,1,1.77800,1.01600,0,0,90.0*
1,1,0.50800,0.25400,0.88900*
1,1,0.50800,0.25400,-0.88900*
1,1,0.50800,-0.25400,-0.88900*
1,1,0.50800,-0.25400,0.88900*
%
%ADD16ROUNDEDRECTD16*%
%ADD17R,1.01600X2.28600*%
%ADD18R,1.00000X0.90000*%
%ADD19R,0.40000X1.60000*%
G04:AMPARAMS|DCode=20|XSize=1.6mm|YSize=0.4mm|CornerRadius=0.1mm|HoleSize=0mm|Usage=FLASHONLY|Rotation=270.000|XOffset=0mm|YOffset=0mm|HoleType=Round|Shape=RoundedRectangle|*
%AMROUNDEDRECTD20*
21,1,1.60000,0.20000,0,0,270.0*
21,1,1.40000,0.40000,0,0,270.0*
1,1,0.20000,-0.10000,-0.70000*
1,1,0.20000,-0.10000,0.70000*
1,1,0.20000,0.10000,0.70000*
1,1,0.20000,0.10000,-0.70000*
%
%ADD20ROUNDEDRECTD20*%
%ADD21R,0.90000X1.00000*%
%ADD22R,1.15000X1.80000*%
%ADD23R,3.00000X3.50000*%
%ADD24R,3.50000X3.00000*%
%ADD25O,0.40000X2.10000*%
G36*
X4923526Y6295126D02*
X4927600Y6293438D01*
Y3441700D01*
X6273800D01*
X6299200Y3416300D01*
X6286500Y3403600D01*
Y127000D01*
X609600D01*
X584200Y152400D01*
Y1943100D01*
X520700D01*
X63500Y2400300D01*
X64315Y2582948D01*
X77021Y2584171D01*
X77674Y2580889D01*
X83288Y2572488D01*
X134088Y2521688D01*
X609102Y2046673D01*
Y419100D01*
X611074Y409189D01*
X616688Y400788D01*
X680188Y337288D01*
X688589Y331674D01*
X698500Y329702D01*
X5918200D01*
X5928111Y331674D01*
X5936512Y337288D01*
X5942126Y345689D01*
X5944098Y355600D01*
Y3048000D01*
X5942126Y3057911D01*
X5936512Y3066312D01*
X5928111Y3071926D01*
X5918200Y3073898D01*
X4661398D01*
Y5181600D01*
X4659426Y5191511D01*
X4653812Y5199912D01*
X4645411Y5205526D01*
X4635500Y5207498D01*
X4611250D01*
X4607112Y5206675D01*
X4602926Y5206123D01*
X4602181Y5205694D01*
X4601339Y5205526D01*
X4597832Y5203183D01*
X4594175Y5201071D01*
X4589577Y5203463D01*
X4591910Y5216087D01*
X4603541Y5223859D01*
X4615786Y5242184D01*
X4620085Y5263800D01*
Y5296100D01*
X4533600D01*
X4447115D01*
Y5263800D01*
X4451415Y5242184D01*
X4463659Y5223859D01*
X4481984Y5211615D01*
X4486897Y5210638D01*
X4489112Y5203179D01*
X4489051Y5197260D01*
X4472692Y5184708D01*
X4459004Y5166868D01*
X4450398Y5146094D01*
X4447463Y5123800D01*
Y5093800D01*
X4449458Y5078644D01*
X4439947Y5076752D01*
X4437591Y5075776D01*
X4435089Y5075279D01*
X4432969Y5073862D01*
X4430612Y5072885D01*
X4429669Y5071942D01*
X4427944Y5072133D01*
X4418085Y5081251D01*
X4419737Y5093800D01*
Y5123800D01*
X4416802Y5146094D01*
X4408196Y5166868D01*
X4394508Y5184708D01*
X4376668Y5198397D01*
X4368145Y5201927D01*
Y5215673D01*
X4376668Y5219204D01*
X4394508Y5232892D01*
X4408196Y5250732D01*
X4416802Y5271506D01*
X4419737Y5293800D01*
Y5296100D01*
X4333600D01*
X4247463D01*
Y5293800D01*
X4250398Y5271506D01*
X4259003Y5250732D01*
X4272692Y5232892D01*
X4290532Y5219204D01*
X4299054Y5215673D01*
Y5201927D01*
X4290532Y5198397D01*
X4272692Y5184708D01*
X4259003Y5166868D01*
X4250398Y5146094D01*
X4247463Y5123800D01*
Y5093800D01*
X4250398Y5071506D01*
X4259003Y5050732D01*
X4272692Y5032892D01*
X4290532Y5019204D01*
X4294753Y5017455D01*
Y4260791D01*
X3452331Y3418369D01*
X3443911Y3405766D01*
X3440953Y3390900D01*
Y2461700D01*
X3320000D01*
Y2064047D01*
X3320000Y2060900D01*
X3312403Y2051347D01*
X3226365D01*
Y3438127D01*
X4161069Y4372831D01*
X4169490Y4385434D01*
X4172447Y4400300D01*
Y5017455D01*
X4176668Y5019204D01*
X4194508Y5032892D01*
X4208197Y5050732D01*
X4216802Y5071506D01*
X4219737Y5093800D01*
Y5123800D01*
X4216802Y5146094D01*
X4208197Y5166869D01*
X4194508Y5184708D01*
X4176668Y5198397D01*
X4168146Y5201927D01*
X4168146Y5215673D01*
X4176669Y5219203D01*
X4194508Y5232892D01*
X4208197Y5250731D01*
X4216802Y5271506D01*
X4219737Y5293800D01*
Y5296100D01*
X4133600D01*
X4047463D01*
Y5293800D01*
X4050398Y5271506D01*
X4059004Y5250731D01*
X4072692Y5232892D01*
X4090532Y5219203D01*
X4099054Y5215673D01*
X4099054Y5201927D01*
X4090532Y5198397D01*
X4072692Y5184708D01*
X4059004Y5166869D01*
X4050398Y5146094D01*
X4047463Y5123800D01*
Y5093800D01*
X4050398Y5071506D01*
X4059004Y5050732D01*
X4072692Y5032892D01*
X4090532Y5019204D01*
X4094754Y5017455D01*
Y4416391D01*
X3160050Y3481687D01*
X3151629Y3469084D01*
X3148672Y3454218D01*
Y2027379D01*
X3151629Y2012513D01*
X3160050Y1999911D01*
X3174929Y1985032D01*
X3187531Y1976611D01*
X3202397Y1973654D01*
X3318198D01*
X3320000Y1961700D01*
X3320000Y1960953D01*
Y1791447D01*
X3112247D01*
Y3678785D01*
X3961069Y4527606D01*
X3969489Y4540209D01*
X3972446Y4555075D01*
Y5017455D01*
X3976668Y5019204D01*
X3994508Y5032892D01*
X4008196Y5050732D01*
X4016802Y5071506D01*
X4019737Y5093800D01*
Y5123800D01*
X4016802Y5146094D01*
X4008196Y5166869D01*
X3994508Y5184708D01*
X3976668Y5198397D01*
X3968146Y5201927D01*
X3968146Y5215673D01*
X3976668Y5219203D01*
X3994508Y5232892D01*
X4008196Y5250731D01*
X4016802Y5271506D01*
X4019737Y5293800D01*
Y5296100D01*
X3933600D01*
X3847463D01*
Y5293800D01*
X3850398Y5271506D01*
X3859003Y5250731D01*
X3872692Y5232892D01*
X3890531Y5219203D01*
X3899054Y5215673D01*
X3899054Y5201927D01*
X3890532Y5198397D01*
X3872692Y5184708D01*
X3859003Y5166869D01*
X3850398Y5146094D01*
X3847463Y5123800D01*
Y5093800D01*
X3850398Y5071506D01*
X3859003Y5050732D01*
X3872692Y5032892D01*
X3890532Y5019204D01*
X3894753Y5017455D01*
Y4571166D01*
X3045931Y3722344D01*
X3037511Y3709741D01*
X3034553Y3694875D01*
Y1767479D01*
X3037511Y1752613D01*
X3045931Y1740010D01*
X3060810Y1725131D01*
X3073413Y1716711D01*
X3088279Y1713753D01*
X3320000D01*
Y1560900D01*
X3670800D01*
Y1960953D01*
X3670800Y1961700D01*
X3672602Y1973654D01*
X3829199D01*
Y1287446D01*
X3670800D01*
Y1461700D01*
X3320000D01*
Y1067547D01*
X3320000Y1060900D01*
X3309807Y1054847D01*
X3089491D01*
X3010647Y1133691D01*
Y3946309D01*
X3773969Y4709631D01*
X3782389Y4722234D01*
X3785347Y4737100D01*
Y5025863D01*
X3794508Y5032892D01*
X3808196Y5050732D01*
X3816802Y5071506D01*
X3819737Y5093800D01*
Y5123800D01*
X3816802Y5146094D01*
X3808196Y5166869D01*
X3794508Y5184708D01*
X3776668Y5198397D01*
X3768146Y5201927D01*
X3768146Y5215673D01*
X3776668Y5219203D01*
X3794508Y5232892D01*
X3808196Y5250731D01*
X3816802Y5271506D01*
X3819737Y5293800D01*
Y5296100D01*
X3733600D01*
X3647463D01*
Y5293800D01*
X3650398Y5271506D01*
X3659003Y5250731D01*
X3672692Y5232892D01*
X3690531Y5219203D01*
X3699054Y5215673D01*
X3699054Y5201927D01*
X3690532Y5198397D01*
X3672692Y5184708D01*
X3659003Y5166869D01*
X3650398Y5146094D01*
X3647463Y5123800D01*
Y5093800D01*
X3650398Y5071506D01*
X3659003Y5050732D01*
X3672692Y5032892D01*
X3690532Y5019204D01*
X3707653Y5012111D01*
Y4753191D01*
X2944331Y3989869D01*
X2935911Y3977266D01*
X2932953Y3962400D01*
Y1271123D01*
X2920253Y1265863D01*
X2906477Y1279639D01*
X2886747Y1291030D01*
Y1673581D01*
X2883790Y1688447D01*
X2875369Y1701050D01*
X2159550Y2416868D01*
X2146948Y2425289D01*
X2132082Y2428246D01*
X1938990D01*
Y2512602D01*
X2398800D01*
X2408710Y2514574D01*
X2417112Y2520187D01*
X2418612Y2521688D01*
X2424226Y2530089D01*
X2426198Y2540000D01*
Y2819400D01*
X2424226Y2829311D01*
X2418612Y2837712D01*
X2410211Y2843326D01*
X2400300Y2845298D01*
X2346504D01*
X2336000Y2850600D01*
X2336000Y2857998D01*
Y2908300D01*
X2260600D01*
X2185200D01*
Y2857998D01*
X2185200Y2850600D01*
X2174696Y2845298D01*
X1154900D01*
Y2848600D01*
X1079500D01*
X1004100D01*
Y2845298D01*
X964400D01*
Y2906300D01*
X901700D01*
Y2835900D01*
X876300D01*
Y2906300D01*
X813600D01*
Y2845298D01*
X750068D01*
X743279Y2857998D01*
X746346Y2862588D01*
X749094Y2876400D01*
Y2933700D01*
X703000D01*
Y2946400D01*
X690300D01*
Y3051956D01*
X686547Y3051210D01*
X673847Y3060288D01*
Y3247809D01*
X700569Y3274531D01*
X708989Y3287134D01*
X711947Y3302000D01*
Y3498300D01*
X748500D01*
Y3639100D01*
X597700D01*
Y3537831D01*
X585967Y3532971D01*
X419847Y3699091D01*
Y3928223D01*
X431580Y3933083D01*
X531331Y3833331D01*
X543934Y3824911D01*
X558800Y3821953D01*
X606209D01*
X617330Y3810833D01*
X612469Y3799100D01*
X597700D01*
Y3658300D01*
X748500D01*
Y3799100D01*
X711947D01*
Y3810000D01*
X708989Y3824866D01*
X700569Y3837469D01*
X649769Y3888269D01*
X637166Y3896689D01*
X622300Y3899647D01*
X574891D01*
X470647Y4003891D01*
Y4076782D01*
X473500Y4088300D01*
X483347Y4088300D01*
X543700D01*
Y4203700D01*
Y4319100D01*
X473500Y4319100D01*
X470647Y4330618D01*
Y4736488D01*
X483347Y4743276D01*
X488179Y4740047D01*
X508000Y4736105D01*
X558800D01*
X578621Y4740047D01*
X595425Y4751275D01*
X606653Y4768079D01*
X610595Y4787900D01*
Y4965700D01*
X606653Y4985521D01*
X595425Y5002325D01*
X578621Y5013553D01*
X558800Y5017495D01*
X508000D01*
X488179Y5013553D01*
X483347Y5010324D01*
X470647Y5017112D01*
Y5245693D01*
X559622Y5334669D01*
X572855Y5329941D01*
X577558Y5312386D01*
X589262Y5292114D01*
X605814Y5275562D01*
X626086Y5263858D01*
X648696Y5257800D01*
X672104D01*
X694714Y5263858D01*
X714986Y5275562D01*
X731538Y5292114D01*
X743242Y5312386D01*
X749300Y5334996D01*
Y5358404D01*
X743242Y5381014D01*
X731538Y5401286D01*
X714986Y5417838D01*
X694714Y5429542D01*
X677159Y5434245D01*
X672431Y5447478D01*
X814869Y5589915D01*
X823289Y5602518D01*
X826247Y5617384D01*
Y5678579D01*
X832621Y5679847D01*
X849425Y5691075D01*
X860653Y5707879D01*
X864595Y5727700D01*
Y5905500D01*
X860653Y5925321D01*
X849425Y5942125D01*
X832621Y5953353D01*
X812800Y5957295D01*
X762000D01*
X742179Y5953353D01*
X725375Y5942125D01*
X714147Y5925321D01*
X710205Y5905500D01*
Y5727700D01*
X714147Y5707879D01*
X725375Y5691075D01*
X742179Y5679847D01*
X748553Y5678579D01*
Y5633475D01*
X584306Y5469227D01*
X575592Y5472459D01*
X572247Y5475128D01*
Y5678579D01*
X578621Y5679847D01*
X595425Y5691075D01*
X606653Y5707879D01*
X610595Y5727700D01*
Y5905500D01*
X606653Y5925321D01*
X595425Y5942125D01*
X578621Y5953353D01*
X558800Y5957295D01*
X508000D01*
X488179Y5953353D01*
X471375Y5942125D01*
X460147Y5925321D01*
X456205Y5905500D01*
Y5727700D01*
X460147Y5707879D01*
X471375Y5691075D01*
X488179Y5679847D01*
X494553Y5678579D01*
Y5489791D01*
X353531Y5348769D01*
X345111Y5336166D01*
X342153Y5321300D01*
Y4330618D01*
X339300Y4319100D01*
X257518D01*
X252658Y4330833D01*
X260579Y4338754D01*
X266193Y4347156D01*
X268164Y4357067D01*
X266193Y4366977D01*
X261333Y4378710D01*
X261333Y4378711D01*
X255719Y4387112D01*
X247317Y4392727D01*
X237406Y4394698D01*
X101600D01*
X91689Y4392726D01*
X85076Y4388307D01*
X77921Y4390348D01*
X72400Y4393677D01*
X80889Y6295126D01*
X4923526D01*
D02*
G37*
G36*
X4635500Y3060700D02*
X4622800Y3048000D01*
X5918200D01*
Y355600D01*
X698500D01*
X635000Y419100D01*
Y2057400D01*
X152400Y2540000D01*
D01*
X101600Y2590800D01*
Y4368800D01*
X237406D01*
X242267Y4357067D01*
X204300Y4319100D01*
X173500D01*
Y4216400D01*
X256400D01*
Y4191000D01*
X173500D01*
Y4088300D01*
X203200D01*
Y2819400D01*
X216700D01*
Y2803600D01*
X367500D01*
Y2819400D01*
X813600D01*
Y2765500D01*
X964400D01*
Y2819400D01*
X1004100D01*
Y2790900D01*
X1154900D01*
Y2819400D01*
X2185200D01*
Y2773701D01*
X2260600D01*
X2336000D01*
Y2819400D01*
X2400300D01*
Y2540000D01*
X2398800Y2538500D01*
X1938990D01*
Y2546700D01*
X1935466Y2564414D01*
X1925432Y2579432D01*
X1910414Y2589466D01*
X1892700Y2592989D01*
X1874986Y2589466D01*
X1860200Y2579586D01*
X1845414Y2589466D01*
X1827700Y2592989D01*
X1809986Y2589466D01*
X1795200Y2579587D01*
X1780414Y2589466D01*
X1762700Y2592989D01*
X1744986Y2589466D01*
X1730200Y2579586D01*
X1715414Y2589466D01*
X1697700Y2592989D01*
X1679986Y2589466D01*
X1665200Y2579587D01*
X1650414Y2589466D01*
X1632700Y2592989D01*
X1614986Y2589466D01*
X1600200Y2579586D01*
X1585414Y2589466D01*
X1567700Y2592989D01*
X1549986Y2589466D01*
X1535200Y2579587D01*
X1520414Y2589466D01*
X1502700Y2592989D01*
X1484986Y2589466D01*
X1470200Y2579586D01*
X1455414Y2589466D01*
X1437700Y2592989D01*
X1419986Y2589466D01*
X1405200Y2579587D01*
X1390414Y2589466D01*
X1372700Y2592989D01*
X1354986Y2589466D01*
X1340200Y2579586D01*
X1325414Y2589466D01*
X1320400Y2590463D01*
Y2461700D01*
X1295000D01*
Y2590463D01*
X1289986Y2589466D01*
X1274968Y2579432D01*
X1264934Y2564414D01*
X1261410Y2546700D01*
Y2538500D01*
X749147D01*
Y2599100D01*
X749094Y2599367D01*
Y2676400D01*
X746346Y2690212D01*
X738522Y2701922D01*
X726813Y2709746D01*
X713000Y2712493D01*
X693000D01*
X679188Y2709746D01*
X670500Y2703941D01*
X661812Y2709746D01*
X648000Y2712493D01*
X628000D01*
X614188Y2709746D01*
X605500Y2703941D01*
X596812Y2709746D01*
X583000Y2712493D01*
X563000D01*
X549188Y2709746D01*
X540500Y2703941D01*
X531812Y2709746D01*
X520700Y2711956D01*
Y2606400D01*
Y2500844D01*
X531812Y2503054D01*
X540500Y2508859D01*
X549188Y2503054D01*
X563000Y2500307D01*
X583000D01*
X586453Y2500994D01*
X599154Y2490571D01*
Y2435400D01*
X602111Y2420534D01*
X610532Y2407931D01*
X863600Y2154863D01*
Y533400D01*
X5549900D01*
Y560900D01*
X5620800D01*
Y748600D01*
X5445400D01*
Y774000D01*
X5620800D01*
Y961700D01*
X5549900D01*
Y1060900D01*
X5620800D01*
Y1461700D01*
X5549900D01*
Y1560900D01*
X5620800D01*
Y1748600D01*
X5445400D01*
Y1774000D01*
X5620800D01*
Y1961700D01*
X5549900D01*
Y2060900D01*
X5620800D01*
Y2461700D01*
X5549900D01*
Y2489200D01*
X5245100Y2794000D01*
X4343400D01*
Y2909100D01*
X4417600D01*
Y2971800D01*
X4347200D01*
Y2997200D01*
X4417600D01*
Y3059900D01*
X4343400D01*
Y3136900D01*
X4445000Y3238500D01*
Y5016500D01*
Y5051352D01*
X4457700Y5053879D01*
X4459004Y5050732D01*
X4472692Y5032892D01*
X4490532Y5019204D01*
X4511306Y5010598D01*
X4520900Y5009335D01*
Y5108800D01*
X4533600D01*
Y5121500D01*
X4619737D01*
Y5123800D01*
X4616802Y5146094D01*
X4608197Y5166868D01*
X4605633Y5170210D01*
X4611250Y5181600D01*
X4635500D01*
Y3060700D01*
D02*
G37*
G36*
X339300Y4088300D02*
X342153Y4076782D01*
Y3683000D01*
X345111Y3668134D01*
X353531Y3655531D01*
X534154Y3474909D01*
Y3051800D01*
X520700D01*
Y2946400D01*
X508000D01*
Y2933700D01*
X462600D01*
Y2845298D01*
X367500D01*
Y2861300D01*
X292100D01*
Y2874000D01*
X279400D01*
Y2944400D01*
X229098D01*
Y4088300D01*
X339300D01*
D02*
G37*
G36*
X1209053Y1949110D02*
Y1291030D01*
X1189322Y1279639D01*
X1171561Y1261877D01*
X1159001Y1240123D01*
X1155999Y1228921D01*
X1143299Y1230592D01*
Y1298700D01*
X1086746D01*
Y1462500D01*
X1129500D01*
Y1603300D01*
X978700D01*
Y1462500D01*
X1009053D01*
Y1298700D01*
X952499D01*
Y1107900D01*
X1020607D01*
X1022279Y1095200D01*
X1011076Y1092198D01*
X989322Y1079639D01*
X971560Y1061877D01*
X959001Y1040123D01*
X952537Y1016000D01*
X1047899D01*
Y1003300D01*
X1060599D01*
Y907938D01*
X1084722Y914402D01*
X1106476Y926961D01*
X1124238Y944723D01*
X1136798Y966477D01*
X1141325Y983374D01*
X1154473D01*
X1159001Y966477D01*
X1171561Y944723D01*
X1189322Y926961D01*
X1211077Y914402D01*
X1235199Y907938D01*
Y1003300D01*
X1260599D01*
Y907938D01*
X1284722Y914402D01*
X1306476Y926961D01*
X1324238Y944723D01*
X1336798Y966477D01*
X1341325Y983374D01*
X1354474D01*
X1359001Y966477D01*
X1371561Y944723D01*
X1389323Y926961D01*
X1411077Y914402D01*
X1435200Y907938D01*
Y1003300D01*
X1460600D01*
Y907938D01*
X1484722Y914402D01*
X1506477Y926961D01*
X1524239Y944723D01*
X1536798Y966477D01*
X1541326Y983374D01*
X1554474D01*
X1559001Y966477D01*
X1571561Y944723D01*
X1589323Y926961D01*
X1611077Y914402D01*
X1635200Y907938D01*
Y1003300D01*
X1660600D01*
Y907938D01*
X1684723Y914402D01*
X1706477Y926961D01*
X1724239Y944723D01*
X1736798Y966477D01*
X1741326Y983374D01*
X1754474D01*
X1759001Y966477D01*
X1771561Y944723D01*
X1789323Y926961D01*
X1811077Y914402D01*
X1835200Y907938D01*
Y1003300D01*
X1860600D01*
Y907938D01*
X1884723Y914402D01*
X1906477Y926961D01*
X1924239Y944723D01*
X1936798Y966477D01*
X1941326Y983374D01*
X1954474D01*
X1959001Y966477D01*
X1971561Y944723D01*
X1989323Y926961D01*
X2011077Y914402D01*
X2035200Y907938D01*
Y1003300D01*
X2060600D01*
Y907938D01*
X2084723Y914402D01*
X2106477Y926961D01*
X2124239Y944723D01*
X2136798Y966477D01*
X2141326Y983374D01*
X2154474D01*
X2159002Y966477D01*
X2171561Y944723D01*
X2189323Y926961D01*
X2211077Y914402D01*
X2235200Y907938D01*
Y1003300D01*
X2260600D01*
Y907938D01*
X2284723Y914402D01*
X2306477Y926961D01*
X2324239Y944723D01*
X2336798Y966477D01*
X2341326Y983374D01*
X2354474D01*
X2359002Y966477D01*
X2371561Y944723D01*
X2389323Y926961D01*
X2411077Y914402D01*
X2435200Y907938D01*
Y1003300D01*
X2460600D01*
Y907938D01*
X2484723Y914402D01*
X2506477Y926961D01*
X2524239Y944723D01*
X2536799Y966477D01*
X2541326Y983374D01*
X2554474D01*
X2559002Y966477D01*
X2571561Y944723D01*
X2589323Y926961D01*
X2611077Y914402D01*
X2635200Y907938D01*
Y1003300D01*
X2660600D01*
Y907938D01*
X2684723Y914402D01*
X2706477Y926961D01*
X2724239Y944723D01*
X2736799Y966477D01*
X2741326Y983374D01*
X2754474D01*
X2759002Y966477D01*
X2771561Y944723D01*
X2789323Y926961D01*
X2811077Y914402D01*
X2835200Y907938D01*
Y1003300D01*
X2847900D01*
Y1016000D01*
X2943263D01*
X2936799Y1040123D01*
X2924239Y1061877D01*
X2906477Y1079639D01*
X2884723Y1092198D01*
X2867826Y1096726D01*
Y1109874D01*
X2884723Y1114402D01*
X2906477Y1126961D01*
X2920253Y1140737D01*
X2932953Y1135477D01*
Y1117600D01*
X2935911Y1102734D01*
X2944331Y1090131D01*
X3045931Y988531D01*
X3058534Y980111D01*
X3073400Y977153D01*
X3924300D01*
X3939166Y980111D01*
X3951769Y988531D01*
X4443818Y1480581D01*
X4452239Y1493184D01*
X4455196Y1508050D01*
Y1924359D01*
X4740590Y2209754D01*
X5270000D01*
Y2060900D01*
X5524002D01*
Y1961700D01*
X5270000D01*
Y1560900D01*
X5524002D01*
Y1461700D01*
X5458100D01*
Y1261300D01*
Y1060900D01*
X5524002D01*
Y961700D01*
X5270000D01*
Y560900D01*
X5257964Y559298D01*
X3682836D01*
X3670800Y560900D01*
X3670800Y571998D01*
Y748600D01*
X3320000D01*
Y571998D01*
X3320000Y560900D01*
X3307964Y559298D01*
X889498D01*
Y2112372D01*
X901231Y2117232D01*
X1027953Y1990509D01*
Y1763300D01*
X978700D01*
Y1622500D01*
X1129500D01*
Y1763300D01*
X1105647D01*
Y2006600D01*
X1102689Y2021466D01*
X1094269Y2034069D01*
X676847Y2451490D01*
Y2463355D01*
X689547Y2468616D01*
X1209053Y1949110D01*
D02*
G37*
G36*
X1625710Y2068031D02*
X1638313Y2059611D01*
X1653179Y2056653D01*
X1749209D01*
X2009053Y1796809D01*
Y1291030D01*
X1989323Y1279639D01*
X1971561Y1261877D01*
X1959001Y1240123D01*
X1954474Y1223226D01*
X1941326D01*
X1936798Y1240123D01*
X1924239Y1261877D01*
X1906477Y1279639D01*
X1886746Y1291030D01*
Y1458700D01*
X1916900D01*
Y1599500D01*
X1766100D01*
Y1458700D01*
X1809053D01*
Y1291030D01*
X1789323Y1279639D01*
X1771561Y1261877D01*
X1759001Y1240123D01*
X1754474Y1223226D01*
X1741326D01*
X1736798Y1240123D01*
X1724239Y1261877D01*
X1706477Y1279639D01*
X1686746Y1291030D01*
Y1781100D01*
X1683789Y1795966D01*
X1675368Y1808569D01*
X1541547Y1942391D01*
Y1981023D01*
X1553280Y1985883D01*
X1572731Y1966431D01*
X1585334Y1958011D01*
X1600200Y1955053D01*
X1660309D01*
X1802653Y1812709D01*
Y1759500D01*
X1766100D01*
Y1618700D01*
X1916900D01*
Y1759500D01*
X1880347D01*
Y1828800D01*
X1877389Y1843666D01*
X1868969Y1856269D01*
X1703869Y2021369D01*
X1691266Y2029789D01*
X1676400Y2032747D01*
X1616291D01*
X1606546Y2042491D01*
Y2070602D01*
X1618280Y2075462D01*
X1625710Y2068031D01*
D02*
G37*
G36*
X1261410Y2376700D02*
X1264934Y2358986D01*
X1274968Y2343968D01*
X1289986Y2333934D01*
X1307700Y2330410D01*
X1325414Y2333934D01*
X1340200Y2343813D01*
X1354986Y2333934D01*
X1360000Y2332936D01*
Y2461700D01*
X1385400D01*
Y2332936D01*
X1386153Y2333086D01*
X1398853Y2325461D01*
Y1763300D01*
X1372400D01*
Y1622500D01*
X1523200D01*
Y1763300D01*
X1476546D01*
Y1880923D01*
X1488280Y1885783D01*
X1609053Y1765010D01*
Y1291030D01*
X1589323Y1279639D01*
X1571561Y1261877D01*
X1559001Y1240123D01*
X1554474Y1223226D01*
X1541326D01*
X1536798Y1240123D01*
X1524239Y1261877D01*
X1506477Y1279639D01*
X1486746Y1291030D01*
Y1462500D01*
X1523200D01*
Y1603300D01*
X1372400D01*
Y1462500D01*
X1409053D01*
Y1291030D01*
X1389323Y1279639D01*
X1371561Y1261877D01*
X1359001Y1240123D01*
X1354474Y1223226D01*
X1341325D01*
X1336798Y1240123D01*
X1324238Y1261877D01*
X1306476Y1279639D01*
X1286746Y1291030D01*
Y1965201D01*
X1283789Y1980066D01*
X1275368Y1992669D01*
X767168Y2500869D01*
X772028Y2512602D01*
X1261410D01*
Y2376700D01*
D02*
G37*
G36*
X2581759Y1795603D02*
X2578900Y1788699D01*
X2578900D01*
Y1647900D01*
X2729700D01*
Y1720251D01*
X2741433Y1725111D01*
X2809054Y1657491D01*
Y1291030D01*
X2789323Y1279639D01*
X2771561Y1261877D01*
X2759002Y1240123D01*
X2754474Y1223226D01*
X2741326D01*
X2736799Y1240123D01*
X2724239Y1261877D01*
X2706477Y1279639D01*
X2686747Y1291030D01*
Y1487900D01*
X2729700D01*
Y1628700D01*
X2578900D01*
Y1487900D01*
X2609054D01*
Y1291030D01*
X2589323Y1279639D01*
X2571561Y1261877D01*
X2559002Y1240123D01*
X2554474Y1223226D01*
X2541326D01*
X2536799Y1240123D01*
X2524239Y1261877D01*
X2506477Y1279639D01*
X2486747Y1291030D01*
Y1679600D01*
X2483790Y1694466D01*
X2475369Y1707068D01*
X1959717Y2222720D01*
X1964577Y2234453D01*
X2142909D01*
X2581759Y1795603D01*
D02*
G37*
G36*
X2186063Y1797600D02*
X2180802Y1784900D01*
X2172500D01*
Y1644100D01*
X2323300D01*
Y1732669D01*
X2335033Y1737530D01*
X2409054Y1663509D01*
Y1291030D01*
X2389323Y1279639D01*
X2371561Y1261877D01*
X2359002Y1240123D01*
X2354474Y1223226D01*
X2341326D01*
X2336798Y1240123D01*
X2324239Y1261877D01*
X2306477Y1279639D01*
X2286747Y1291030D01*
Y1484100D01*
X2323300D01*
Y1624900D01*
X2172500D01*
Y1484100D01*
X2209053D01*
Y1291030D01*
X2189323Y1279639D01*
X2171561Y1261877D01*
X2159002Y1240123D01*
X2154474Y1223226D01*
X2141326D01*
X2136798Y1240123D01*
X2124239Y1261877D01*
X2106477Y1279639D01*
X2086746Y1291030D01*
Y1812900D01*
X2083789Y1827766D01*
X2075368Y1840369D01*
X1795584Y2120153D01*
X1799065Y2131260D01*
X1800275Y2132853D01*
X1850809D01*
X2186063Y1797600D01*
D02*
G37*
G36*
X4416007Y5046659D02*
X4419102Y5045044D01*
Y5016500D01*
Y3249227D01*
X4325088Y3155212D01*
X4319474Y3146811D01*
X4317502Y3136900D01*
Y3059900D01*
X4276800D01*
Y2909100D01*
X4317502D01*
Y2794000D01*
X4319474Y2784089D01*
X4325088Y2775688D01*
X4333489Y2770074D01*
X4343400Y2768102D01*
X5234373D01*
X5524002Y2478473D01*
Y2461700D01*
X5270000D01*
Y2287447D01*
X4724500D01*
X4709634Y2284489D01*
X4697031Y2276069D01*
X4388881Y1967919D01*
X4380460Y1955316D01*
X4377503Y1940450D01*
Y1524140D01*
X3908209Y1054847D01*
X3680993D01*
X3670800Y1060900D01*
X3670800Y1067547D01*
Y1209753D01*
X3853166D01*
X3868032Y1212711D01*
X3880635Y1221131D01*
X3895514Y1236010D01*
X3903935Y1248613D01*
X3906892Y1263479D01*
Y1997621D01*
X3903935Y2012487D01*
X3895514Y2025090D01*
X3880635Y2039969D01*
X3868032Y2048390D01*
X3853166Y2051347D01*
X3678397D01*
X3670800Y2060900D01*
X3670800Y2064047D01*
Y2461700D01*
X3518647D01*
Y3374809D01*
X4361069Y4217231D01*
X4369489Y4229834D01*
X4372446Y4244700D01*
Y5017455D01*
X4376668Y5019204D01*
X4394508Y5032892D01*
X4406402Y5048394D01*
X4416007Y5046659D01*
D02*
G37*
%LPC*%
G36*
X2590800Y5957295D02*
X2578100D01*
Y5829300D01*
X2642595D01*
Y5905500D01*
X2638653Y5925321D01*
X2627425Y5942125D01*
X2610621Y5953353D01*
X2590800Y5957295D01*
D02*
G37*
G36*
X2082800D02*
X2070100D01*
Y5829300D01*
X2134595D01*
Y5905500D01*
X2130653Y5925321D01*
X2119425Y5942125D01*
X2102621Y5953353D01*
X2082800Y5957295D01*
D02*
G37*
G36*
X1574800D02*
X1562100D01*
Y5829300D01*
X1626595D01*
Y5905500D01*
X1622653Y5925321D01*
X1611425Y5942125D01*
X1594621Y5953353D01*
X1574800Y5957295D01*
D02*
G37*
G36*
X1066800D02*
X1054100D01*
Y5829300D01*
X1118595D01*
Y5905500D01*
X1114653Y5925321D01*
X1103425Y5942125D01*
X1086621Y5953353D01*
X1066800Y5957295D01*
D02*
G37*
G36*
X2552700D02*
X2540000D01*
X2520179Y5953353D01*
X2503375Y5942125D01*
X2492147Y5925321D01*
X2488205Y5905500D01*
Y5829300D01*
X2552700D01*
Y5957295D01*
D02*
G37*
G36*
X2044700D02*
X2032000D01*
X2012179Y5953353D01*
X1995375Y5942125D01*
X1984147Y5925321D01*
X1980205Y5905500D01*
Y5829300D01*
X2044700D01*
Y5957295D01*
D02*
G37*
G36*
X1536700D02*
X1524000D01*
X1504179Y5953353D01*
X1487375Y5942125D01*
X1476147Y5925321D01*
X1472205Y5905500D01*
Y5829300D01*
X1536700D01*
Y5957295D01*
D02*
G37*
G36*
X1028700D02*
X1016000D01*
X996179Y5953353D01*
X979375Y5942125D01*
X968147Y5925321D01*
X964205Y5905500D01*
Y5829300D01*
X1028700D01*
Y5957295D01*
D02*
G37*
G36*
X2642595Y5803900D02*
X2578100D01*
Y5675905D01*
X2590800D01*
X2610621Y5679847D01*
X2627425Y5691075D01*
X2638653Y5707879D01*
X2642595Y5727700D01*
Y5803900D01*
D02*
G37*
G36*
X2552700D02*
X2488205D01*
Y5727700D01*
X2492147Y5707879D01*
X2503375Y5691075D01*
X2520179Y5679847D01*
X2540000Y5675905D01*
X2552700D01*
Y5803900D01*
D02*
G37*
G36*
X2134595D02*
X2070100D01*
Y5675905D01*
X2082800D01*
X2102621Y5679847D01*
X2119425Y5691075D01*
X2130653Y5707879D01*
X2134595Y5727700D01*
Y5803900D01*
D02*
G37*
G36*
X2044700D02*
X1980205D01*
Y5727700D01*
X1984147Y5707879D01*
X1995375Y5691075D01*
X2012179Y5679847D01*
X2032000Y5675905D01*
X2044700D01*
Y5803900D01*
D02*
G37*
G36*
X1626595D02*
X1562100D01*
Y5675905D01*
X1574800D01*
X1594621Y5679847D01*
X1611425Y5691075D01*
X1622653Y5707879D01*
X1626595Y5727700D01*
Y5803900D01*
D02*
G37*
G36*
X1536700D02*
X1472205D01*
Y5727700D01*
X1476147Y5707879D01*
X1487375Y5691075D01*
X1504179Y5679847D01*
X1524000Y5675905D01*
X1536700D01*
Y5803900D01*
D02*
G37*
G36*
X1118595D02*
X1054100D01*
Y5675905D01*
X1066800D01*
X1086621Y5679847D01*
X1103425Y5691075D01*
X1114653Y5707879D01*
X1118595Y5727700D01*
Y5803900D01*
D02*
G37*
G36*
X1028700D02*
X964205D01*
Y5727700D01*
X968147Y5707879D01*
X979375Y5691075D01*
X996179Y5679847D01*
X1016000Y5675905D01*
X1028700D01*
Y5803900D01*
D02*
G37*
G36*
X3346300Y5408265D02*
Y5321500D01*
X3419737D01*
Y5323800D01*
X3416802Y5346094D01*
X3408196Y5366868D01*
X3394508Y5384708D01*
X3376668Y5398396D01*
X3355894Y5407002D01*
X3346300Y5408265D01*
D02*
G37*
G36*
X4346300Y5408265D02*
Y5321500D01*
X4419737D01*
Y5323800D01*
X4416802Y5346094D01*
X4408196Y5366868D01*
X4394508Y5384708D01*
X4376668Y5398397D01*
X4355894Y5407002D01*
X4346300Y5408265D01*
D02*
G37*
G36*
X4320900Y5408265D02*
X4311306Y5407002D01*
X4290532Y5398397D01*
X4272692Y5384708D01*
X4259003Y5366868D01*
X4250398Y5346094D01*
X4247463Y5323800D01*
Y5321500D01*
X4320900D01*
Y5408265D01*
D02*
G37*
G36*
X3320900D02*
X3311306Y5407002D01*
X3290531Y5398396D01*
X3272692Y5384708D01*
X3259003Y5366868D01*
X3250398Y5346094D01*
X3247463Y5323800D01*
Y5321500D01*
X3320900D01*
Y5408265D01*
D02*
G37*
G36*
X4146300Y5408265D02*
Y5321500D01*
X4219737D01*
Y5323800D01*
X4216802Y5346094D01*
X4208197Y5366868D01*
X4194508Y5384708D01*
X4176669Y5398396D01*
X4155894Y5407002D01*
X4146300Y5408265D01*
D02*
G37*
G36*
X3946300D02*
Y5321500D01*
X4019737D01*
Y5323800D01*
X4016802Y5346094D01*
X4008196Y5366868D01*
X3994508Y5384708D01*
X3976668Y5398396D01*
X3955894Y5407002D01*
X3946300Y5408265D01*
D02*
G37*
G36*
X3746300D02*
Y5321500D01*
X3819737D01*
Y5323800D01*
X3816802Y5346094D01*
X3808196Y5366868D01*
X3794508Y5384708D01*
X3776668Y5398396D01*
X3755894Y5407002D01*
X3746300Y5408265D01*
D02*
G37*
G36*
X4120900Y5408265D02*
X4111306Y5407002D01*
X4090532Y5398396D01*
X4072692Y5384708D01*
X4059004Y5366868D01*
X4050398Y5346094D01*
X4047463Y5323800D01*
Y5321500D01*
X4120900D01*
Y5408265D01*
D02*
G37*
G36*
X3920900D02*
X3911306Y5407002D01*
X3890531Y5398396D01*
X3872692Y5384708D01*
X3859003Y5366868D01*
X3850398Y5346094D01*
X3847463Y5323800D01*
Y5321500D01*
X3920900D01*
Y5408265D01*
D02*
G37*
G36*
X3720900D02*
X3711306Y5407002D01*
X3690531Y5398396D01*
X3672692Y5384708D01*
X3659003Y5366868D01*
X3650398Y5346094D01*
X3647463Y5323800D01*
Y5321500D01*
X3720900D01*
Y5408265D01*
D02*
G37*
G36*
X3546301Y5408265D02*
Y5321500D01*
X3619737D01*
Y5323800D01*
X3616802Y5346094D01*
X3608196Y5366868D01*
X3594508Y5384708D01*
X3576668Y5398396D01*
X3555894Y5407002D01*
X3546301Y5408265D01*
D02*
G37*
G36*
X4563600Y5410285D02*
X4546300D01*
Y5321500D01*
X4620085D01*
Y5353800D01*
X4615786Y5375416D01*
X4603541Y5393741D01*
X4585216Y5405986D01*
X4563600Y5410285D01*
D02*
G37*
G36*
X3520901Y5408265D02*
X3511306Y5407002D01*
X3490531Y5398396D01*
X3472692Y5384708D01*
X3459003Y5366868D01*
X3450398Y5346094D01*
X3447463Y5323800D01*
Y5321500D01*
X3520901D01*
Y5408265D01*
D02*
G37*
G36*
X4520900Y5410285D02*
X4503600D01*
X4481984Y5405986D01*
X4463659Y5393741D01*
X4451415Y5375416D01*
X4447115Y5353800D01*
Y5321500D01*
X4520900D01*
Y5410285D01*
D02*
G37*
G36*
X2704104Y5435600D02*
X2680696D01*
X2658086Y5429542D01*
X2637814Y5417838D01*
X2621262Y5401286D01*
X2609558Y5381014D01*
X2603500Y5358404D01*
Y5334996D01*
X2609558Y5312386D01*
X2621262Y5292114D01*
X2637814Y5275562D01*
X2658086Y5263858D01*
X2680696Y5257800D01*
X2704104D01*
X2726714Y5263858D01*
X2746986Y5275562D01*
X2763538Y5292114D01*
X2775242Y5312386D01*
X2781300Y5334996D01*
Y5358404D01*
X2775242Y5381014D01*
X2763538Y5401286D01*
X2746986Y5417838D01*
X2726714Y5429542D01*
X2704104Y5435600D01*
D02*
G37*
G36*
X3619737Y5296100D02*
X3533601D01*
X3447463D01*
Y5293800D01*
X3450398Y5271506D01*
X3459003Y5250732D01*
X3472692Y5232892D01*
X3490531Y5219203D01*
X3499054Y5215673D01*
X3499054Y5201927D01*
X3490532Y5198397D01*
X3472692Y5184708D01*
X3459003Y5166868D01*
X3450398Y5146094D01*
X3447463Y5123800D01*
Y5093800D01*
X3450398Y5071506D01*
X3459003Y5050732D01*
X3472692Y5032892D01*
X3490532Y5019204D01*
X3511306Y5010598D01*
X3533600Y5007663D01*
X3555894Y5010598D01*
X3576668Y5019204D01*
X3594508Y5032892D01*
X3608196Y5050732D01*
X3616802Y5071506D01*
X3619737Y5093800D01*
Y5123800D01*
X3616802Y5146094D01*
X3608196Y5166868D01*
X3594508Y5184708D01*
X3576668Y5198397D01*
X3568146Y5201927D01*
X3568146Y5215673D01*
X3576668Y5219203D01*
X3594508Y5232892D01*
X3608196Y5250732D01*
X3616802Y5271506D01*
X3619737Y5293800D01*
Y5296100D01*
D02*
G37*
G36*
X3419737Y5296100D02*
X3333600D01*
X3247463D01*
Y5293800D01*
X3250398Y5271506D01*
X3259003Y5250732D01*
X3272692Y5232892D01*
X3290531Y5219203D01*
X3299054Y5215673D01*
Y5201927D01*
X3290532Y5198397D01*
X3272692Y5184708D01*
X3259004Y5166869D01*
X3250398Y5146094D01*
X3247463Y5123800D01*
Y5093800D01*
X3250398Y5071506D01*
X3259004Y5050732D01*
X3272692Y5032892D01*
X3290532Y5019204D01*
X3311306Y5010598D01*
X3333600Y5007663D01*
X3355894Y5010598D01*
X3376668Y5019204D01*
X3394508Y5032892D01*
X3408197Y5050732D01*
X3416802Y5071506D01*
X3419737Y5093800D01*
Y5123800D01*
X3416802Y5146094D01*
X3408197Y5166869D01*
X3394508Y5184708D01*
X3376668Y5198397D01*
X3368146Y5201927D01*
Y5215673D01*
X3376668Y5219203D01*
X3394508Y5232892D01*
X3408196Y5250732D01*
X3416802Y5271506D01*
X3419737Y5293800D01*
Y5296100D01*
D02*
G37*
G36*
X2590800Y5017495D02*
X2578100D01*
Y4889500D01*
X2642595D01*
Y4965700D01*
X2638653Y4985521D01*
X2627425Y5002325D01*
X2610621Y5013553D01*
X2590800Y5017495D01*
D02*
G37*
G36*
X2082800D02*
X2070100D01*
Y4889500D01*
X2134595D01*
Y4965700D01*
X2130653Y4985521D01*
X2119425Y5002325D01*
X2102621Y5013553D01*
X2082800Y5017495D01*
D02*
G37*
G36*
X1066800D02*
X1054100D01*
Y4889500D01*
X1118595D01*
Y4965700D01*
X1114653Y4985521D01*
X1103425Y5002325D01*
X1086621Y5013553D01*
X1066800Y5017495D01*
D02*
G37*
G36*
X2552700D02*
X2540000D01*
X2520179Y5013553D01*
X2503375Y5002325D01*
X2492147Y4985521D01*
X2488205Y4965700D01*
Y4889500D01*
X2552700D01*
Y5017495D01*
D02*
G37*
G36*
X2044700D02*
X2032000D01*
X2012179Y5013553D01*
X1995375Y5002325D01*
X1984147Y4985521D01*
X1980205Y4965700D01*
Y4889500D01*
X2044700D01*
Y5017495D01*
D02*
G37*
G36*
X1536700D02*
X1524000D01*
X1504179Y5013553D01*
X1487375Y5002325D01*
X1476147Y4985521D01*
X1472205Y4965700D01*
Y4889500D01*
X1536700D01*
Y5017495D01*
D02*
G37*
G36*
X1028700D02*
X1016000D01*
X996179Y5013553D01*
X979375Y5002325D01*
X968147Y4985521D01*
X964205Y4965700D01*
Y4889500D01*
X1028700D01*
Y5017495D01*
D02*
G37*
G36*
X2642595Y4864100D02*
X2578100D01*
Y4736105D01*
X2590800D01*
X2610621Y4740047D01*
X2627425Y4751275D01*
X2638653Y4768079D01*
X2642595Y4787900D01*
Y4864100D01*
D02*
G37*
G36*
X2552700D02*
X2488205D01*
Y4787900D01*
X2492147Y4768079D01*
X2503375Y4751275D01*
X2520179Y4740047D01*
X2540000Y4736105D01*
X2552700D01*
Y4864100D01*
D02*
G37*
G36*
X2134595D02*
X2070100D01*
Y4736105D01*
X2082800D01*
X2102621Y4740047D01*
X2119425Y4751275D01*
X2130653Y4768079D01*
X2134595Y4787900D01*
Y4864100D01*
D02*
G37*
G36*
X2044700D02*
X1980205D01*
Y4787900D01*
X1984147Y4768079D01*
X1995375Y4751275D01*
X2012179Y4740047D01*
X2032000Y4736105D01*
X2044700D01*
Y4864100D01*
D02*
G37*
G36*
X1536700D02*
X1472205D01*
Y4787900D01*
X1476147Y4768079D01*
X1487375Y4751275D01*
X1504179Y4740047D01*
X1524000Y4736105D01*
X1536700D01*
Y4864100D01*
D02*
G37*
G36*
X1118595D02*
X1054100D01*
Y4736105D01*
X1066800D01*
X1086621Y4740047D01*
X1103425Y4751275D01*
X1114653Y4768079D01*
X1118595Y4787900D01*
Y4864100D01*
D02*
G37*
G36*
X1028700D02*
X964205D01*
Y4787900D01*
X968147Y4768079D01*
X979375Y4751275D01*
X996179Y4740047D01*
X1016000Y4736105D01*
X1028700D01*
Y4864100D01*
D02*
G37*
G36*
X812800Y5017495D02*
X762000D01*
X742179Y5013553D01*
X725375Y5002325D01*
X714147Y4985521D01*
X710205Y4965700D01*
Y4787900D01*
X714147Y4768079D01*
X725375Y4751275D01*
X742179Y4740047D01*
X762000Y4736105D01*
X812800D01*
X832621Y4740047D01*
X849425Y4751275D01*
X860653Y4768079D01*
X864595Y4787900D01*
Y4965700D01*
X860653Y4985521D01*
X849425Y5002325D01*
X832621Y5013553D01*
X812800Y5017495D01*
D02*
G37*
G36*
X569100Y4319100D02*
Y4216400D01*
X639300D01*
Y4319100D01*
X569100D01*
D02*
G37*
G36*
X639300Y4191000D02*
X569100D01*
Y4088300D01*
X639300D01*
Y4191000D01*
D02*
G37*
G36*
X2336800Y5957295D02*
X2286000D01*
X2266179Y5953353D01*
X2249375Y5942125D01*
X2238147Y5925321D01*
X2234205Y5905500D01*
Y5727700D01*
X2238147Y5707879D01*
X2249375Y5691075D01*
X2266179Y5679847D01*
X2272553Y5678579D01*
Y5629491D01*
X2195031Y5551969D01*
X2186611Y5539366D01*
X2183653Y5524500D01*
Y4715091D01*
X1751331Y4282768D01*
X1742910Y4270166D01*
X1739953Y4255300D01*
Y3668881D01*
X1739100Y3668311D01*
X1726400Y3675100D01*
Y3733100D01*
X1601746D01*
Y3752300D01*
X1726400D01*
Y3893100D01*
X1689847D01*
Y4012766D01*
X1692026Y4023721D01*
X1689847Y4034676D01*
Y4245243D01*
X1830869Y4386265D01*
X1839289Y4398868D01*
X1842247Y4413733D01*
Y4738779D01*
X1848621Y4740047D01*
X1865425Y4751275D01*
X1876653Y4768079D01*
X1880595Y4787900D01*
Y4965700D01*
X1876653Y4985521D01*
X1865425Y5002325D01*
X1848621Y5013553D01*
X1828800Y5017495D01*
X1778000D01*
X1758179Y5013553D01*
X1741375Y5002325D01*
X1730147Y4985521D01*
X1726205Y4965700D01*
Y4787900D01*
X1730147Y4768079D01*
X1741375Y4751275D01*
X1758179Y4740047D01*
X1764553Y4738779D01*
Y4429824D01*
X1623531Y4288802D01*
X1615111Y4276199D01*
X1614446Y4272860D01*
X1601746Y4274111D01*
Y4442409D01*
X1678469Y4519131D01*
X1686889Y4531734D01*
X1689847Y4546600D01*
Y5279809D01*
X1830869Y5420831D01*
X1839289Y5433434D01*
X1842247Y5448300D01*
Y5678579D01*
X1848621Y5679847D01*
X1865425Y5691075D01*
X1876653Y5707879D01*
X1880595Y5727700D01*
Y5905500D01*
X1876653Y5925321D01*
X1865425Y5942125D01*
X1848621Y5953353D01*
X1828800Y5957295D01*
X1778000D01*
X1758179Y5953353D01*
X1741375Y5942125D01*
X1730147Y5925321D01*
X1726205Y5905500D01*
Y5727700D01*
X1730147Y5707879D01*
X1741375Y5691075D01*
X1758179Y5679847D01*
X1764553Y5678579D01*
Y5464391D01*
X1623531Y5323369D01*
X1615111Y5310766D01*
X1612153Y5295900D01*
Y5017112D01*
X1599453Y5010324D01*
X1594621Y5013553D01*
X1574800Y5017495D01*
X1562100D01*
Y4876800D01*
Y4736105D01*
X1574800D01*
X1594621Y4740047D01*
X1599453Y4743276D01*
X1612153Y4736488D01*
Y4562691D01*
X1535431Y4485968D01*
X1527010Y4473366D01*
X1524053Y4458500D01*
Y3676481D01*
X1523200Y3675911D01*
X1510500Y3682700D01*
Y3740700D01*
X1359700D01*
Y3612326D01*
X1359700Y3607773D01*
X1348765Y3598155D01*
X1345859Y3598296D01*
X1219947Y3724209D01*
Y4748513D01*
X1232647Y4752366D01*
X1233375Y4751275D01*
X1250179Y4740047D01*
X1256553Y4738779D01*
Y4305300D01*
X1259511Y4290434D01*
X1267931Y4277831D01*
X1383553Y4162209D01*
Y3900700D01*
X1359700D01*
Y3759900D01*
X1510500D01*
Y3900700D01*
X1461247D01*
Y4178300D01*
X1458289Y4193166D01*
X1449869Y4205769D01*
X1334247Y4321391D01*
Y4738779D01*
X1340621Y4740047D01*
X1357425Y4751275D01*
X1368653Y4768079D01*
X1372595Y4787900D01*
Y4965700D01*
X1368653Y4985521D01*
X1357425Y5002325D01*
X1340621Y5013553D01*
X1320800Y5017495D01*
X1270000D01*
X1250179Y5013553D01*
X1233375Y5002325D01*
X1232647Y5001234D01*
X1219947Y5005087D01*
Y5681550D01*
X1230514Y5691357D01*
X1233375Y5691075D01*
X1250179Y5679847D01*
X1270000Y5675905D01*
X1320800D01*
X1340621Y5679847D01*
X1357425Y5691075D01*
X1368653Y5707879D01*
X1372595Y5727700D01*
Y5905500D01*
X1368653Y5925321D01*
X1357425Y5942125D01*
X1340621Y5953353D01*
X1320800Y5957295D01*
X1270000D01*
X1250179Y5953353D01*
X1233375Y5942125D01*
X1222147Y5925321D01*
X1218205Y5905500D01*
Y5794342D01*
X1153631Y5729769D01*
X1145211Y5717166D01*
X1142253Y5702300D01*
Y3708118D01*
X1145211Y3693252D01*
X1153631Y3680649D01*
X1333854Y3500427D01*
Y3287939D01*
X1321153Y3280313D01*
X1320400Y3280463D01*
Y3151700D01*
Y3022936D01*
X1325414Y3023934D01*
X1340200Y3033813D01*
X1354986Y3023934D01*
X1372700Y3020410D01*
X1390414Y3023934D01*
X1405200Y3033813D01*
X1419986Y3023934D01*
X1437700Y3020410D01*
X1455414Y3023934D01*
X1470200Y3033813D01*
X1484986Y3023934D01*
X1502700Y3020410D01*
X1520414Y3023934D01*
X1535200Y3033813D01*
X1549986Y3023934D01*
X1567700Y3020410D01*
X1585414Y3023934D01*
X1600200Y3033813D01*
X1614986Y3023934D01*
X1632700Y3020410D01*
X1650414Y3023934D01*
X1665200Y3033813D01*
X1679986Y3023934D01*
X1697700Y3020410D01*
X1715414Y3023934D01*
X1730200Y3033813D01*
X1744986Y3023934D01*
X1762700Y3020410D01*
X1780414Y3023934D01*
X1795200Y3033813D01*
X1809986Y3023934D01*
X1827700Y3020410D01*
X1845414Y3023934D01*
X1860200Y3033813D01*
X1874986Y3023934D01*
X1880001Y3022936D01*
Y3151700D01*
Y3280602D01*
X1869483Y3287901D01*
X1868541Y3299504D01*
X2110269Y3541231D01*
X2118689Y3553834D01*
X2121647Y3568700D01*
Y3599900D01*
X2158200D01*
Y3740700D01*
X2020047D01*
Y3759900D01*
X2158200D01*
Y3900700D01*
X2121647D01*
Y3933609D01*
X2846869Y4658831D01*
X2855289Y4671434D01*
X2858247Y4686300D01*
Y4738779D01*
X2864621Y4740047D01*
X2881425Y4751275D01*
X2892653Y4768079D01*
X2896595Y4787900D01*
Y4965700D01*
X2892653Y4985521D01*
X2881425Y5002325D01*
X2864621Y5013553D01*
X2844800Y5017495D01*
X2794000D01*
X2774179Y5013553D01*
X2757375Y5002325D01*
X2746147Y4985521D01*
X2742205Y4965700D01*
Y4787900D01*
X2746147Y4768079D01*
X2757375Y4751275D01*
X2774179Y4740047D01*
X2780553Y4738779D01*
Y4702391D01*
X2055331Y3977169D01*
X2046911Y3964566D01*
X2043953Y3949700D01*
Y3900700D01*
X2020047D01*
Y4035210D01*
X2440469Y4455631D01*
X2448889Y4468234D01*
X2451847Y4483100D01*
Y5330609D01*
X2632291Y5511053D01*
X2781300D01*
X2796166Y5514011D01*
X2808769Y5522431D01*
X2846869Y5560531D01*
X2855289Y5573134D01*
X2858247Y5588000D01*
Y5676900D01*
X2895600D01*
Y5956300D01*
X2743200D01*
Y5676900D01*
X2780553D01*
Y5604091D01*
X2765209Y5588747D01*
X2616200D01*
X2601334Y5585789D01*
X2588731Y5577369D01*
X2385531Y5374169D01*
X2377111Y5361566D01*
X2374153Y5346700D01*
Y5017112D01*
X2361453Y5010324D01*
X2356621Y5013553D01*
X2336800Y5017495D01*
X2286000D01*
X2274047Y5015117D01*
X2261347Y5024435D01*
Y5508409D01*
X2338869Y5585931D01*
X2347289Y5598534D01*
X2350247Y5613400D01*
Y5678579D01*
X2356621Y5679847D01*
X2373425Y5691075D01*
X2384653Y5707879D01*
X2388595Y5727700D01*
Y5905500D01*
X2384653Y5925321D01*
X2373425Y5942125D01*
X2356621Y5953353D01*
X2336800Y5957295D01*
D02*
G37*
G36*
X1905401Y3280463D02*
Y3164400D01*
X1938990D01*
Y3236700D01*
X1935466Y3254414D01*
X1925432Y3269432D01*
X1910414Y3279466D01*
X1905401Y3280463D01*
D02*
G37*
G36*
X1295000Y3280463D02*
X1289986Y3279466D01*
X1274968Y3269432D01*
X1264934Y3254414D01*
X1261410Y3236700D01*
Y3164400D01*
X1295000D01*
Y3280463D01*
D02*
G37*
G36*
X1938990Y3139000D02*
X1905401D01*
Y3022937D01*
X1910414Y3023934D01*
X1925432Y3033968D01*
X1935466Y3048986D01*
X1938990Y3066700D01*
Y3139000D01*
D02*
G37*
G36*
X1295000D02*
X1261410D01*
Y3066700D01*
X1264934Y3048986D01*
X1274968Y3033968D01*
X1289986Y3023934D01*
X1295000Y3022936D01*
Y3139000D01*
D02*
G37*
G36*
X715700Y3051956D02*
Y2959100D01*
X749094D01*
Y3016400D01*
X746346Y3030212D01*
X738522Y3041922D01*
X726813Y3049746D01*
X715700Y3051956D01*
D02*
G37*
G36*
X2336000Y2991400D02*
X2273300D01*
Y2933700D01*
X2336000D01*
Y2991400D01*
D02*
G37*
G36*
X2247900D02*
X2185200D01*
Y2933700D01*
X2247900D01*
Y2991400D01*
D02*
G37*
G36*
X1154900Y2931700D02*
X1092200D01*
Y2874000D01*
X1154900D01*
Y2931700D01*
D02*
G37*
G36*
X1066800D02*
X1004100D01*
Y2874000D01*
X1066800D01*
Y2931700D01*
D02*
G37*
%LPD*%
G36*
X2272553Y4690243D02*
Y4549991D01*
X1839431Y4116869D01*
X1831011Y4104266D01*
X1830346Y4100927D01*
X1817646Y4102178D01*
Y4239209D01*
X2249969Y4671531D01*
X2258389Y4684134D01*
X2259853Y4691494D01*
X2272553Y4690243D01*
D02*
G37*
G36*
X2374153Y4736488D02*
Y4499191D01*
X1953732Y4078769D01*
X1945311Y4066166D01*
X1942354Y4051300D01*
Y3905778D01*
X1942300Y3893100D01*
X1905747D01*
Y4073309D01*
X2338869Y4506431D01*
X2347289Y4519034D01*
X2350247Y4533900D01*
Y4738779D01*
X2356621Y4740047D01*
X2361453Y4743276D01*
X2374153Y4736488D01*
D02*
G37*
%LPC*%
G36*
X4619737Y5096100D02*
X4546300D01*
Y5009335D01*
X4555894Y5010598D01*
X4576668Y5019204D01*
X4594508Y5032892D01*
X4608197Y5050732D01*
X4616802Y5071506D01*
X4619737Y5093800D01*
Y5096100D01*
D02*
G37*
G36*
X367500Y2784400D02*
X304800D01*
Y2726700D01*
X367500D01*
Y2784400D01*
D02*
G37*
G36*
X279400D02*
X216700D01*
Y2726700D01*
X279400D01*
Y2784400D01*
D02*
G37*
G36*
X1154900Y2771700D02*
X1092200D01*
Y2714000D01*
X1154900D01*
Y2771700D01*
D02*
G37*
G36*
X1066800D02*
X1004100D01*
Y2714000D01*
X1066800D01*
Y2771700D01*
D02*
G37*
G36*
X2336000Y2748301D02*
X2273300D01*
Y2690600D01*
X2336000D01*
Y2748301D01*
D02*
G37*
G36*
X2247900D02*
X2185200D01*
Y2690600D01*
X2247900D01*
Y2748301D01*
D02*
G37*
G36*
X964400Y2746300D02*
X901700D01*
Y2688600D01*
X964400D01*
Y2746300D01*
D02*
G37*
G36*
X876300D02*
X813600D01*
Y2688600D01*
X876300D01*
Y2746300D01*
D02*
G37*
G36*
X367500Y2701300D02*
X304800D01*
Y2643600D01*
X367500D01*
Y2701300D01*
D02*
G37*
G36*
X279400D02*
X216700D01*
Y2643600D01*
X279400D01*
Y2701300D01*
D02*
G37*
G36*
X1154900Y2688600D02*
X1092200D01*
Y2630900D01*
X1154900D01*
Y2688600D01*
D02*
G37*
G36*
X1066800D02*
X1004100D01*
Y2630900D01*
X1066800D01*
Y2688600D01*
D02*
G37*
G36*
X495300Y2711956D02*
X484188Y2709746D01*
X472478Y2701922D01*
X464654Y2690212D01*
X461907Y2676400D01*
Y2619100D01*
X495300D01*
Y2711956D01*
D02*
G37*
G36*
X964400Y2663200D02*
X901700D01*
Y2605500D01*
X964400D01*
Y2663200D01*
D02*
G37*
G36*
X876300D02*
X813600D01*
Y2605500D01*
X876300D01*
Y2663200D01*
D02*
G37*
G36*
X495300Y2593700D02*
X461907D01*
Y2536400D01*
X464654Y2522588D01*
X472478Y2510878D01*
X484188Y2503054D01*
X495300Y2500844D01*
Y2593700D01*
D02*
G37*
G36*
X495300Y3051800D02*
X462600D01*
Y2959100D01*
X495300D01*
Y3051800D01*
D02*
G37*
G36*
X367500Y2944400D02*
X304800D01*
Y2886700D01*
X367500D01*
Y2944400D01*
D02*
G37*
G36*
X5432700Y1461700D02*
X5270000D01*
Y1274000D01*
X5432700D01*
Y1461700D01*
D02*
G37*
G36*
Y1248600D02*
X5270000D01*
Y1060900D01*
X5432700D01*
Y1248600D01*
D02*
G37*
G36*
X2943263Y990600D02*
X2860600D01*
Y907938D01*
X2884723Y914402D01*
X2906477Y926961D01*
X2924239Y944723D01*
X2936799Y966477D01*
X2943263Y990600D01*
D02*
G37*
G36*
X1035199D02*
X952537D01*
X959001Y966477D01*
X971560Y944723D01*
X989322Y926961D01*
X1011076Y914402D01*
X1035199Y907938D01*
Y990600D01*
D02*
G37*
G36*
X3670800Y961700D02*
X3508100D01*
Y774000D01*
X3670800D01*
Y961700D01*
D02*
G37*
G36*
X3482700D02*
X3320000D01*
Y774000D01*
X3482700D01*
Y961700D01*
D02*
G37*
G36*
X4257600Y3059900D02*
X4199900D01*
Y2997200D01*
X4257600D01*
Y3059900D01*
D02*
G37*
G36*
X4174500D02*
X4116800D01*
Y2997200D01*
X4174500D01*
Y3059900D01*
D02*
G37*
G36*
X4257600Y2971800D02*
X4199900D01*
Y2909100D01*
X4257600D01*
Y2971800D01*
D02*
G37*
G36*
X4174500D02*
X4116800D01*
Y2909100D01*
X4174500D01*
Y2971800D01*
D02*
G37*
G36*
X5170800Y2711700D02*
X4770000D01*
Y2360900D01*
X5170800D01*
Y2711700D01*
D02*
G37*
G36*
X4670800D02*
X4270000D01*
Y2360900D01*
X4670800D01*
Y2711700D01*
D02*
G37*
G36*
X4170800D02*
X3770000D01*
Y2360900D01*
X4170800D01*
Y2711700D01*
D02*
G37*
%LPD*%
D10*
X2336800Y2997200D02*
X2349500Y2984500D01*
X4000500D02*
X4187200D01*
X3868045Y1263479D02*
Y1997621D01*
X3491287Y1259788D02*
X3495400Y1248600D01*
X3073400Y1767479D02*
X3088279Y1752600D01*
X2971800Y1117600D02*
Y3962400D01*
X3187518Y2027379D02*
X3202397Y2012500D01*
X3853166D01*
X3187518Y3454218D02*
X4133600Y4400300D01*
X3073400Y1767479D02*
Y3694875D01*
X3187518Y2027379D02*
Y3454218D01*
X3853166Y2012500D02*
X3868045Y1997621D01*
X3073400Y3694875D02*
X3933600Y4555075D01*
X2971800Y3962400D02*
X3746500Y4737100D01*
X2971800Y1117600D02*
X3073400Y1016000D01*
X3924300D01*
X4416350Y1508050D01*
X4724500Y2248600D02*
X5280300D01*
X3374600Y2391200D02*
X3479800Y2286000D01*
Y3390900D02*
X4333600Y4244700D01*
X3365500Y2286000D02*
Y2391200D01*
X3374600D01*
X3479800Y2286000D02*
Y3390900D01*
X4333600Y4244700D02*
Y5108800D01*
X381000Y3683000D02*
Y5321300D01*
X533400Y5473700D01*
X381000Y3683000D02*
X573000Y3491000D01*
X431800Y3987800D02*
X558800Y3860800D01*
X431800Y3987800D02*
Y5261784D01*
X787400Y5617384D01*
X635000Y3263900D02*
X673100Y3302000D01*
Y3568700D01*
X573000Y2946400D02*
Y3491000D01*
X2082800Y3568700D02*
Y3670300D01*
X1827700Y3313600D02*
X2082800Y3568700D01*
X1981200Y3556000D02*
Y4051300D01*
X1762700Y3337500D02*
X1981200Y3556000D01*
X3486700Y1752600D02*
X3495400Y1761300D01*
X3088279Y1752600D02*
X3486700D01*
X3479800Y2276900D02*
X3495400Y2261300D01*
Y1248600D02*
X3853166D01*
X3868045Y1263479D01*
X4416350Y1508050D02*
Y1940450D01*
X4724500Y2248600D01*
X3746500Y4737100D02*
Y5095900D01*
X4133600Y4400300D02*
Y5108800D01*
X3733600D02*
X3746500Y5095900D01*
X1842579Y2273300D02*
X2159000D01*
X1827700Y2288179D02*
Y2461700D01*
Y2288179D02*
X1842579Y2273300D01*
X1762700Y2267558D02*
Y2461700D01*
X2159000Y2273300D02*
X2654300Y1778000D01*
X1866900Y2171700D02*
X2235200Y1803400D01*
X1754779Y2171700D02*
X1866900D01*
X1899444Y2389400D02*
X2132082D01*
X1892700Y2396144D02*
X1899444Y2389400D01*
X1762700Y2267558D02*
X1807758Y2222500D01*
X1892700Y2396144D02*
Y2461700D01*
X2132082Y2389400D02*
X2847900Y1673581D01*
X1905000Y2222500D02*
X2447900Y1679600D01*
X1807758Y2222500D02*
X1905000D01*
X1697700Y2228779D02*
X1754779Y2171700D01*
X2447900Y1203300D02*
Y1679600D01*
X2235200Y1727200D02*
X2247900Y1714500D01*
X2235200Y1727200D02*
Y1803400D01*
X2654300Y1718300D02*
Y1778000D01*
X2847900Y1203300D02*
Y1673581D01*
X1435100Y3154300D02*
X1437700Y3151700D01*
X1435100Y3154300D02*
Y3670300D01*
X1422400Y3843000D02*
X1435100Y3830300D01*
X1422400Y3843000D02*
Y4178300D01*
X1295400Y4305300D02*
Y4876800D01*
Y4305300D02*
X1422400Y4178300D01*
X1803400Y5448300D02*
Y5816600D01*
X1651000Y4546600D02*
Y5295900D01*
X1803400Y5448300D01*
X1562900Y3649218D02*
Y4458500D01*
X1502700Y3589018D02*
X1562900Y3649218D01*
Y4458500D02*
X1651000Y4546600D01*
X1502700Y3151700D02*
Y3589018D01*
X1651000Y4025900D02*
Y4261333D01*
X1803400Y4413733D01*
X1651000Y4021542D02*
X1653179Y4023721D01*
X1651000Y4025900D02*
X1653179Y4023721D01*
X1651000Y3822700D02*
Y4021542D01*
X1803400Y4413733D02*
Y4876800D01*
X1625600Y3637300D02*
X1651000Y3662700D01*
X1625600Y3594100D02*
Y3637300D01*
X1567700Y3151700D02*
Y3536200D01*
X1625600Y3594100D01*
X1632700Y3495518D02*
X1778800Y3641618D01*
X1632700Y3151700D02*
Y3495518D01*
X2311400Y5613400D02*
Y5816600D01*
X2222500Y5524500D02*
X2311400Y5613400D01*
X2222500Y4699000D02*
Y5524500D01*
X1778800Y4255300D02*
X2222500Y4699000D01*
X1778800Y3641618D02*
Y4255300D01*
X1697700Y3151700D02*
Y3399500D01*
X1866900Y3568700D02*
Y3662700D01*
X1697700Y3399500D02*
X1866900Y3568700D01*
X1827700Y3151700D02*
Y3313600D01*
X1866900Y3822700D02*
Y4089400D01*
X2311400Y4533900D02*
Y4876800D01*
X1866900Y4089400D02*
X2311400Y4533900D01*
X2082800Y3830300D02*
Y3949700D01*
X2819400Y4686300D02*
Y4876800D01*
X2082800Y3949700D02*
X2819400Y4686300D01*
Y5588000D02*
Y5816600D01*
X2781300Y5549900D02*
X2819400Y5588000D01*
X2413000Y5346700D02*
X2616200Y5549900D01*
X2781300D01*
X2413000Y4483100D02*
Y5346700D01*
X1981200Y4051300D02*
X2413000Y4483100D01*
X1762700Y3151700D02*
Y3337500D01*
X1181100Y3708118D02*
Y5702300D01*
X1295400Y5816600D01*
X1181100Y3708118D02*
X1372700Y3516518D01*
Y3213100D02*
Y3516518D01*
Y3151700D02*
Y3212000D01*
X1371600Y3213100D02*
X1372700Y3212000D01*
X673100Y3728700D02*
Y3810000D01*
X622300Y3860800D02*
X673100Y3810000D01*
X558800Y3860800D02*
X622300D01*
X787400Y5617384D02*
Y5816600D01*
X533400Y5473700D02*
Y5816600D01*
X635000Y2949400D02*
X638000Y2946400D01*
X635000Y2949400D02*
Y3263900D01*
X1247899Y1203300D02*
Y1965201D01*
X710300Y2502800D02*
X1247899Y1965201D01*
X703000Y2606400D02*
X710300Y2599100D01*
Y2502800D02*
Y2599100D01*
X1054100Y1692900D02*
X1066800Y1705600D01*
Y2006600D01*
X638000Y2435400D02*
Y2606400D01*
Y2435400D02*
X1066800Y2006600D01*
X1437700Y1703000D02*
Y2461700D01*
Y1703000D02*
X1447800Y1692900D01*
X1502700Y1926300D02*
Y2461700D01*
X1647900Y1203300D02*
Y1781100D01*
X1502700Y1926300D02*
X1647900Y1781100D01*
X1567700Y2026400D02*
Y2461700D01*
Y2026400D02*
X1600200Y1993900D01*
X1676400D01*
X1841500Y1828800D01*
Y1689100D02*
Y1828800D01*
X1653179Y2095500D02*
X1765300D01*
X1632700Y2115979D02*
Y2461700D01*
Y2115979D02*
X1653179Y2095500D01*
X1697700Y2228779D02*
Y2461700D01*
X2047900Y1203300D02*
Y1812900D01*
X1765300Y2095500D02*
X2047900Y1812900D01*
X2647900Y1203300D02*
Y1551900D01*
X2654300Y1558300D01*
X2247900Y1203300D02*
Y1554500D01*
X1847900Y1203300D02*
Y1522700D01*
X1841500Y1529100D02*
X1847900Y1522700D01*
X1447900Y1203300D02*
Y1532800D01*
X1447800Y1532900D02*
X1447900Y1532800D01*
X1047899Y1203300D02*
Y1526699D01*
X1054100Y1532900D01*
X3933600Y4555075D02*
Y5108800D01*
D11*
X3333600D02*
D03*
X3333600Y5308800D02*
D03*
X3533600Y5108800D02*
D03*
Y5308800D02*
D03*
X3733600Y5108800D02*
D03*
Y5308800D02*
D03*
X3933600Y5108800D02*
D03*
Y5308800D02*
D03*
X4133600Y5108800D02*
D03*
Y5308800D02*
D03*
X4333600Y5108800D02*
D03*
X4533600D02*
D03*
X4333600Y5308800D02*
D03*
D12*
X4533600D02*
D03*
D13*
X2847900Y1003300D02*
D03*
X2647900D02*
D03*
X2447900D02*
D03*
X2247900D02*
D03*
X2047900D02*
D03*
X1847900D02*
D03*
X1647900D02*
D03*
X1447900D02*
D03*
X1247899D02*
D03*
X1047899D02*
D03*
X2847900Y1203300D02*
D03*
X2647900D02*
D03*
X2447900D02*
D03*
X2247900D02*
D03*
X2047900D02*
D03*
X1847900D02*
D03*
X1647900D02*
D03*
X1447900D02*
D03*
X1247899D02*
D03*
D14*
X1047899D02*
D03*
D15*
X2260600Y3073400D02*
D03*
X4000500Y2984500D02*
D03*
D16*
X533400Y5816600D02*
D03*
X787400D02*
D03*
X1041400D02*
D03*
X1295400D02*
D03*
X1549400D02*
D03*
X1803400D02*
D03*
X2057400D02*
D03*
X2311400D02*
D03*
X2565400D02*
D03*
X533400Y4876800D02*
D03*
X787400D02*
D03*
X1041400D02*
D03*
X1295400D02*
D03*
X1549400D02*
D03*
X1803400D02*
D03*
X2057400D02*
D03*
X2311400D02*
D03*
X2565400D02*
D03*
X2819400D02*
D03*
D17*
Y5816600D02*
D03*
D18*
X1054100Y1532900D02*
D03*
Y1692900D02*
D03*
X1447800Y1532900D02*
D03*
Y1692900D02*
D03*
X1841500Y1529100D02*
D03*
Y1689100D02*
D03*
X2247900Y1554500D02*
D03*
Y1714500D02*
D03*
X2654300Y1558300D02*
D03*
Y1718300D02*
D03*
X2260600Y2761000D02*
D03*
Y2921000D02*
D03*
X889000Y2675900D02*
D03*
Y2835900D02*
D03*
X1079500Y2701300D02*
D03*
Y2861300D02*
D03*
X292100Y2714000D02*
D03*
Y2874000D02*
D03*
X2082800Y3830300D02*
D03*
Y3670300D02*
D03*
X1866900Y3822700D02*
D03*
Y3662700D02*
D03*
X1651000Y3822700D02*
D03*
Y3662700D02*
D03*
X1435100Y3830300D02*
D03*
Y3670300D02*
D03*
X673100Y3728700D02*
D03*
Y3568700D02*
D03*
D19*
X508000Y2946400D02*
D03*
D20*
X573000D02*
D03*
X638000D02*
D03*
X703000D02*
D03*
X508000Y2606400D02*
D03*
X573000D02*
D03*
X638000D02*
D03*
X703000D02*
D03*
D21*
X4347200Y2984500D02*
D03*
X4187200D02*
D03*
D22*
X256400Y4203700D02*
D03*
X556400D02*
D03*
D23*
X3495400Y761300D02*
D03*
Y1261300D02*
D03*
Y1761300D02*
D03*
Y2261300D02*
D03*
X5445400Y761300D02*
D03*
Y1261300D02*
D03*
Y1761300D02*
D03*
Y2261300D02*
D03*
D24*
X3970400Y2536300D02*
D03*
X4470400D02*
D03*
X4970400D02*
D03*
D25*
X1307700Y3151700D02*
D03*
X1372700D02*
D03*
X1437700D02*
D03*
X1502700D02*
D03*
X1567700D02*
D03*
X1632700D02*
D03*
X1697700D02*
D03*
X1762700D02*
D03*
X1827700D02*
D03*
X1892700D02*
D03*
X1307700Y2461700D02*
D03*
X1372700D02*
D03*
X1437700D02*
D03*
X1502700D02*
D03*
X1567700D02*
D03*
X1632700D02*
D03*
X1697700D02*
D03*
X1762700D02*
D03*
X1827700D02*
D03*
X1892700D02*
D03*
%TF.MD5,aa0e1f8893623745c88d03e85039204b*%
M02*
